<?xml version="1.0" encoding="UTF-8"?>
<svg id="Layer_1" xmlns="http://www.w3.org/2000/svg" viewBox="0 0 290.81 290.81">
  <defs>
    <style>
      .cls-1 {
        fill: #f06723;
      }

      .cls-2 {
        fill: #fff;
      }
    </style>
  </defs>
  <path class="cls-1" d="M0,0v290.81h290.81V0H0Z"/>
  <path class="cls-2" d="M190.22,101.68c-2.94,3.76-6.27,4.2-11.2,2.78-9.33-2.69-19.05-4-30.1-6.18,1.99,13.47.55,25.78,10.76,34.78.75.66.93,2.42.78,3.57-4.75,34.64-9.57,69.26-14.4,103.88-.07.55-.35,1.06-1.42,1.66-1.61-11.3-3.24-22.61-4.81-33.91-3-21.62-5.96-43.24-8.93-64.86-.69-5.03-.59-8.95,3.33-13.83,6.51-8.08,7.04-18.88,6.93-29.86-10.54-.26-20.62.76-30.11,4.74-4.73,1.99-7.99.62-10.59-2.88-2.83-3.8-2.71-8.1.23-11.83,2.6-3.28,5.75-3.96,10.23-2.75,9.78,2.64,19.84,4.27,30.6,6.48-.02-11.7-.91-21.81-4.84-31.32-1.98-4.81-.93-8.34,2.72-11.27,3.76-3.03,7.96-3.04,11.74,0,3.66,2.95,4.21,6.39,2.83,11.28-2.72,9.56-4.23,19.48-6.24,29.25.62.66,1.23,1.33,1.84,1.98,9.76-1.93,19.64-3.39,29.22-5.98,4.72-1.28,8.31-1.37,11.32,2.5,2.92,3.78,3.12,7.91.11,11.76h.01Z"/>
</svg>