<?xml version="1.0" encoding="UTF-8"?>
<svg id="Layer_1" xmlns="http://www.w3.org/2000/svg" viewBox="0 0 290.81 290.81">
  <defs>
    <style>
      .cls-1 {
        fill: #243976;
      }

      .cls-2 {
        fill: #d82927;
        fill-rule: evenodd;
      }

      .cls-3 {
        fill: #fff;
      }
    </style>
  </defs>
  <rect class="cls-1" width="290.81" height="290.81"/>
  <g id="layer1">
    <g id="g4940">
      <path id="path1274" class="cls-3" d="M111.55,179.67l-.31.3c-4.99,5.09-10.77,7.78-16.72,7.78-12.43,0-21.45-9.32-21.45-22.19s9.02-22.18,21.45-22.18c5.95,0,11.73,2.71,16.72,7.81l.31.31,7.99-9.66-.21-.26c-6.65-7.85-14.62-11.68-24.43-11.68s-18.83,3.31-25.31,9.28c-7.04,6.47-10.76,15.59-10.76,26.38s3.72,19.93,10.76,26.4c6.48,6,15.48,9.29,25.31,9.29s17.78-3.82,24.43-11.68l.21-.24-7.99-9.67Z"/>
      <path id="path1276" class="cls-3" d="M127.62,199.94h14.12v-68.92h-14.12v68.92h0Z"/>
      <path id="path1278" class="cls-3" d="M197.05,184.95c-3.77,2.29-7.27,3.45-10.42,3.45-4.56,0-6.62-2.41-6.62-7.77v-36.57h14.38v-12.98h-14.38v-21.45l-13.84,7.41v14.04h-11.94v12.98h11.94v38.9c0,10.6,6.28,17.84,15.65,18.03,6.36.12,10.2-1.77,12.53-3.16l.14-.1,3.4-13.29-.84.51h0Z"/>
      <path id="path1280" class="cls-3" d="M208.74,199.94h14.13v-68.92h-14.13v68.92h0Z"/>
      <path id="path1284" class="cls-2" d="M231.33,118.79c-12.92-18.31-34.39-29.23-56.23-29.23s-43.3,10.92-56.2,29.23l-.66.94h16.27l.18-.2c11.08-11.43,25.54-17.48,40.41-17.48s29.33,6.05,40.43,17.48l.18.2h16.27l-.65-.94Z"/>
    </g>
  </g>
</svg>