<?xml version="1.0" encoding="UTF-8"?>
<svg id="Layer_1" xmlns="http://www.w3.org/2000/svg" viewBox="0 0 290.81 290.81">
  <defs>
    <style>
      .cls-1 {
        fill: #299d48;
      }

      .cls-2 {
        fill: #fff;
      }
    </style>
  </defs>
  <path class="cls-1" d="M0,0v290.81h290.81V0H0Z"/>
  <g>
    <path class="cls-2" d="M81.81,118.4c0-12.27.12-24.53-.06-36.8-.07-5.41,4.26-9.81,9.74-9.83,24.53-.02,49.06-.26,73.58.16,14.48.24,27.85,4.74,39.14,14.15,15.05,12.53,20.83,28.9,18.74,48.11-1.85,17.16-10.12,30.39-25.43,38.69-7.82,4.25-16.28,6.71-25.32,6.64-3.54-.02-7.08.07-10.61.02-4.54-.06-6.8-2.32-6.82-6.86-.03-10.22,0-20.44-.02-30.67,0-9.13-7.38-14.41-16.02-11.43-5.47,1.89-10.07,5.42-15.01,8.31-11.14,6.52-22.17,13.23-33.25,19.83-.87.52-1.77,1.06-2.74,1.35-3.43,1.04-5.96-.83-5.97-4.39-.01-12.42,0-24.84,0-37.27h.03Z"/>
    <path class="cls-2" d="M144.36,179.11c0,9.91.02,19.82,0,29.71-.01,6.52-3.73,10.22-10.27,10.25-6.68.04-13.37.07-20.05,0-15.69-.17-29.68-12.05-32.05-27.34-.66-4.27-.33-8.63-.16-12.95.09-2.41,1.64-3.99,3.63-5.18,10.64-6.38,21.28-12.76,31.91-19.14,5.79-3.47,11.6-6.92,17.37-10.42,2.28-1.38,4.58-2.08,7.08-.59,2.28,1.36,2.56,3.54,2.55,5.93-.04,9.91-.01,19.82-.01,29.71v.02Z"/>
  </g>
</svg>