<?xml version="1.0" encoding="UTF-8"?>
<svg id="Layer_1" xmlns="http://www.w3.org/2000/svg" viewBox="0 0 290.81 290.81">
  <defs>
    <style>
      .cls-1 {
        fill: #08a84e;
      }

      .cls-2 {
        fill: #fff;
      }

      .cls-3 {
        fill: #192f59;
      }
    </style>
  </defs>
  <rect class="cls-3" width="290.81" height="290.81"/>
  <g id="layer1">
    <g id="g3287">
      <g>
        <g id="g853">
          <path id="path855" class="cls-1" d="M50.96,135.91h3.46c4.05,0,6.06-2.39,6.06-5.31,0-5.17-4.66-5.67-6.52-5.67h-3.01v10.97ZM50.96,121.34h2.84c2.06,0,5.21-.53,5.21-4.68,0-4.4-3.16-4.57-5.49-4.57h-2.57v9.25ZM46.46,108.48h8.96c3.01,0,8.09,1.22,8.09,7.38,0,5.13-3.37,6.56-4.82,7.1v.09c2.31.35,6.3,1.97,6.3,7.94,0,7.61-6.02,8.5-9.93,8.5h-8.6v-31.02Z"/>
        </g>
        <g id="g857">
          <path id="path859" class="cls-1" d="M95.31,108.48h5.62l12.23,24.28h.08v-24.28h4.04v31.03h-5.31l-12.54-24.86h-.09v24.86h-4.04v-31.03Z"/>
        </g>
        <g id="g861">
          <path id="path863" class="cls-1" d="M140.19,134.73c-1.28.74-3.35,1.68-6.02,1.68-6.42,0-8.31-5.71-8.31-13.49,0-4.22.81-11.34,6.65-11.34,2.41,0,3.65,1.08,4.28,2.35l3.45-3.2c-1.69-1.72-4.27-2.73-7.59-2.73-9.03,0-11.73,7.42-11.73,15.64,0,12.14,5.53,16.37,12.37,16.37,3.61,0,6.78-1.25,8.1-1.83l-1.19-3.44Z"/>
        </g>
        <g id="g865">
          <path id="path867" class="cls-1" d="M153.97,136.41c6.2,0,7.2-7.34,7.2-12.41s-.99-12.42-7.2-12.42-7.14,7.33-7.14,12.42.95,12.41,7.14,12.41M141.89,124c0-8.41,2.56-16.01,12.08-16.01s12.16,7.6,12.16,16.01-2.63,16-12.16,16-12.08-7.63-12.08-16"/>
        </g>
        <g id="g869">
          <path id="path871" class="cls-1" d="M92.93,139.51l-10.61-31.04h-5.53l-10.56,31.04h4.78l8.53-26.9h.1l3.95,12.45h-3.94l-1.14,3.59h6.22l3.45,10.86h4.76Z"/>
        </g>
      </g>
      <g>
        <g id="g873">
          <path id="path875" class="cls-2" d="M50.95,164.29h3.21c3.27,0,5.69-.87,5.69-4.65,0-4.69-3.37-4.76-5.69-4.76h-3.21v9.4ZM46.46,151.29h7.45c4.59,0,10.87.11,10.87,8.24,0,7.61-6.69,8.34-9.84,8.34h-4v14.45h-4.49v-31.04Z"/>
        </g>
        <g id="g877">
          <path id="path879" class="cls-2" d="M93.45,154.89h-7.74v-3.59h19.95v3.59h-7.72v27.44h-4.5v-27.44Z"/>
        </g>
        <g id="g881">
          <path id="path883" class="cls-2" d="M168.24,179.23c6.21,0,7.2-7.34,7.2-12.41s-.99-12.42-7.2-12.42-7.13,7.33-7.13,12.42.94,12.41,7.13,12.41M156.17,166.82c0-8.42,2.57-16.03,12.07-16.03s12.15,7.6,12.15,16.03-2.61,15.99-12.15,15.99-12.07-7.63-12.07-15.99"/>
        </g>
        <g id="g885">
          <path id="path887" class="cls-2" d="M184.02,151.3h5.61l12.24,24.28h.08v-24.28h4.04v31.04h-5.3l-12.54-24.86h-.1v24.86h-4.04v-31.04Z"/>
        </g>
        <path id="path889" class="cls-2" d="M210.78,151.3h4.5v31.03h-4.5v-31.03Z"/>
        <g id="g891">
          <path id="path893" class="cls-2" d="M141.58,167.88h6.59v10.12c-.3.46-2.51,1.23-5.25,1.23-7.14,0-7.97-7.47-7.97-13.36s1.33-11.47,7.18-11.47c2.51,0,4.01,1.05,4.78,2.52l3.4-3.18c-1.9-1.98-4.87-2.96-8.14-2.96-8.81,0-12.18,6.53-12.18,15.08,0,12.01,5.08,16.95,13.08,16.95,5.11,0,8.31-2.2,9.26-2.91v-15.61h-10.75v3.59Z"/>
        </g>
        <g id="g895">
          <path id="path897" class="cls-2" d="M88.53,182.33l-10.62-31.04h-5.54l-10.57,31.04h4.77l8.55-26.9h.08l3.96,12.45h-3.95l-1.13,3.59h6.2l3.46,10.86h4.78Z"/>
        </g>
        <g id="g899">
          <path id="path901" class="cls-2" d="M244.35,182.33l-10.61-31.04h-5.53l-10.57,31.04h4.77l8.55-26.9h.08l3.95,12.45h-3.93l-1.14,3.59h6.22l3.45,10.86h4.77Z"/>
        </g>
        <g id="g903">
          <path id="path905" class="cls-2" d="M129.62,182.33l-10.61-31.04h-5.54l-10.55,31.04h4.75l8.55-26.9h.08l3.96,12.45h-3.94l-1.14,3.59h6.22l3.45,10.86h4.77Z"/>
        </g>
      </g>
    </g>
  </g>
</svg>