<?xml version="1.0" encoding="UTF-8"?>
<svg id="Layer_1" xmlns="http://www.w3.org/2000/svg" viewBox="0 0 290.81 290.81">
  <defs>
    <style>
      .cls-1 {
        fill: #fff;
      }

      .cls-2 {
        fill: #e11f26;
      }
    </style>
  </defs>
  <rect class="cls-1" width="290.81" height="290.81"/>
  <g id="JbbAj8">
    <g>
      <path class="cls-2" d="M161.66,151.37c-11.87-18.33-28.22-23.5-43.88-14.17-3.03,1.81-5.71,4.34-8.23,6.85-18.83,18.79-37.58,37.66-56.43,56.57-20.44-31.02-22.25-79.98,3.94-117.26,26.61-37.87,74.71-55.05,119.11-42.16,41.82,12.15,75.26,51.6,77.03,91.59-14.26-.69-22.82,8.92-31.91,18.75-6.62-11.69-15.74-18.67-29.38-18.63-13.66.04-21.4,9.6-30.26,18.47Z"/>
      <path class="cls-2" d="M252.49,163.17c-3.26,31.41-28.04,69.88-69.73,84.54-40.77,14.34-89.3,2.9-115.02-27.71,15.03-2.45,22.87-14.33,32.52-23.72,13.94-13.56,27.58-27.42,41.25-41.25,1.76-1.78,2.91-4.16,4.33-6.25,8.14,8.13,8.18,10.25,1.72,16.67-14.98,14.88-29.96,29.75-44.87,44.55,9.34,12.82,29.64,13.2,42.29,1.09,7.94-7.6,15.62-15.46,23.33-23.3,12.58-12.79,25.08-25.66,37.6-38.49,7.58,7.44,7.66,9.76,1.3,16.09-14.98,14.89-29.97,29.77-44.88,44.58,9.01,12.83,29.59,13.27,42.18,1.14,9.59-9.23,18.89-18.77,28.3-28.19,6.39-6.39,12.76-12.8,19.68-19.75Z"/>
    </g>
  </g>
</svg>