<?xml version="1.0" encoding="UTF-8"?>
<svg id="Layer_1" xmlns="http://www.w3.org/2000/svg" viewBox="0 0 290.81 290.81">
  <defs>
    <style>
      .cls-1 {
        fill: #e82128;
      }

      .cls-2 {
        fill: #fff;
      }
    </style>
  </defs>
  <rect class="cls-1" width="290.81" height="290.81"/>
  <path class="cls-2" d="M185.24,138.42c-.41-6.35-2.07-12.7-5.39-18.21l-28.22-50.38c-2.07-3.81-3.73-8.04-4.56-12.28l-1.24,2.12c-7.05,12.28-7.05,27.94,0,40.22l22.82,40.22c7.05,12.28,7.05,27.94,0,40.22l-1.24,2.12c-.83-4.23-2.49-8.47-4.56-12.28l-20.75-36.83-13.28-23.71c-2.07-3.81-3.73-8.04-4.56-12.28l-1.24,2.12c-7.05,12.28-7.05,27.52,0,40.22l22.82,40.22c7.05,12.28,7.05,27.94,0,40.22l-1.24,2.12c-.83-4.23-2.49-8.47-4.56-12.28l-28.63-50.38c-3.73-6.77-5.39-14.4-5.39-22.02-30.29,8.04-51.45,25.4-51.45,45.3,0,27.94,40.67,50.38,90.88,50.38s90.87-22.44,90.87-50.38c.42-19.05-20.33-36.41-51.04-44.45Z"/>
</svg>