<?xml version="1.0" encoding="UTF-8"?>
<svg id="Layer_1" xmlns="http://www.w3.org/2000/svg" viewBox="0 0 290.81 290.81">
  <defs>
    <style>
      .cls-1 {
        fill: #c22628;
      }

      .cls-2 {
        fill: #b2b2b3;
      }

      .cls-3 {
        fill: #fff;
      }

      .cls-4 {
        fill: #d6d7d8;
      }
    </style>
  </defs>
  <rect class="cls-3" width="290.81" height="290.81"/>
  <g>
    <path class="cls-3" d="M190.58,136.74c7.18.23,13.79,1.46,19.33-3.67,5.06-4.69,9.18-10.12,13.05-15.78.85-1.24.74-2.17-.13-3.32-2.56-3.37-5.19-6.69-7.5-10.23-5.77-8.83-14.23-10.26-24.24-9.04,2.41,3.49,4.67,6.76,7.28,10.55h-4.68c-36.72,0-73.45.05-110.17-.06-4.74-.01-8.09,1.83-10.6,5.66-2.35,3.57-3.68,7.56-5.15,11.52-1.23,3.32-.17,3.78,2.99,3.77,40.96-.1,81.91-.07,122.87-.07h4.41c-2.62,3.74-4.8,6.86-7.46,10.66ZM131.5,140.5c-14.81,0-29.64.45-44.43-.17-8.48-.36-12.92,3.76-16.1,10.55-.95,2.02-1.67,4.15-2.37,6.27-1.34,4.08-1.25,4.18,2.99,4.18,28.51,0,57.01-.07,85.52.09,4.14.02,7.52-1.14,10.69-3.5,5.24-3.89,9.8-8.43,13.27-13.99.56-.9,1.86-1.79,1.32-2.88-.57-1.15-2.03-.52-3.08-.52-15.93-.04-31.87-.03-47.8-.03ZM105.48,196.44c10.94,0,21.89-.03,32.83.03,1.93,0,3.65-.35,5.34-1.29,6.69-3.72,11.75-9.06,15.54-15.64,2.04-3.55,1.76-4-2.17-4-24.62-.01-49.25,0-73.87-.02-3.81,0-6.57,1.62-8.74,4.7-2.63,3.73-3.93,7.98-5.37,12.22-.97,2.87-.46,4.09,2.87,4.05,11.19-.13,22.38-.05,33.58-.05Z"/>
    <path class="cls-1" d="M190.58,136.74c2.66-3.8,4.84-6.92,7.46-10.66h-4.41c-40.96,0-81.91-.03-122.87.07-3.16,0-4.22-.45-2.99-3.77,1.47-3.96,2.8-7.95,5.15-11.52,2.52-3.83,5.86-5.67,10.6-5.66,36.72.1,73.45.06,110.17.06h4.68c-2.61-3.79-4.88-7.06-7.28-10.55,10-1.22,18.47.21,24.24,9.04,2.31,3.53,4.94,6.86,7.5,10.23.88,1.15.98,2.08.13,3.32-3.87,5.67-7.99,11.09-13.05,15.78-5.54,5.14-12.15,3.9-19.33,3.67Z"/>
    <path class="cls-2" d="M131.5,140.5c15.93,0,31.87-.01,47.8.03,1.05,0,2.51-.63,3.08.52.54,1.09-.76,1.97-1.32,2.88-3.47,5.56-8.03,10.1-13.27,13.99-3.17,2.36-6.55,3.53-10.69,3.5-28.5-.16-57.01-.08-85.52-.09-4.24,0-4.33-.1-2.99-4.18.7-2.12,1.43-4.25,2.37-6.27,3.18-6.79,7.62-10.91,16.1-10.55,14.79.63,29.62.17,44.43.17Z"/>
    <path class="cls-4" d="M105.48,196.44c-11.19,0-22.39-.08-33.58.05-3.32.04-3.84-1.18-2.87-4.05,1.43-4.24,2.73-8.49,5.37-12.22,2.18-3.09,4.93-4.71,8.74-4.7,24.62.03,49.25,0,73.87.02,3.93,0,4.22.45,2.17,4-3.79,6.57-8.84,11.92-15.54,15.64-1.69.94-3.42,1.3-5.34,1.29-10.94-.05-21.89-.03-32.83-.03Z"/>
  </g>
</svg>