<?xml version="1.0" encoding="UTF-8"?>
<svg id="Layer_1" xmlns="http://www.w3.org/2000/svg" viewBox="0 0 290.81 290.81">
  <defs>
    <style>
      .cls-1 {
        fill: #fff;
      }

      .cls-2 {
        fill: #263370;
      }
    </style>
  </defs>
  <g id="rR0Zqg">
    <g>
      <path class="cls-1" d="M290.81,290.81H0V0h290.81v290.81ZM148.94,284.91c4.26-.45,12.07-1.13,19.83-2.17,3.62-.48,7.16-1.57,10.7-2.55,31.01-8.59,55.58-26.38,74.13-52.5,14.9-20.97,23.27-44.36,25.37-70.06,1.25-15.21.32-30.24-3.23-45.02-5.55-23.13-16.1-43.78-32.11-61.48-23.83-26.33-53.42-41.34-88.84-44.25-15.24-1.25-30.44.16-45.13,4.63C71.36,23.18,43.43,47.31,25.62,83.03c-11.89,23.85-16.15,49.24-13.8,75.81,1.04,11.72,3.42,23.1,7.32,34.15,8.34,23.61,21.88,43.74,40.98,60.01,24.56,20.92,53,31.5,88.81,31.91Z"/>
      <path class="cls-2" d="M148.94,284.91c-35.81-.41-64.25-10.99-88.81-31.91-19.1-16.27-32.64-36.4-40.98-60.01-3.9-11.05-6.29-22.43-7.32-34.15-2.35-26.57,1.91-51.96,13.8-75.81C43.43,47.31,71.36,23.18,109.67,11.51c14.69-4.48,29.88-5.88,45.13-4.63,35.42,2.91,65.01,17.92,88.84,44.25,16.01,17.7,26.56,38.35,32.11,61.48,3.55,14.78,4.48,29.81,3.23,45.02-2.11,25.7-10.47,49.09-25.37,70.06-18.56,26.12-43.12,43.91-74.13,52.5-3.53.98-7.08,2.06-10.7,2.55-7.76,1.04-15.56,1.72-19.83,2.17ZM26.83,141.88c-.43,17.45,2.38,34.35,8.84,50.61,18.73,47.19,65.97,80.24,118.87,75.73,11.07-.94,21.9-2.98,32.08-7.31,46.31-19.72,71.35-55.3,76.86-104.89,1.68-15.14-.16-30.15-4.34-44.85-6.78-23.87-19.38-44.09-38.27-60.15-24.06-20.46-51.88-30-83.58-27.92-11.39.75-22.42,3.06-32.98,7.23-30.06,11.89-51.81,32.81-65.71,61.85-7.5,15.66-11.37,32.29-11.78,49.7Z"/>
      <path class="cls-1" d="M26.83,141.88c.41-17.41,4.29-34.04,11.78-49.7,13.91-29.04,35.65-49.96,65.71-61.85,10.56-4.17,21.59-6.48,32.98-7.23,31.69-2.08,59.52,7.46,83.58,27.92,18.89,16.06,31.49,36.28,38.27,60.15,4.17,14.7,6.02,29.71,4.34,44.85-5.51,49.59-30.55,85.17-76.86,104.89-10.18,4.34-21.01,6.37-32.08,7.31-52.9,4.5-100.14-28.54-118.87-75.73-6.46-16.27-9.27-33.16-8.84-50.61ZM128.15,70.51s-.36.05-.68.18c-13.49,5.4-25.13,13.39-33.97,25.01-1.99,2.61-4.13,3.63-7.11,3.6-1.51-.01-3.02-.23-4.53-.21-4.71.06-9.47-.16-14.11.46-2.03.27-4.49,1.91-5.54,3.66-1.27,2.12,1.43,3.44,2.7,5.01,5.49,6.8,9.89,13.98,8.53,23.37-.56,3.92-.82,7.94-.64,11.88.37,8.49.97,16.97,1.76,25.43.31,3.32,1.39,6.57,2.12,9.85.2-3.2-.21-6.29-.41-9.39-.88-13.98.47-27.58,7.78-39.92,3.12-5.26,6.45-10.51,12.17-13.47,3.52-1.82,7.09-1.29,9.56,1.36,2.21,2.37,2.42,5.4-.05,8.75-2.45,3.33-5.29,6.38-8.12,9.41-13.7,14.64-19.27,31.78-16.03,51.66.1-1.03.11-2.05.1-3.08-.08-11.32,2.5-21.91,9.12-31.21,1.87-2.63,4.4-4.88,6.95-6.89,1.6-1.26,3.76-1.17,5.41.54,1.68,1.74,1.33,3.64.21,5.41-1.06,1.67-2.33,3.2-3.59,4.73-4.26,5.15-8.79,10.11-11.22,16.52-4.61,12.14-5.47,24.62-3.24,37.32.94,5.35,2.86,10.41,6.89,14.27.9.86,2.57.92,3.89,1.34.16-1.36.76-2.85.41-4.07-1.34-4.67,1.96-11.45,6.68-12.86,1.3-.39,2.81-.06,4.29-.06-1.56,3.26-3.04,5.96-4.11,8.81-.33.87.12,2.59.83,3.21,10.41,9.15,22.16,15.79,36.19,19.04-7.28-8.99-14.68-17.49-17.9-28.52-3.26-11.16-2.15-22.08,1.99-32.88,2.29,1.1,4.29,2.05,6.86,3.29,0-2.4.28-4.29-.05-6.06-.92-4.91-1-9.19,3.6-12.79,3.98-3.11,7.37-7.02,10.84-10.75,4.13-4.43,7.57-9.34,9.27-15.39-.53-.27-.92-.53-1.35-.68-5.68-1.95-11.53-3.53-17.02-5.91-6.32-2.74-11.83-6.82-14.61-13.48-3.65-8.76-3.12-17.82-.72-26.69,1.82-6.74,4.53-13.24,6.83-19.8ZM155.06,106.05c-2.84,3.39-7.66,4.23-12.59,4.69-5.08.48-9.92-.15-14.23-4.47.25,1.31.34,1.85.47,2.38,2.54,10.48,9.68,16.78,19.2,20.71,9.04,3.74,9.85,3.47,16.68-3.7,2-2.1,4.33-2.58,7.13-2.52,6.02.14,12.12.48,18.06-.25,3.96-.49,7.99-2.2,11.48-4.23,3.64-2.12,3.13-5.44-.66-7.36-2.26-1.15-4.58-2.23-6.96-3.09-3.11-1.12-5.1-3.31-5.13-6.44-.05-4.68.49-9.37.88-14.05.72-8.7,8-14.28,10.63-22.15.98-2.93,1.69-4.08-.94-5.82-1.85-1.23-3.93-2.35-6.06-2.9-8.6-2.23-17.3-1.6-25.86.16-10.46,2.15-20.42,5.89-29.89,10.85-1.31.69-2.56,1.91-3.28,3.2-4.91,8.8-6.86,18.3-6.2,28.32.07,1.11.65,2.33,1.33,3.25,5.32,7.18,20.67,5.37,25.5.15.42-.45.8-1.08.89-1.67,1.44-10.33,6.18-19.15,12.8-26.93,6.07-7.14,13.7-12.02,23.06-13.82,3.1-.6,5.26.14,6.66,2.33-10.39,1.71-19.16,6.05-25.01,15.14-5.62,8.74-9.13,18.07-8.04,29.25-3.12-.32-6.19-.64-9.92-1.03ZM168.17,216.52c-.78-1.03-1.06-1.23-1.09-1.46-.1-.75-.15-1.51-.14-2.26.15-8.45,2.5-16.31,6.22-23.84.44-.89.66-2.46.18-3.14-1.46-2.06-3.2-3.97-5.04-5.72-4.05-3.87-7.54-2.92-8.6,2.62-1.09,5.72-1.9,11.55-2.2,17.37-.51,9.84.74,19.51,5.05,29.27-12.16.99-22.64-2.35-32.44-8.66,6.34,11.03,14.1,20.72,24.7,27.88,1.22.83,2.71,1.62,4.12,1.69,1.1.05,2.88-.77,3.26-1.67.77-1.83-2.67-5.76-4.77-6.06-1.25-.18-2.46-.63-3.68-.96.09-.28.18-.57.28-.85,2.68.19,5.39.77,8.03.52,10.64-1.04,20.7-3.98,29.52-10.29,6.08-4.34,12-8.89,15.53-15.73,3.03-5.86.9-10.66-5.41-12.39-1.27-.35-2.58-.57-3.83-.95-2.27-.69-4.06-.31-5.15,1.99-1.76,3.69-3.52,7.38-5.28,11.07-.19-.05-.38-.09-.57-.14,1.56-4.88,3.11-9.76,4.68-14.68-1.47-.63-3.08-1.32-5.46-2.33-2.59,6.26-5.1,12.32-7.58,18.33-.99-3.33.02-6.83.96-10.24.97-3.49,2.36-6.87,3.57-10.31-1.59-1.37-3.2-2.75-4.79-4.12-5.65,7.31-8.39,15.62-10.07,25.07Z"/>
      <path class="cls-2" d="M128.15,70.51c-2.3,6.56-5.01,13.06-6.83,19.8-2.4,8.87-2.94,17.93.72,26.69,2.78,6.67,8.29,10.74,14.61,13.48,5.49,2.39,11.33,3.96,17.02,5.91.43.15.82.41,1.35.68-1.7,6.05-5.13,10.96-9.27,15.39-3.47,3.72-6.86,7.64-10.84,10.75-4.6,3.6-4.52,7.88-3.6,12.79.33,1.77.05,3.66.05,6.06-2.58-1.23-4.57-2.19-6.86-3.29-4.15,10.8-5.25,21.71-1.99,32.88,3.22,11.03,10.62,19.53,17.9,28.52-14.03-3.25-25.79-9.89-36.19-19.04-.71-.62-1.15-2.34-.83-3.21,1.07-2.85,2.54-5.55,4.11-8.81-1.48,0-2.99-.33-4.29.06-4.72,1.4-8.02,8.19-6.68,12.86.35,1.22-.25,2.71-.41,4.07-1.32-.43-2.99-.48-3.89-1.34-4.03-3.86-5.95-8.92-6.89-14.27-2.24-12.7-1.37-25.18,3.24-37.32,2.43-6.4,6.96-11.37,11.22-16.52,1.26-1.52,2.53-3.06,3.59-4.73,1.12-1.77,1.47-3.67-.21-5.41-1.65-1.71-3.81-1.8-5.41-.54-2.55,2.01-5.08,4.26-6.95,6.89-6.63,9.3-9.2,19.9-9.12,31.21,0,1.03,0,2.06-.1,3.08-3.24-19.88,2.33-37.02,16.03-51.66,2.83-3.02,5.67-6.08,8.12-9.41,2.47-3.35,2.25-6.38.05-8.75-2.47-2.65-6.04-3.18-9.56-1.36-5.73,2.97-9.06,8.21-12.17,13.47-7.31,12.34-8.65,25.94-7.78,39.92.19,3.1.61,6.19.41,9.39-.73-3.28-1.81-6.53-2.12-9.85-.79-8.46-1.39-16.94-1.76-25.43-.17-3.95.08-7.97.64-11.88,1.35-9.39-3.04-16.57-8.53-23.37-1.27-1.57-3.98-2.88-2.7-5.01,1.05-1.75,3.51-3.39,5.54-3.66,4.64-.62,9.4-.4,14.11-.46,1.51-.02,3.02.19,4.53.21,2.98.03,5.12-.99,7.11-3.6,8.84-11.62,20.48-19.61,33.97-25.01.32-.13.67-.18.68-.18Z"/>
      <path class="cls-2" d="M155.06,106.05c3.73.39,6.8.71,9.92,1.03-1.09-11.17,2.42-20.5,8.04-29.25,5.85-9.1,14.62-13.43,25.01-15.14-1.4-2.18-3.56-2.92-6.66-2.33-9.36,1.8-17,6.69-23.06,13.82-6.62,7.78-11.36,16.61-12.8,26.93-.08.59-.47,1.22-.89,1.67-4.83,5.22-20.18,7.03-25.5-.15-.68-.92-1.25-2.13-1.33-3.25-.66-10.02,1.29-19.52,6.2-28.32.72-1.29,1.97-2.51,3.28-3.2,9.46-4.96,19.43-8.7,29.89-10.85,8.56-1.76,17.26-2.39,25.86-.16,2.13.55,4.21,1.67,6.06,2.9,2.63,1.74,1.92,2.89.94,5.82-2.63,7.87-9.91,13.46-10.63,22.15-.39,4.68-.93,9.37-.88,14.05.03,3.13,2.02,5.32,5.13,6.44,2.38.86,4.7,1.94,6.96,3.09,3.79,1.92,4.3,5.24.66,7.36-3.49,2.03-7.52,3.75-11.48,4.23-5.94.73-12.04.39-18.06.25-2.8-.06-5.13.42-7.13,2.52-6.83,7.16-7.64,7.43-16.68,3.7-9.51-3.93-16.65-10.24-19.2-20.71-.13-.53-.21-1.08-.47-2.38,4.31,4.32,9.15,4.94,14.23,4.47,4.93-.46,9.75-1.31,12.59-4.69ZM191.63,119.33c3.26-.72,5.59-1.06,7.77-1.81.9-.31,2.12-1.6,2.05-2.33-.1-.96-1.15-2.15-2.1-2.64-2.34-1.19-4.86-2.01-7.29-3.02-3.22-1.34-5.93-3.36-5.95-7.13-.03-5.63.04-11.3.66-16.88.59-5.27,3.53-9.63,6.85-13.72.59-.73.54-1.99.79-3-1.12-.13-2.39-.67-3.34-.32-6.17,2.28-11.19,6.07-14.76,11.71-4.33,6.86-6.18,14.51-7.05,22.4-.69,6.19,1.89,10.49,7.72,12.66,4.96,1.84,10.22,2.88,14.66,4.09ZM186.05,120.49c-2.06-.51-3.77-.86-5.44-1.35-5.29-1.56-10.83-2.66-14.27-7.72-.31-.46-1.27-.7-1.92-.67-2.57.11-5.12.36-7.51.54,4.12,7.37,21.65,13.34,29.14,9.2ZM160.62,63.38c-3.37.08-6.22,3.13-6.08,6.13.09,2.05,1.08,3.35,3.41,3.25,2.85-.12,5.8-3.18,5.6-6.05-.14-2.08-1.3-3.26-2.92-3.33Z"/>
      <path class="cls-2" d="M168.17,216.52c1.68-9.45,4.42-17.77,10.07-25.07,1.6,1.37,3.21,2.75,4.79,4.12-1.21,3.44-2.6,6.81-3.57,10.31-.95,3.41-1.95,6.91-.96,10.24,2.48-6,4.99-12.07,7.58-18.33,2.37,1.01,3.99,1.71,5.46,2.33-1.57,4.92-3.13,9.8-4.68,14.68.19.05.38.09.57.14,1.76-3.69,3.53-7.38,5.28-11.07,1.09-2.3,2.89-2.68,5.15-1.99,1.26.39,2.56.61,3.83.95,6.31,1.73,8.44,6.53,5.41,12.39-3.54,6.84-9.46,11.39-15.53,15.73-8.83,6.31-18.88,9.24-29.52,10.29-2.63.26-5.35-.32-8.03-.52-.09.28-.18.57-.28.85,1.23.33,2.43.78,3.68.96,2.1.3,5.54,4.23,4.77,6.06-.38.9-2.16,1.73-3.26,1.67-1.4-.07-2.89-.87-4.12-1.69-10.6-7.16-18.36-16.84-24.7-27.88,9.8,6.31,20.27,9.65,32.44,8.66-4.31-9.76-5.56-19.42-5.05-29.27.3-5.82,1.1-11.64,2.2-17.37,1.06-5.54,4.55-6.49,8.6-2.62,1.84,1.75,3.58,3.65,5.04,5.72.48.68.26,2.25-.18,3.14-3.72,7.53-6.07,15.39-6.22,23.84-.01.75.04,1.51.14,2.26.03.23.31.43,1.09,1.46Z"/>
      <path class="cls-1" d="M191.63,119.33c-4.44-1.21-9.7-2.25-14.66-4.09-5.83-2.16-8.4-6.47-7.72-12.66.87-7.88,2.73-15.54,7.05-22.4,3.56-5.65,8.59-9.43,14.76-11.71.94-.35,2.22.19,3.34.32-.25,1.01-.19,2.27-.79,3-3.31,4.08-6.26,8.44-6.85,13.72-.62,5.59-.69,11.25-.66,16.88.02,3.78,2.72,5.8,5.95,7.13,2.43,1.01,4.96,1.83,7.29,3.02.95.48,2.01,1.68,2.1,2.64.07.73-1.15,2.02-2.05,2.33-2.18.76-4.51,1.09-7.77,1.81ZM185.08,115.6c1.6-.41,3.32-.59,4.78-1.3,1.53-.75,1.51-2.55.1-3.06-3.88-1.41-6.6-4.02-9.26-7.01-1.9-2.14-5.9-2.14-7.49-.54-1.79,1.82-1.42,4.8,1.1,7.23,2.96,2.84,6.56,4.27,10.77,4.68Z"/>
      <path class="cls-1" d="M186.05,120.49c-7.48,4.14-25.02-1.83-29.14-9.2,2.38-.18,4.94-.43,7.51-.54.64-.03,1.6.21,1.92.67,3.44,5.06,8.98,6.15,14.27,7.72,1.67.49,3.38.84,5.44,1.35Z"/>
      <path class="cls-1" d="M160.62,63.38c1.63.07,2.78,1.25,2.92,3.33.2,2.87-2.75,5.93-5.6,6.05-2.33.1-3.31-1.19-3.41-3.25-.14-3,2.72-6.05,6.08-6.13Z"/>
      <path class="cls-2" d="M185.08,115.6c-4.21-.41-7.81-1.84-10.77-4.68-2.53-2.43-2.9-5.41-1.1-7.23,1.58-1.6,5.58-1.6,7.49.54,2.66,2.99,5.38,5.6,9.26,7.01,1.41.51,1.43,2.32-.1,3.06-1.46.71-3.17.89-4.78,1.3Z"/>
    </g>
  </g>
</svg>