<?xml version="1.0" encoding="UTF-8"?>
<svg id="Layer_1" xmlns="http://www.w3.org/2000/svg" viewBox="0 0 290.81 290.81">
  <defs>
    <style>
      .cls-1 {
        fill: #fff;
      }

      .cls-2 {
        fill: #e81e74;
      }
    </style>
  </defs>
  <g id="_x38_3vMa2">
    <rect class="cls-1" x="0" width="290.81" height="290.81"/>
    <g id="lZdNFR">
      <path class="cls-2" d="M185.86,171.9c-2.25,2.41-4.81,4.18-7.88,5.14-8.91,2.8-17.69-1.06-21.93-9.65-2.33-4.71-3.17-9.72-3-14.93.03-.76.26-1.13,1.07-1.14,3.14-.02,6.28-.07,9.42-.12,1.04-.02,1.26.55,1.24,1.46-.08,3.11.17,6.18,1.44,9.07,1.14,2.59,3.02,4.31,5.95,4.4,2.86.09,4.86-1.4,6.1-3.93,1.39-2.85,1.68-5.91,1.68-9.02,0-2.05,0-2.06,1.99-2.06,2.67-.01,5.33.05,8-.04,1.28-.04,1.68.32,1.75,1.66.12,2.45.4,4.91.88,7.32.38,1.88,1.38,3.56,2.98,4.73,3.13,2.3,7.3,1.29,9.31-2.17,1.38-2.38,1.82-5,1.92-7.66.11-2.95,0-5.9.04-8.85.01-.96-.26-1.33-1.3-1.32-20.8.12-41.61.21-62.41.32-3.42.02-5.04,1.52-5.55,5-2.04,13.96-11.39,24.02-25.26,27.2-18.19,4.17-35.97-7.46-39.46-25.83-3.27-17.19,7.81-34.41,24.88-37.98,13.67-2.85,25.02,1.46,33.7,12.49,1.26,1.6,1.09,1.63-.54,2.78-2.2,1.55-4.28,3.28-6.33,5.03-1.18,1.01-1.32,1.09-2.15-.13-4.83-7.07-13.61-10.67-21.53-8.83-8.74,2.03-15.21,8.82-16.59,17.39-1.79,11.13,6.24,22.26,17.42,23.94,9.1,1.37,19.04-3.07,22.65-12.08.87-2.17,1.27-4.55,1.69-6.88,1.46-8.15,8.06-13.76,16.42-13.82,9.09-.06,18.19-.07,27.28-.11,15.66-.07,31.32-.12,46.99-.24,1.36,0,1.82.35,1.8,1.74-.05,6.9.12,13.81-.05,20.71-.14,5.93-1.83,11.45-5.74,16.06-6.56,7.75-18.22,8.36-25.71,1.44-.35-.32-.69-.65-1.17-1.1Z"/>
    </g>
  </g>
</svg>