<?xml version="1.0" encoding="UTF-8"?>
<svg id="Layer_1" xmlns="http://www.w3.org/2000/svg" viewBox="0 0 290.81 290.81">
  <defs>
    <style>
      .cls-1 {
        fill: #ce202f;
      }

      .cls-2 {
        fill: #fff;
      }
    </style>
  </defs>
  <g id="_x38_3vMa2">
    <rect class="cls-2" width="290.81" height="290.81"/>
    <g>
      <path class="cls-1" d="M121.04,122.79c.3-.24.6-.47.91-.71s.63-.49.95-.75c.34-.24.67-.5,1.01-.77s.69-.52,1.06-.78c1.46-1.08,2.95-2.13,4.46-3.14s3.04-2,4.57-2.93c1.55-.95,3.12-1.87,4.69-2.73,1.59-.88,3.17-1.72,4.8-2.52,2.02-1.01,4.18-2.05,6.42-3.12,2.24-1.06,4.55-2.15,6.87-3.19,2.31-1.06,4.63-2.09,6.87-3.06,2.24-.99,4.42-1.9,6.44-2.74,1.74-.71,3.32-1.38,4.78-2.03,1.46-.63,2.8-1.25,4.03-1.85,1.25-.6,2.39-1.18,3.47-1.77,1.08-.58,2.11-1.18,3.1-1.77l-.15-.06-.15-.06-.15-.06-.15-.06c-1.83-.71-4.22-1.66-6.91-2.71-2.67-1.05-5.6-2.2-8.49-3.34-2.87-1.14-5.69-2.24-8.14-3.19-2.45-.95-4.5-1.75-5.84-2.3-.32.88-.67,1.75-1.06,2.61s-.82,1.7-1.31,2.5c-.47.82-.99,1.61-1.53,2.35-.54.77-1.12,1.47-1.72,2.17-.9,1.01-1.79,1.98-2.67,2.87s-1.72,1.72-2.52,2.48c-.8.77-1.55,1.44-2.22,2.03-.67.6-1.27,1.12-1.75,1.55-.11.09-.21.17-.3.26-.09.07-.19.15-.26.22-.07.07-.17.13-.22.21-.07.06-.13.11-.19.17-.35.32-.97.86-1.77,1.51-.8.65-1.75,1.44-2.76,2.26s-2.05,1.66-3.04,2.45c-.99.78-1.89,1.49-2.61,2.03-.28.22-.56.43-.84.67-.28.22-.54.47-.78.69-.26.22-.5.47-.75.69s-.49.45-.71.67l-.02.02-.02.02-.02.02-.02.02c-.15.39-.41,1.08-.73,1.96-.32.88-.71,1.92-1.12,3.06-.41,1.14-.84,2.33-1.27,3.51-.41,1.18-.82,2.33-1.16,3.34-.09.28-.19.56-.28.84s-.19.56-.28.84-.19.56-.26.82c-.09.22-.19.5-.26.77"/>
      <path class="cls-1" d="M112.19,146.65c.04-.37.09-.75.13-1.14.06-.39.09-.8.15-1.19.06-.41.11-.82.17-1.25s.13-.86.19-1.31c.28-1.79.58-3.58.93-5.36s.75-3.55,1.16-5.32c.43-1.75.9-3.51,1.38-5.25.5-1.74,1.03-3.45,1.61-5.17.71-2.13,1.49-4.41,2.33-6.74.84-2.33,1.7-4.72,2.59-7.11.9-2.39,1.79-4.76,2.69-7.04.9-2.28,1.77-4.46,2.61-6.5.71-1.74,1.36-3.32,1.94-4.82s1.08-2.87,1.55-4.16c.45-1.31.86-2.54,1.21-3.71s.67-2.31.93-3.43l-.15.07-.15.07-.15.07-.15.07c-1.79.78-4.16,1.81-6.79,2.97s-5.53,2.41-8.36,3.64-5.62,2.45-8.01,3.49c-2.41,1.05-4.42,1.94-5.75,2.52.41.84.78,1.72,1.1,2.59.34.88.62,1.79.86,2.69.24.91.45,1.83.6,2.74s.26,1.83.32,2.74c.09,1.34.13,2.67.15,3.92s0,2.45-.04,3.55-.07,2.11-.13,3.01c-.06.9-.11,1.68-.15,2.33-.02.13-.02.26-.02.39s-.02.24-.02.35-.02.21-.02.3-.02.19-.02.26c-.02.47-.09,1.29-.19,2.31-.09,1.03-.22,2.26-.35,3.55-.13,1.29-.28,2.63-.43,3.86-.15,1.25-.28,2.39-.41,3.29-.06.35-.09.71-.11,1.06-.04.35-.06.71-.07,1.05s-.04.69-.04,1.03c-.02.34-.02.65-.04.97v.07c.17.39.49,1.06.88,1.9.39.84.86,1.87,1.36,2.95s1.06,2.26,1.59,3.38c.54,1.14,1.06,2.22,1.53,3.19.13.26.26.54.39.8.13.26.26.52.39.78s.26.52.39.77c.15.24.28.49.41.73"/>
      <path class="cls-1" d="M122.79,169.79c-.24-.3-.47-.6-.71-.91s-.49-.63-.75-.95c-.24-.34-.5-.67-.77-1.01s-.52-.69-.78-1.06c-1.08-1.46-2.11-2.95-3.14-4.46-1.03-1.51-2-3.04-2.93-4.57-.95-1.55-1.85-3.12-2.73-4.69-.88-1.59-1.72-3.17-2.52-4.8-1.01-2.02-2.05-4.18-3.12-6.42-1.06-2.24-2.15-4.55-3.19-6.87-1.05-2.31-2.09-4.63-3.06-6.87s-1.9-4.42-2.74-6.44c-.71-1.74-1.38-3.32-2.03-4.78-.63-1.46-1.25-2.8-1.85-4.03-.6-1.25-1.18-2.39-1.77-3.47-.58-1.08-1.18-2.11-1.77-3.1l-.06.15-.07.15-.06.15-.06.15c-.71,1.83-1.66,4.22-2.71,6.91-1.05,2.67-2.2,5.6-3.34,8.49-1.14,2.87-2.24,5.69-3.19,8.14s-1.75,4.5-2.3,5.84c.88.32,1.75.67,2.61,1.06s1.7.82,2.5,1.31,1.61.99,2.35,1.53c.77.54,1.47,1.12,2.17,1.72,1.01.9,1.98,1.79,2.87,2.67.9.88,1.72,1.72,2.48,2.52.77.8,1.44,1.55,2.03,2.22.6.67,1.12,1.27,1.55,1.75.09.11.17.21.26.3s.15.19.22.26.13.17.21.22c.06.07.11.13.17.19.32.35.86.97,1.51,1.77.65.78,1.44,1.75,2.26,2.76.82,1.01,1.66,2.05,2.43,3.04.78.99,1.49,1.89,2.03,2.61.22.28.45.56.67.84.22.26.47.54.69.78.22.26.47.5.69.75.22.24.45.49.67.71l.02.02.02.02.02.02.02.02c.39.15,1.08.41,1.96.73s1.92.71,3.06,1.12c1.14.41,2.33.84,3.51,1.27,1.18.41,2.33.82,3.34,1.16.28.09.56.19.86.28.28.09.56.19.84.28.28.09.56.19.82.26.26.09.52.17.78.26"/>
      <path class="cls-1" d="M146.67,178.64c-.37-.04-.75-.09-1.14-.13-.39-.06-.78-.09-1.19-.15s-.82-.11-1.25-.17-.86-.13-1.31-.19c-1.79-.28-3.58-.58-5.36-.93-1.77-.35-3.55-.75-5.32-1.16-1.75-.43-3.51-.9-5.25-1.38-1.74-.5-3.45-1.03-5.17-1.61-2.13-.71-4.41-1.49-6.74-2.33s-4.72-1.7-7.11-2.59c-2.39-.9-4.76-1.79-7.04-2.69-2.28-.9-4.46-1.77-6.5-2.61-1.74-.73-3.32-1.36-4.82-1.94-1.49-.58-2.87-1.08-4.16-1.55-1.31-.45-2.54-.86-3.71-1.21-1.18-.35-2.31-.67-3.43-.93l.07.15.07.15.07.15.07.15c.78,1.79,1.81,4.16,2.97,6.79,1.14,2.63,2.41,5.53,3.64,8.36,1.23,2.84,2.45,5.62,3.49,8.01,1.05,2.41,1.94,4.42,2.52,5.75.84-.41,1.72-.78,2.59-1.1s1.79-.62,2.69-.86c.91-.24,1.83-.45,2.74-.6.91-.15,1.83-.26,2.74-.32,1.34-.09,2.67-.13,3.92-.15,1.25-.02,2.45,0,3.55.04,1.1.04,2.11.07,3.01.13.9.06,1.68.11,2.33.15.13.02.26.02.39.02s.24.02.35.02.21.02.3.02.19.02.26.02c.47.02,1.29.09,2.31.19,1.03.09,2.26.22,3.55.35,1.29.13,2.63.28,3.86.43,1.25.15,2.39.28,3.29.41.35.06.71.09,1.06.11.35.04.71.06,1.05.07s.65.04.99.04c.34.02.65.02.97.04h.07c.39-.19,1.06-.49,1.9-.88s1.87-.86,2.95-1.36c1.08-.5,2.26-1.06,3.38-1.59,1.14-.54,2.22-1.06,3.19-1.53.26-.13.54-.26.8-.39l.78-.39c.26-.13.52-.26.77-.39.28-.17.52-.3.77-.41"/>
      <path class="cls-1" d="M169.79,168.02c-.3.24-.6.47-.9.71-.32.24-.63.49-.95.75-.34.26-.67.5-1.01.77-.34.26-.69.52-1.06.78-1.46,1.08-2.95,2.13-4.46,3.14-1.51,1.01-3.04,2-4.57,2.93-1.55.95-3.12,1.85-4.69,2.73-1.59.88-3.17,1.72-4.8,2.52-2.02,1.01-4.18,2.05-6.42,3.12-2.24,1.06-4.55,2.15-6.87,3.19-2.31,1.06-4.63,2.09-6.87,3.06-2.24.97-4.42,1.9-6.44,2.74-1.74.71-3.32,1.38-4.78,2.03-1.46.63-2.8,1.25-4.03,1.85-1.25.6-2.39,1.18-3.47,1.77-1.08.58-2.11,1.18-3.1,1.77l.15.06.15.06.15.06.15.06c1.83.71,4.22,1.66,6.91,2.71,2.67,1.05,5.6,2.2,8.49,3.34,2.87,1.14,5.69,2.24,8.14,3.19,2.45.95,4.5,1.75,5.84,2.3.32-.88.67-1.75,1.06-2.61.39-.86.82-1.7,1.31-2.5.47-.82.99-1.61,1.53-2.35.54-.77,1.12-1.47,1.72-2.17.9-1.01,1.79-1.98,2.67-2.87s1.72-1.72,2.52-2.48c.8-.75,1.55-1.44,2.22-2.03.67-.6,1.27-1.12,1.75-1.55.11-.09.21-.17.3-.26.09-.07.19-.15.26-.22s.17-.13.22-.21c.07-.06.13-.11.19-.17.35-.32.97-.86,1.77-1.51s1.75-1.44,2.76-2.26,2.05-1.66,3.04-2.45c.99-.78,1.89-1.49,2.61-2.03.28-.22.56-.45.84-.67s.54-.47.78-.69c.26-.22.5-.47.75-.69s.49-.45.71-.67l.02-.02.02-.02.02-.02.02-.02c.15-.39.41-1.08.73-1.96s.71-1.92,1.12-3.06c.41-1.14.84-2.33,1.27-3.51.41-1.18.82-2.33,1.16-3.34.09-.28.19-.56.28-.86.09-.28.19-.56.28-.84.09-.28.19-.56.26-.82.07-.22.17-.49.24-.75"/>
      <path class="cls-1" d="M178.64,144.15c-.04.37-.09.75-.13,1.16-.06.39-.09.78-.15,1.19-.06.41-.11.82-.17,1.25-.06.43-.13.86-.19,1.31-.28,1.79-.58,3.58-.93,5.36-.35,1.77-.75,3.55-1.16,5.32-.43,1.75-.9,3.51-1.38,5.25-.5,1.74-1.03,3.45-1.61,5.17-.71,2.13-1.49,4.41-2.33,6.74-.84,2.33-1.7,4.72-2.59,7.11-.9,2.39-1.79,4.76-2.69,7.04-.9,2.28-1.77,4.46-2.61,6.5-.71,1.74-1.36,3.32-1.94,4.82-.58,1.49-1.08,2.87-1.55,4.16-.45,1.31-.86,2.54-1.21,3.71-.35,1.18-.67,2.31-.93,3.43l.15-.07.15-.07.15-.07.15-.07c1.79-.78,4.16-1.81,6.79-2.97,2.63-1.14,5.53-2.41,8.36-3.64,2.84-1.23,5.62-2.45,8.01-3.49,2.41-1.05,4.42-1.94,5.75-2.52-.41-.84-.78-1.72-1.1-2.59-.32-.88-.62-1.79-.86-2.69-.24-.91-.45-1.83-.6-2.74-.15-.91-.26-1.83-.32-2.74-.09-1.34-.13-2.67-.15-3.92-.02-1.25,0-2.45.04-3.55.04-1.1.07-2.11.13-3.01s.11-1.68.15-2.33c.02-.13.02-.26.02-.39s.02-.24.02-.35.02-.21.02-.3.02-.19.02-.26c.02-.47.09-1.29.19-2.31.09-1.03.22-2.26.35-3.55.13-1.29.28-2.63.43-3.86.15-1.25.28-2.39.41-3.29.06-.35.09-.71.11-1.06.04-.35.06-.71.07-1.05.02-.34.04-.69.04-1.03.02-.34.02-.65.04-.97v-.07c-.19-.39-.49-1.06-.88-1.9s-.86-1.87-1.36-2.95-1.06-2.26-1.59-3.38c-.54-1.14-1.06-2.22-1.53-3.19-.13-.26-.26-.54-.39-.8l-.39-.78c-.13-.26-.26-.52-.39-.77-.15-.24-.28-.5-.41-.75"/>
      <path class="cls-1" d="M168.04,121.02c.24.3.47.6.71.91.24.32.49.63.75.95.24.34.5.67.77,1.01s.52.69.78,1.06c1.08,1.46,2.13,2.95,3.14,4.46,1.01,1.51,2,3.04,2.93,4.57.95,1.55,1.85,3.12,2.73,4.69.88,1.59,1.72,3.17,2.52,4.8,1.01,2.02,2.05,4.18,3.12,6.42,1.06,2.24,2.15,4.55,3.19,6.87,1.06,2.31,2.09,4.63,3.06,6.87s1.9,4.42,2.74,6.44c.71,1.74,1.38,3.32,2.03,4.78.63,1.46,1.25,2.8,1.85,4.03.6,1.25,1.18,2.39,1.77,3.47.58,1.08,1.18,2.11,1.77,3.1l.06-.15.06-.15.06-.15.06-.15c.71-1.81,1.66-4.22,2.71-6.91,1.05-2.67,2.2-5.6,3.34-8.49,1.14-2.87,2.24-5.69,3.19-8.14.95-2.45,1.75-4.5,2.3-5.84-.88-.32-1.75-.67-2.61-1.06-.86-.39-1.7-.82-2.5-1.31-.82-.47-1.61-.99-2.35-1.53-.77-.54-1.47-1.12-2.17-1.72-1.01-.9-1.98-1.79-2.87-2.67s-1.72-1.72-2.48-2.52c-.75-.8-1.44-1.55-2.03-2.22-.6-.67-1.12-1.27-1.55-1.75-.09-.11-.17-.21-.26-.3-.07-.09-.15-.19-.22-.26-.07-.07-.13-.15-.21-.22-.06-.07-.11-.13-.17-.19-.32-.35-.86-.97-1.51-1.77-.65-.8-1.44-1.75-2.26-2.76-.82-1.01-1.66-2.05-2.45-3.04-.78-.99-1.49-1.89-2.03-2.61-.22-.28-.45-.56-.67-.84s-.47-.54-.69-.78c-.22-.26-.47-.5-.69-.75s-.45-.49-.67-.71l-.02-.02-.02-.02-.02-.02-.02-.02c-.39-.15-1.08-.41-1.96-.73-.88-.32-1.92-.71-3.06-1.12s-2.33-.84-3.51-1.27c-1.18-.41-2.33-.82-3.34-1.16-.28-.09-.56-.19-.84-.28-.28-.09-.56-.19-.84-.28-.28-.09-.56-.19-.82-.26-.24-.09-.5-.19-.77-.26"/>
      <path class="cls-1" d="M144.16,112.17c.37.04.75.09,1.14.13.39.06.78.09,1.19.15.41.06.82.11,1.25.17s.86.13,1.31.19c1.79.28,3.58.58,5.36.93,1.77.35,3.55.75,5.32,1.16,1.75.43,3.51.9,5.25,1.38,1.74.5,3.45,1.03,5.17,1.61,2.13.71,4.41,1.49,6.74,2.33s4.72,1.7,7.11,2.59c2.39.9,4.74,1.79,7.04,2.69,2.28.9,4.46,1.77,6.5,2.61,1.74.73,3.32,1.36,4.82,1.94s2.87,1.08,4.16,1.55c1.31.45,2.54.86,3.71,1.21,1.18.35,2.31.67,3.43.93l-.07-.15-.07-.15-.07-.15-.07-.15c-.78-1.79-1.81-4.16-2.97-6.79-1.14-2.63-2.41-5.53-3.64-8.36-1.23-2.84-2.45-5.62-3.49-8.01-1.05-2.41-1.94-4.42-2.52-5.75-.84.41-1.72.78-2.59,1.1-.88.32-1.79.62-2.69.86-.91.24-1.83.45-2.74.6-.91.15-1.83.26-2.74.32-1.34.09-2.67.13-3.92.15-1.25.02-2.45,0-3.55-.04s-2.11-.07-3.01-.13-1.68-.11-2.33-.15c-.13,0-.26-.02-.39-.02s-.24-.02-.35-.02-.21-.02-.3-.02-.19-.02-.26-.02c-.47-.02-1.29-.09-2.31-.19-1.03-.09-2.26-.22-3.55-.35-1.29-.13-2.63-.28-3.86-.43-1.23-.15-2.39-.28-3.29-.41-.35-.06-.71-.09-1.06-.11-.35-.04-.71-.06-1.05-.07-.34-.02-.69-.04-1.03-.04s-.65-.02-.97-.04h-.07c-.39.17-1.06.49-1.9.88-.84.39-1.87.86-2.95,1.36s-2.26,1.06-3.38,1.59c-1.14.54-2.22,1.06-3.19,1.53-.26.13-.54.26-.8.39l-.78.39c-.26.13-.52.26-.77.39-.24.15-.49.28-.73.41"/>
    </g>
  </g>
</svg>