<?xml version="1.0" encoding="UTF-8"?>
<svg id="Layer_1" xmlns="http://www.w3.org/2000/svg" viewBox="0 0 290.81 290.81">
  <defs>
    <style>
      .cls-1 {
        fill: #fff;
      }

      .cls-2 {
        fill: #036c3a;
      }
    </style>
  </defs>
  <g id="_x38_3vMa2">
    <rect class="cls-2" width="290.81" height="290.81"/>
    <path class="cls-1" d="M95.91,95.89c-6.36,13.39-12.32,25.23-17.59,37.37-1.97,4.54-2.01,9.58,5.4,9.58,17.45.02,34.92.26,52.36-.23,2.34-.07,6.49-3.82,6.54-5.96.52-18.82.3-37.67.3-56.8h-16.59c0,13.54.21,26.31-.18,39.06-.08,2.51-2.22,6.93-3.76,7.09-7.28.75-14.69.34-22.05.34-.58-.97-1.15-1.94-1.73-2.91,6.91-8.21,13.82-16.43,21.03-25-10.22-11.72-20.36-24.81-40.74-17.99,6.12,5.57,12.03,10.94,17,15.45ZM142.99,211.39c0-18.67-.22-36.38.1-54.08.14-7.48-3.23-9.54-10.08-9.42-15.14.28-30.28.04-45.42.09-10.72.03-12.46,1.67-8.47,11.64,4.7,11.72,10.98,22.81,16.99,35.03-5.08,4.64-11.12,10.17-17.29,15.82,20.65,6.73,30.62-6.58,40.68-18.14-7.27-8.76-14.11-16.99-20.95-25.23.63-.93,1.25-1.86,1.88-2.78,5.12,0,10.28.47,15.33-.11,8.37-.96,11.24,2.09,10.75,10.59-.69,12.07-.18,24.2-.18,36.58h16.65ZM193.36,193.41c2.15-2.96,4.18-5.1,5.46-7.62,4.82-9.54,9.75-19.07,13.92-28.9,1.82-4.3,1.32-8.9-5.43-8.89-17.46.03-34.92-.23-52.37.27-2.41.07-6.71,3.71-6.77,5.79-.53,18.83-.31,37.68-.31,56.95h16.61c0-13.44-.25-26.21.21-38.95.09-2.6,2.6-7.09,4.41-7.31,7.01-.86,14.19-.35,21.31-.35.62.95,1.24,1.9,1.86,2.85-6.85,8.22-13.7,16.44-20.69,24.81,11.1,17.18,23.93,23.2,40.04,18-6.09-5.56-12.03-10.98-18.23-16.64ZM194.65,96.18c5.07-4.64,11.12-10.18,17.13-15.67-20.49-7.12-30.38,6.32-40.46,17.89,7.25,8.77,14.06,17.01,20.87,25.25-.61.95-1.23,1.9-1.84,2.85-5.1,0-10.26-.48-15.3.11-8.44.99-11.25-2.16-10.78-10.64.67-12.06.17-24.19.17-36.24h-16.65c0,18.34.24,36.03-.11,53.71-.15,7.43,3.05,9.64,9.95,9.52,15.12-.26,30.26,0,45.39-.05,10.93-.03,12.79-2.01,8.52-12.45-4.68-11.43-10.88-22.24-16.89-34.28Z"/>
  </g>
</svg>