<?xml version="1.0" encoding="UTF-8"?>
<svg id="Layer_1" xmlns="http://www.w3.org/2000/svg" viewBox="0 0 290.81 290.81">
  <defs>
    <style>
      .cls-1 {
        fill: #003a5f;
      }

      .cls-2 {
        fill: #fff;
      }

      .cls-3 {
        fill: #2565b3;
      }

      .cls-4 {
        fill: #eb7802;
      }
    </style>
  </defs>
  <g id="_x38_3vMa2">
    <rect class="cls-1" width="290.81" height="290.81"/>
    <g>
      <path class="cls-3" d="M169.86,235.76c-6.29,0-10.76-8.21-5.28-13.01,2.62-2.3,6.68-2.65,9.82-3.76,4.11-1.45,8.13-3.24,11.97-5.38,13.22-7.33,24.48-18.64,31.95-32.43,1.9-3.51,3.55-7.18,4.89-10.98,1.24-3.5,1.59-8.02,4.6-10.37,5.36-4.18,13.3.4,11.7,7.57-3.6,16.16-13.05,31.13-24.15,42.48-12.49,12.79-28.58,21.98-45.5,25.88Z"/>
      <path class="cls-4" d="M120.95,55.05c6.29,0,10.76,8.21,5.28,13.01-2.62,2.3-6.68,2.65-9.82,3.76-4.11,1.45-8.13,3.24-11.97,5.38-13.22,7.33-24.48,18.64-31.95,32.43-1.9,3.51-3.55,7.18-4.89,10.98-1.24,3.5-1.59,8.02-4.6,10.37-5.36,4.18-13.3-.4-11.7-7.57,3.6-16.16,13.05-31.13,24.15-42.48,12.49-12.79,28.58-21.98,45.5-25.88Z"/>
      <path class="cls-2" d="M85.09,142.34c0-9.53.02-19.06-.02-28.58,0-1.87.73-2.82,2.48-2.81,7.24.03,14.52-.43,21.71.24,6.94.65,12.59,4.04,14.94,11.91,1.67,5.58-2.5,14.97-7.75,16.93-.37.14-.66.5-.99.76.27.17.53.38.82.52,3.93,1.87,7.71,4.15,9.58,8.46,3.08,7.12.92,17.2-6.54,21.2-3.58,1.92-7.39,2.96-11.3,3.1-6.71.25-13.43.07-20.14.12-1.94.01-2.79-.92-2.78-2.97.03-4.83,0-9.67,0-14.5,0-4.79,0-9.57,0-14.36ZM93.4,156.11c0,3.14,0,6.29,0,9.43,0,.76-.01,1.38,1,1.36,4.95-.1,9.92.01,14.86-.24,5.66-.29,9.34-4.86,9.29-11.13-.05-5.46-4.09-9.76-9.54-9.97-4.77-.18-9.56-.16-14.33-.28-.99-.02-1.3.36-1.28,1.39.05,3.14.02,6.29.01,9.43ZM101.02,138.01c6.69.22,15.07-2.29,14.93-11.08-.13-8.46-9.14-8.96-15.03-8.96-1.4,0-5.08-.64-6.34-.01-1.39.69-1.15,1.39-1.17,3.13-.04,4.06-.14,8.18.02,12.24.21,5.21,3.38,4.68,7.59,4.68Z"/>
      <path class="cls-2" d="M177.79,142.36c0-9.39.04-18.77-.03-28.16-.02-2.38.77-3.39,3.05-3.38,11.85.07,23.69.1,35.54.02,2.66-.02,2.7,1.6,2.68,3.64-.02,2.01-.16,3.53-2.71,3.5-9.56-.12-19.13-.04-28.7-.09-1.18,0-1.58.46-1.58,1.63,0,5.87-.02,11.73-.05,17.6,0,1.15.71.95,1.35.95,9.08,0,18.17.04,27.25-.04,2.51-.02,2.85,1.47,2.84,3.62-.01,2.13-.04,3.95-2.81,3.93-9.08-.08-18.17-.02-27.25-.06-1.03,0-1.34.27-1.33,1.42.05,7.98-.02,15.95.06,23.93.03,3.2-1.8,3.55-4.07,3.49-2.16-.06-4.36.23-4.31-3.4.13-9.52.04-19.05.04-28.58h.02Z"/>
      <path class="cls-2" d="M145.41,145.32c0-8.59-.02-17.18.02-25.77,0-1.25-.29-1.69-1.55-1.65-4.17.1-8.34.02-12.51.06-1.88.02-2.74-.88-2.66-2.91.07-1.96-.33-4.16,2.54-4.16,12.25,0,24.49.06,36.74-.05,3.26-.03,2.46,2.29,2.6,4.21.16,2.19-.76,2.98-2.8,2.92-4.04-.12-8.08.01-12.11-.06-1.46-.03-1.98.42-1.98,2.07.05,17.04,0,34.08.07,51.12,0,2.16-.7,3.01-2.67,3.2-5.02.48-5.68-.08-5.68-5.45,0-7.84,0-15.68,0-23.52Z"/>
    </g>
  </g>
</svg>