<?xml version="1.0" encoding="UTF-8"?>
<svg id="Layer_1" xmlns="http://www.w3.org/2000/svg" viewBox="0 0 290.81 290.81">
  <defs>
    <style>
      .cls-1 {
        fill: #004c71;
      }

      .cls-2 {
        fill: #c2c3c9;
      }

      .cls-3 {
        fill: #fff;
      }
    </style>
  </defs>
  <g id="_x38_3vMa2">
    <rect class="cls-3" width="290.81" height="290.81"/>
    <g>
      <g id="pC58EH.tif">
        <g>
          <path class="cls-1" d="M137.79,141.78c-1.66,0-2.67.03-3.69,0-6.71-.24-13.39-.06-19.98,1.44-8.52,1.93-16.96.85-25.39-.69-2.04-.37-4.05-.94-6.1-1.15-1.95-.2-2.48-1.19-2.54-2.96-.39-11.76,3.12-22.13,10.86-31.03,1.62-1.86,3.24-3.73,4.94-5.69,9.6,6.52,19.03,12.14,25.26,21.5,4.54,6.81,9.95,12.84,16.64,18.59Z"/>
          <path class="cls-1" d="M148.41,137.57c1.08-9.69-.26-18.55-1.7-27.47-1.2-7.45-.1-14.95,1.35-22.34.37-1.88.93-3.73,1.12-5.62.18-1.73,1.02-2.3,2.61-2.35,14.82-.47,27,4.95,36.69,16.3-6.7,10.16-13.45,19.98-23.89,26.81-5,3.27-9.08,7.93-13.56,11.99-.76.68-1.43,1.46-2.62,2.68Z"/>
          <path class="cls-1" d="M153.67,142.21c2.88-3.12,5.58-5.81,7.99-8.74,3.04-3.69,5.91-7.52,8.72-11.38,4.89-6.7,11.46-11.47,18.16-16.11,1.89-1.31,3.83-2.57,5.84-3.92,5.47,4.41,9.67,9.67,12.5,15.92,3,6.64,4.25,13.67,3.77,20.99-.08,1.15-.28,1.92-1.61,2.18-7.98,1.56-15.95,3.45-24.14,2.99-4.67-.26-9.29-1.57-13.96-1.84-5.71-.33-11.46-.08-17.27-.08Z"/>
          <path class="cls-1" d="M142.08,136.62c-6.2-6.56-13.02-11.98-20.26-17-6.92-4.8-11.53-11.8-16.25-18.63-1.08-1.57-2.1-3.18-3.19-4.85,7.58-9.05,17.06-14.54,28.75-15.96,2.75-.33,5.56-.31,8.34-.21.69.02,1.8.87,1.94,1.5,1.81,8.58,3.69,17.17,2.99,26.02-.24,3-1.11,5.96-1.34,8.96-.46,5.95-.68,11.91-.98,17.87-.04.76,0,1.53,0,2.3Z"/>
        </g>
      </g>
      <g id="pC58EH.tif-2" data-name="pC58EH.tif">
        <g>
          <path class="cls-2" d="M153.02,149.03c1.66,0,2.67-.03,3.69,0,6.71.24,13.39.06,19.98-1.44,8.52-1.93,16.96-.85,25.39.69,2.04.37,4.05.94,6.1,1.15,1.95.2,2.48,1.19,2.54,2.96.39,11.76-3.12,22.13-10.86,31.03-1.62,1.86-3.24,3.73-4.94,5.69-9.6-6.52-19.03-12.14-25.26-21.5-4.54-6.81-9.95-12.84-16.64-18.59Z"/>
          <path class="cls-2" d="M142.4,153.24c-1.08,9.69.26,18.55,1.7,27.47,1.2,7.45.1,14.95-1.35,22.34-.37,1.88-.93,3.73-1.12,5.62-.18,1.73-1.02,2.3-2.61,2.35-14.82.47-27-4.95-36.69-16.3,6.7-10.16,13.45-19.98,23.89-26.81,5-3.27,9.08-7.93,13.56-11.99.76-.68,1.43-1.46,2.62-2.68Z"/>
          <path class="cls-2" d="M137.14,148.61c-2.88,3.12-5.58,5.81-7.99,8.74-3.04,3.69-5.91,7.52-8.72,11.38-4.89,6.7-11.46,11.47-18.16,16.11-1.89,1.31-3.83,2.57-5.84,3.92-5.47-4.41-9.67-9.67-12.5-15.92-3-6.64-4.25-13.67-3.77-20.99.08-1.15.28-1.92,1.61-2.18,7.98-1.56,15.95-3.45,24.14-2.99,4.67.26,9.29,1.57,13.96,1.84,5.71.33,11.46.08,17.27.08Z"/>
          <path class="cls-2" d="M148.73,154.2c6.2,6.56,13.02,11.98,20.26,17,6.92,4.8,11.53,11.8,16.25,18.63,1.08,1.57,2.1,3.18,3.19,4.85-7.58,9.05-17.06,14.54-28.75,15.96-2.75.33-5.56.31-8.34.21-.69-.02-1.8-.87-1.94-1.5-1.81-8.58-3.69-17.17-2.99-26.02.24-3,1.11-5.96,1.34-8.96.46-5.95.68-11.91.98-17.87.04-.76,0-1.53,0-2.3Z"/>
        </g>
      </g>
    </g>
  </g>
</svg>