<?xml version="1.0" encoding="UTF-8"?>
<svg id="Layer_1" xmlns="http://www.w3.org/2000/svg" viewBox="0 0 290.81 290.81">
  <defs>
    <style>
      .cls-1 {
        fill: #fff;
      }
    </style>
  </defs>
  <path class="cls-1" d="M0,0v290.81h290.81V0H0Z"/>
  <g>
    <path d="M80.28,214.27V76.54h130.26v137.72H80.28ZM89.96,145.42c0,18.66.09,37.31-.08,55.97-.03,3.72,1.05,4.81,4.81,4.8,33.81-.14,67.63-.14,101.44,0,3.78.02,4.79-1.13,4.78-4.82-.12-37.31-.12-74.63,0-111.94.01-3.72-1.05-4.81-4.8-4.8-33.81.14-67.63.14-101.44,0-3.78-.02-4.82,1.13-4.78,4.82.16,18.66.07,37.31.07,55.97Z"/>
    <path d="M99.95,93.44c11.26,0,22.21-.17,33.14.1,3.69.09,6.77,2.27,7.64,6.14,1.18,5.23,1.83,10.55-1.86,15.24-.48.61-1.2,1.04-1.82,1.56,5.95,5.34,5.23,11.83,3.38,18.13-1.72,5.86-7.16,6.5-12.22,6.62-9.29.22-18.58.06-28.25.06v-47.84ZM110.03,120.86v11.52h20.64v-11.52h-20.64ZM130.77,101.82h-20.78v10.4h20.78v-10.4Z"/>
    <path d="M190.78,158.02h-30.17v11.24h27.37v8h-27.53v11.9h30.27v8.44h-40.35v-47.74h40.41v8.15Z"/>
    <path d="M109.23,189.06h21.89c.19-2.7.37-5.27.59-8.25h9.63c1.58,9.3-2.23,15.65-11.36,16.75-6.84.83-13.9.39-20.81-.15-5.35-.42-9.34-3.96-9.63-9.26-.55-9.89-.49-19.85.08-29.74.28-4.84,4.01-8.47,8.89-8.82,7.72-.56,15.6-.89,23.23.1,7.38.96,10.17,6.47,9.93,16.36h-9.89c-.21-2.64-.42-5.21-.65-8.07h-21.91v31.07Z"/>
    <path d="M165.18,101.37h-14.83v-8.21h40.48v8.02h-14.94v31.41h15v8.34h-40.53v-8.17h14.82v-31.4Z"/>
  </g>
</svg>