<?xml version="1.0" encoding="UTF-8"?>
<svg id="Layer_1" xmlns="http://www.w3.org/2000/svg" viewBox="0 0 290.81 290.81">
  <defs>
    <style>
      .cls-1 {
        fill: #fff;
      }

      .cls-2 {
        fill: #13294c;
      }

      .cls-3 {
        fill: #02adef;
      }
    </style>
  </defs>
  <path class="cls-2" d="M0,0v290.81h290.81V0H0Z"/>
  <g id="_x38_jf2u6">
    <g>
      <path class="cls-1" d="M159.68,127.71v22.79h-21.13v-40.56c.7-.11,1.51-.34,2.32-.34,18.48.02,36.96-.07,55.44.17,14.84.19,24.01,6.59,29.08,19.66,4.95,12.77,1.64,28.84-7.58,37.75-5.91,5.72-13.18,7.51-21,7.53-37.83.1-75.65.06-113.48.16-2.72,0-3.37-1.03-3.27-3.48.15-3.69.21-7.4-.02-11.09-.17-2.85.93-3.52,3.62-3.5,21.07.11,42.14.08,63.21.09,13.55,0,27.11-.24,40.66.06,14.36.32,18.12-7.62,15.92-20.36-.91-5.29-4.48-8.63-9.97-8.79-11.06-.31-22.13-.09-33.81-.09Z"/>
      <path class="cls-3" d="M81.54,93.2c12.63,0,25.17-.21,37.7.09,6.4.15,10.55,4.13,12.11,10.17,1.59,6.12.25,11.74-4.7,16.13-.37.33-.8.58-1.17.9-.35.3-.68.64-1.48,1.4,6.91,3.48,8.43,9.35,7.7,16.21-.68,6.38-5.06,11.21-11.47,11.47-12.17.5-24.35.49-36.53.74-1.84.04-2.71-.57-2.7-2.52.07-17.86.09-35.72.13-53.58,0-.23.17-.45.4-1.01ZM92.83,140.16c7.14,0,13.78.21,20.39-.09,3.38-.15,5.75-3.61,5.68-7.14-.06-3.37-2.03-5.93-5.64-6.18-6.01-.4-12.06-.39-18.09-.33-.79,0-2.19,1.31-2.24,2.08-.23,3.77-.11,7.57-.11,11.65ZM103.89,102.87q-11.85-.04-11.1,10.74c.02.25-.07.58.05.72.72.77,1.47,2.11,2.24,2.13,5.9.16,11.81.24,17.7-.01,3.71-.16,6.35-3.7,6.15-7.47-.2-3.65-2.5-5.88-6.55-6.08-2.82-.14-5.66-.03-8.48-.03Z"/>
      <path class="cls-1" d="M139.23,180.9h20.65v16.79h-20.65v-16.79Z"/>
    </g>
  </g>
</svg>