<?xml version="1.0" encoding="UTF-8"?>
<svg id="Layer_1" xmlns="http://www.w3.org/2000/svg" viewBox="0 0 290.81 290.81">
  <defs>
    <style>
      .cls-1 {
        fill: #90328a;
      }

      .cls-2 {
        fill: #fff;
      }
    </style>
  </defs>
  <path class="cls-2" d="M0,0v290.81h290.81V0H0Z"/>
  <g id="_x36_37XOL.tif">
    <g>
      <path class="cls-1" d="M218.27,147.77h-52.96c-1.8-4.32.17-4.8,3.2-4.8,16.59-.01,33.18-.12,49.77-.2v5Z"/>
      <path class="cls-1" d="M87.17,147.55c-1.63-4.48.77-4.58,3.6-4.57,14.83.05,29.67-.19,44.49.14,5.1.11,8.04-1.31,10.52-6.01,7.14-13.54,14.95-26.73,22.38-40.12,1.49-2.68,2.85-4.18,5.89-.92-4.85,8.61-9.8,17.41-14.76,26.2-3.6,6.38-7.08,12.83-10.86,19.1-1.68,2.78-1.59,5.03.02,7.82,7.82,13.55,15.42,27.23,23.21,40.8,1.54,2.68,1.99,4.58-2.17,5.48-.87-1.42-1.85-2.91-2.73-4.47-7.43-13.2-14.92-26.37-22.21-39.65-1.57-2.86-3.42-3.92-6.69-3.89-16.81.16-33.63.07-50.68.07Z"/>
      <path class="cls-1" d="M135.17,165.21c-8.95,15.85-17.77,31.48-26.7,47.3-2.99-.76-4.66-1.53-2.66-4.99,8.06-13.98,15.95-28.05,23.81-42.14,1.64-2.94,3.19-2.9,5.56-.16Z"/>
      <path class="cls-1" d="M130.35,126.32c-8.61-15.25-17.23-30.51-25.88-45.82,2.11-2.58,3.66-3.28,5.55.13,7.56,13.63,15.24,27.19,22.98,40.72,1.72,3,.49,4.15-2.65,4.97Z"/>
      <path class="cls-1" d="M143.66,112.76c-3.22-6.42-6.09-12.13-9.22-18.38h18.42c-3.06,6.11-5.93,11.85-9.2,18.38Z"/>
      <path class="cls-1" d="M143.63,177.71c3.31,6.63,6.11,12.24,9.17,18.39h-18.25c2.95-5.98,5.77-11.69,9.08-18.39Z"/>
      <path class="cls-1" d="M104.93,110.2c3.18,6.37,5.97,11.95,9.06,18.11h-18.12c3-6,5.84-11.67,9.07-18.11Z"/>
      <path class="cls-1" d="M172.72,128.33c3.17-6.25,5.98-11.79,9.15-18.05,3.15,6.32,5.93,11.9,8.99,18.05h-18.14Z"/>
      <path class="cls-1" d="M113.92,161.3c-3.03,6.06-5.82,11.63-9.01,18.02-3.16-6.32-5.94-11.87-9.02-18.02h18.03Z"/>
      <path class="cls-1" d="M172.66,161.07h18.18c-3,6.1-5.78,11.77-8.99,18.31-3.25-6.47-6.09-12.13-9.19-18.31Z"/>
    </g>
  </g>
</svg>