<?xml version="1.0" encoding="UTF-8"?>
<svg id="Layer_1" xmlns="http://www.w3.org/2000/svg" viewBox="0 0 290.81 290.81">
  <defs>
    <style>
      .cls-1 {
        fill: #f16651;
      }

      .cls-2 {
        fill: #fa7645;
      }

      .cls-3 {
        fill: #f06453;
      }

      .cls-4 {
        fill: #e65260;
      }

      .cls-5 {
        fill: #fd7d40;
      }

      .cls-6 {
        fill: #e7555e;
      }

      .cls-7 {
        fill: #f77049;
      }

      .cls-8 {
        fill: #fb7a43;
      }

      .cls-9 {
        fill: #fa7745;
      }

      .cls-10 {
        fill: #ef6254;
      }

      .cls-11 {
        fill: #fff;
      }

      .cls-12 {
        fill: #e24a65;
      }

      .cls-13 {
        fill: #e44e63;
      }

      .cls-14 {
        fill: #004a80;
      }

      .cls-15 {
        fill: #ed6056;
      }

      .cls-16 {
        fill: #fa7845;
      }

      .cls-17 {
        fill: #f06353;
      }

      .cls-18 {
        fill: #ea5b5a;
      }
    </style>
  </defs>
  <g>
    <path class="cls-11" d="M0,0v290.81h290.81V0H0Z"/>
    <g>
      <path class="cls-7" d="M141.86,97.59c1.87-1.64,3.92-3.04,6.02-4.35,6.97-4.35,14.52-7.16,22.66-8.26,10.65-1.44,20.95-.03,30.88,4.12,1.77.74,3.49,1.58,5.21,2.42.39.19.51.35.29.79-2.03,4.08-4.05,8.18-6.04,12.28-.26.53-.47.54-.95.29-4.54-2.34-9.28-4.09-14.35-4.9-6.89-1.1-13.65-.63-20.29,1.54-.22.07-.45.12-.68.18-1.92-.65-3.78-1.48-5.75-2.02-3.13-.87-6.3-1.47-9.54-1.76-2.15-.19-4.3-.07-6.45-.13-.35,0-.72.07-1.01-.21Z"/>
      <path class="cls-2" d="M181.21,180.02c-.73,5.03-2.18,9.85-4.22,14.5-2.52,5.74-5.9,10.93-10.12,15.56-4.32,4.74-9.31,8.63-14.91,11.75-3.75,2.09-7.7,3.7-11.77,5.03-.41.14-.63.17-.81-.36-1.45-4.34-2.93-8.68-4.43-13-.18-.53-.03-.66.44-.8,5.86-1.83,11.24-4.56,15.97-8.5,3.87-3.22,7.1-6.98,9.66-11.31.13-.22.28-.43.42-.65.1-.06.2-.16.32-.14,1.51.21,2.75-.61,4.02-1.17,4.45-1.95,8.47-4.6,12.19-7.71.88-.74,1.54-1.66,2.18-2.6.24-.35.48-.8,1.05-.6Z"/>
      <path class="cls-16" d="M110.24,106.96c1.42-6.48,3.94-12.51,7.46-18.13,2.77-4.44,6.13-8.4,10-11.92,3.56-3.24,7.49-5.98,11.73-8.27,3.61-1.95,7.41-3.44,11.29-4.74.56-.19.54.17.63.45,1.26,3.69,2.5,7.38,3.75,11.07.22.65.43,1.3.69,1.94.19.46.07.63-.39.78-2.78.86-5.48,1.91-8.07,3.26-6.4,3.34-11.74,7.9-15.87,13.84-.16.23-.35.45-.52.67-.32-.21-.64-.22-1.01-.1-4.21,1.47-8.3,3.16-12.07,5.59-1.61,1.04-3.16,2.17-4.72,3.28-.77.55-1.23,1.44-2.03,1.97-.26.17-.47.5-.86.31Z"/>
      <path class="cls-9" d="M199.32,151.11c1.45,2.45,2.54,5.06,3.52,7.72,1.8,4.9,2.9,9.96,3.3,15.17.79,10.42-1.1,20.35-5.5,29.82-.46.99-.97,1.95-1.42,2.94-.18.4-.37.44-.75.25-4.17-2.07-8.34-4.14-12.52-6.18-.43-.21-.26-.41-.14-.66.89-1.77,1.75-3.56,2.47-5.41,1.56-4.03,2.56-8.18,2.93-12.5.23-2.74.13-5.47-.03-8.21,3.38-5.12,5.53-10.74,6.93-16.68.43-1.8.66-3.63.85-5.46.03-.3.05-.62.37-.8Z"/>
      <path class="cls-2" d="M138.38,200.09c-3.42,1.85-7.05,3.18-10.78,4.23-6.01,1.7-12.15,2.3-18.38,1.99-7.81-.38-15.24-2.32-22.31-5.64-.94-.44-1.87-.92-2.81-1.35-.4-.18-.5-.33-.28-.78,1.73-3.45,3.42-6.91,5.12-10.36.32-.66.66-1.31.94-1.99.19-.46.4-.51.85-.28,2.46,1.27,4.97,2.42,7.61,3.27,4.02,1.3,8.13,2.07,12.37,2.23,1.83.07,3.63-.08,5.44-.15.68,1.32,2.05,1.71,3.22,2.3,1.79.91,3.56,1.87,5.44,2.61.51.2,1.01.42,1.53.57,1.95.58,3.73,1.65,5.76,2,1.94.33,3.83.87,5.79,1.12.19.02.38.03.5.21Z"/>
      <path class="cls-16" d="M191.9,112.78c2.63.88,5.1,2.11,7.51,3.48,11.22,6.38,19.38,15.52,24.66,27.27,1.04,2.31,1.89,4.68,2.7,7.07.16.48.07.65-.4.81-3.94,1.33-7.86,2.68-11.79,4.02-.02,0-.05,0-.07.02-.54.18-1.21.64-1.58.46-.49-.23-.5-1.06-.69-1.64-1.99-5.99-4.98-11.41-9.23-16.11-.66-.74-1.34-1.46-2.01-2.19-.27-2.84-1.1-5.55-1.95-8.26-.73-2.33-1.65-4.58-2.71-6.77-1.18-2.45-2.65-4.74-4.13-7.02-.22-.34-.6-.66-.29-1.14Z"/>
      <path class="cls-3" d="M87.54,152.6c1.24,1.25,2.39,2.59,3.73,3.72,2.48,2.1,5.12,3.98,7.99,5.53,5.2,2.81,10.75,4.47,16.61,5.07,2.35.24,4.72.31,7.08.16.51-.03.74.04.74.66.01,3.85.08,7.71.13,11.56,0,.68,0,1.37.06,2.05.07.63-.26.71-.75.71-1.51,0-3.03.04-4.54-.01-3.92-.13-7.81-.59-11.64-1.47-3.75-.86-7.4-2.03-10.91-3.62-.13-.06-.25-.14-.37-.21-.79-.59-1.45-1.25-1.58-2.33-.06-.53-.43-.99-.68-1.48-3.06-5.86-5.09-12.07-6.1-18.6-.06-.37-.11-.75-.15-1.13-.03-.29-.03-.59.38-.62Z"/>
      <path class="cls-8" d="M88.14,132.56c-.73-1.59-1.21-3.27-1.67-4.95-1.42-5.16-2.12-10.41-2.07-15.76.09-8.6,1.97-16.8,5.58-24.6.49-1.05,1.05-2.07,1.5-3.13.21-.5.43-.44.8-.26,1.57.78,3.14,1.55,4.7,2.32,2.54,1.26,5.08,2.54,7.64,3.76.5.24.47.45.26.84-1.85,3.53-3.33,7.2-4.26,11.08-.56,2.34-.99,4.71-1.11,7.13,0,.19-.07.37-.11.55-1.85,2.34-3.49,4.82-4.96,7.42-2,3.54-3.52,7.28-4.79,11.13-.38,1.16-.7,2.36-.93,3.57-.07.35.02.86-.57.9Z"/>
      <path class="cls-5" d="M87.54,152.6c-.56.48-.13,1.05-.06,1.52.77,5.05,2.12,9.95,4.14,14.65.61,1.41,1.33,2.77,1.99,4.16.33.7.79,1.34.84,2.16.02.32.22.66.57.85.32.17.51.48.65.82-2.25-.89-4.33-2.1-6.38-3.35-4.6-2.81-8.72-6.24-12.34-10.23-5.82-6.43-10.01-13.82-12.69-22.06-.48-1.49-.49-1.48,1.01-1.99,4-1.36,8-2.71,11.99-4.1.53-.19.7-.06.86.45,1.76,5.59,4.33,10.77,8.01,15.36.47.59.94,1.18,1.41,1.77Z"/>
      <path class="cls-17" d="M191.9,112.78c-.03.36.17.62.35.9,1.62,2.46,3.19,4.95,4.46,7.61,2.06,4.34,3.46,8.89,4.4,13.59.07.34.16.75-.12,1.08-1.77-1.55-3.53-3.12-5.47-4.47-5.41-3.75-11.36-6.14-17.85-7.2-3.28-.53-6.57-.72-9.89-.55-.65.03-.76-.17-.77-.78-.04-4.54-.11-9.08-.18-13.62,0-.38.09-.53.51-.54,7.21-.27,14.28.53,21.17,2.75,1.14.37,2.3.72,3.39,1.22Z"/>
      <path class="cls-1" d="M88.14,132.56c.23-.1.26-.3.3-.52.65-3.37,1.8-6.58,3.15-9.72,1.27-2.97,2.75-5.83,4.54-8.54.85-1.28,1.74-2.51,2.63-3.76.17-.24.3-.49.63-.5.02,1.63-.06,3.25.03,4.88.29,5.36,1.53,10.47,3.72,15.36.38.84.78,1.66,1.17,2.49-1.03,3.18-1.67,6.43-1.91,9.77-.28,3.98-.07,7.93.64,11.85.05.3.14.61-.13.87-3.59-3.35-6.67-7.12-9.32-11.25-2.16-3.35-3.95-6.89-5.38-10.62-.04-.11-.05-.23-.07-.34Z"/>
      <path class="cls-18" d="M110.24,106.96c.72-.25,1.29-.77,1.71-1.32.74-1,1.78-1.61,2.74-2.32.98-.73,2.02-1.37,3.04-2.04,2.3-1.52,4.75-2.7,7.27-3.78,1.69-.72,3.4-1.4,5.15-1.95.39-.12.71-.17.79.35-1.08,1.66-2.1,3.36-2.93,5.16-1.94,4.18-3.29,8.53-3.92,13.11-.41,2.96-.44,5.93-.39,8.91,0,.52-.12.67-.66.67-4.19.02-8.37.08-12.56.13-.54,0-1.23.29-1.58-.04-.38-.36-.11-1.08-.13-1.64-.13-4.86.28-9.67,1.28-14.43.06-.27.14-.54.21-.82Z"/>
      <path class="cls-10" d="M138.38,200.09c-1.56-.05-3.05-.52-4.57-.8-1.38-.26-2.78-.47-4.09-1.03-2.85-1.22-5.86-2.06-8.58-3.58-1.32-.73-2.72-1.31-4.01-2.09-.51-.31-1.06-.58-.97-1.32,5.69-.58,11.08-2.18,16.14-4.85,1.54-.82,3.02-1.73,4.47-2.71,1.84.41,3.71.7,5.59.85,1.93.15,3.87.13,5.8,0,1.72-.11,3.42-.38,5.11-.74.82.78,1.64,1.56,2.47,2.33.26.24.29.42.02.7-4.94,5.29-10.54,9.74-16.98,13.08-.12.06-.26.11-.39.16Z"/>
      <path class="cls-15" d="M199.32,151.11c-.41,1.31-.33,2.69-.57,4.04-.62,3.44-1.58,6.78-2.84,10.03-1.11,2.86-2.44,5.62-4.06,8.23-.16.26-.25.64-.68.64-.26-1.5-.47-3.02-.79-4.51-1.16-5.4-3.32-10.39-6.4-14.98-.08-.11-.13-.25-.19-.37-.06-.72.2-1.4.32-2.09.38-2.39.65-4.79.6-7.2-.05-2.29-.33-4.58-.74-6.84-.04-.23-.12-.46-.04-.7.69-.74,1.4-1.47,2.08-2.22.3-.34.5-.34.84-.02,3.33,3.13,6.38,6.51,8.98,10.27,1.27,1.84,2.5,3.72,3.49,5.73Z"/>
      <path class="cls-6" d="M181.21,180.02c-.84.12-1.08.9-1.44,1.46-.68,1.06-1.61,1.84-2.57,2.6-1.42,1.12-2.87,2.2-4.36,3.23-1,.69-2.07,1.31-3.15,1.88-2.16,1.16-4.37,2.22-6.67,3.07-.55.2-1.06-.13-1.59-.02.95-1.87,1.9-3.73,2.65-5.7,1.6-4.17,2.55-8.48,2.85-12.94.13-1.98.16-3.96.07-5.95-.02-.41.07-.57.54-.57,4.61-.03,9.22-.08,13.83-.13.33,0,.56-.03.57.45.14,4.23-.02,8.45-.75,12.63Z"/>
      <path class="cls-6" d="M141.86,97.59c1.66,0,3.31-.01,4.97,0,3.14.03,6.23.49,9.29,1.17,2.72.6,5.35,1.49,7.92,2.54.22.09.45.16.56.4-4.44,1.61-8.56,3.81-12.33,6.66-2.34,1.78-4.42,3.84-6.46,5.94-.36.37-.55.39-.93.01-2.8-2.78-5.64-5.53-8.46-8.29-.47-.46-.96-.91-1.44-1.36-.17-.17-.35-.31-.09-.58,2.21-2.29,4.41-4.59,6.98-6.51Z"/>
      <path class="cls-4" d="M102.92,154.76c-.14-1.09-.26-2.19-.44-3.27-.25-1.51-.37-3.03-.39-4.56-.03-1.96-.07-3.92.14-5.87.3-2.78.83-5.53,1.67-8.2.08-.24.09-.53.42-.59,2.45,4.75,5.83,8.77,9.67,12.44.75.72.73.72-.02,1.49-2.21,2.26-4.41,4.54-6.64,6.79-.89.9-1.88,1.7-2.63,2.74-.24.33-.51.38-.81.04-.31-.35-.65-.68-.98-1.01Z"/>
      <path class="cls-13" d="M183.92,137.36c.46.78.42,1.68.55,2.53.3,2,.52,4.02.45,6.04-.09,2.56-.36,5.1-.86,7.62-.04.23-.18.43-.28.65-1.32-1.65-2.5-3.41-3.97-4.94-1.11-1.16-2.26-2.28-3.39-3.43-.18-.19-.5-.34-.15-.68,2.59-2.56,5-5.3,7.65-7.8Z"/>
      <path class="cls-12" d="M153.26,183.83c-.47.51-1.15.48-1.74.58-2.73.46-5.48.53-8.24.44-1.95-.06-3.87-.42-5.79-.73-.27-.04-.54-.17-.73-.4,2.57-1.86,5-3.88,7.21-6.16.33-.34.66-.68.95-1.04.32-.39.54-.36.89,0,1.81,1.83,3.63,3.65,5.47,5.45.65.63,1.42,1.15,1.99,1.88Z"/>
    </g>
  </g>
  <path class="cls-14" d="M91.4,258.31c.8-1.3,1.8-2.2,2.9-2.6.6.3.9.8.9,1.4l-3.3,2-.5-.8Z"/>
</svg>