<?xml version="1.0" encoding="UTF-8"?>
<svg id="Layer_1" xmlns="http://www.w3.org/2000/svg" viewBox="0 0 290.81 290.81">
  <defs>
    <style>
      .cls-1 {
        fill: #f9dd39;
      }

      .cls-2 {
        fill: #fff;
      }

      .cls-3 {
        fill: #fefefe;
      }
    </style>
  </defs>
  <path class="cls-2" d="M0,0v290.81h290.81V0H0Z"/>
  <g id="TarzjE">
    <g>
      <path class="cls-3" d="M131.5,131.16c-3.56-12.98-7.04-25.6-10.46-38.23-.37-1.35-1.42-1.38-2.36-1.64-10.32-2.86-20.65-5.68-30.98-8.51-2.01-.55-4.04-1.07-6.28-1.66,3.55,12.94,7.02,25.56,10.45,38.2.27,1.01.95,1.25,1.8,1.48,4.36,1.18,8.71,2.39,13.07,3.59,8.14,2.23,16.28,4.46,24.76,6.78ZM209.5,81.2c-.46.07-.65.09-.83.13-12.38,3.39-24.76,6.81-37.16,10.14-1.3.35-1.53,1.2-1.8,2.2-2.37,8.65-4.74,17.3-7.11,25.95-1.03,3.76-2.04,7.52-3.12,11.5.98-.25,1.65-.42,2.33-.61,10.58-2.89,21.11-5.98,31.76-8.58,3.84-.94,5.72-2.55,6.68-6.51,2.78-11.4,6.08-22.67,9.24-34.22ZM81.44,209.12c.68-.16,1.06-.23,1.43-.33,12.13-3.33,24.25-6.7,36.41-9.95,1.59-.42,1.75-1.5,2.07-2.66,2.8-10.2,5.59-20.41,8.39-30.61.57-2.08,1.12-4.16,1.74-6.47-12.95,3.55-25.57,7.02-38.2,10.46-1.01.27-1.25.94-1.48,1.79-.95,3.55-1.96,7.09-2.93,10.63-2.45,8.95-4.89,17.9-7.41,27.12ZM209.48,209.16c-.13-.55-.2-.85-.28-1.14-3.36-12.26-6.74-24.51-10.04-36.78-.34-1.27-1.12-1.57-2.15-1.85-8.22-2.24-16.43-4.51-24.64-6.75-4.21-1.15-8.41-2.29-12.81-3.48.13.6.18.97.28,1.32,3.34,12.19,6.72,24.38,10,36.59.34,1.27,1.12,1.57,2.15,1.85,8.22,2.24,16.43,4.51,24.64,6.75,4.21,1.15,8.41,2.29,12.84,3.49ZM145.02,125.59c.41-.6.64-.9.83-1.22,6.29-10.99,12.56-21.99,18.89-32.97.52-.91.27-1.51-.17-2.28-4.6-8.01-9.16-16.05-13.75-24.07-1.84-3.22-3.71-6.43-5.68-9.84-.4.58-.63.88-.81,1.2-6.29,10.99-12.56,21.99-18.89,32.97-.52.91-.28,1.51.17,2.28,2.43,4.19,4.82,8.41,7.22,12.62,4.01,7.01,8.02,14.01,12.2,21.32ZM124.81,145.94c-.7-.45-1.02-.67-1.36-.86-10.94-6.25-21.89-12.49-32.8-18.79-.99-.57-1.63-.28-2.45.19-10.59,6.08-21.21,12.12-31.8,18.19-.63.36-1.41.57-1.76,1.39.4.25.72.47,1.05.66,10.94,6.26,21.89,12.49,32.8,18.79.99.57,1.63.28,2.45-.19,7.84-4.51,15.7-8.98,23.56-13.47,3.35-1.91,6.69-3.83,10.31-5.92ZM165.78,145.85c.62.42.93.65,1.25.84,10.99,6.29,21.99,12.57,32.97,18.89.92.53,1.52.24,2.28-.2,8.86-5.08,17.73-10.13,26.59-15.2,2.38-1.36,4.74-2.74,7.31-4.23-.59-.4-.89-.63-1.22-.82-10.99-6.29-22-12.56-32.97-18.88-.92-.53-1.52-.25-2.28.19-5.15,2.97-10.32,5.91-15.48,8.86-6.05,3.46-12.1,6.92-18.45,10.55ZM144.9,235.6c.74-.29.88-.83,1.12-1.26,6.23-10.88,12.44-21.77,18.69-32.63.51-.89.34-1.49-.11-2.28-4.6-8.01-9.17-16.04-13.76-24.07-1.85-3.23-3.72-6.45-5.7-9.88-.41.6-.68.94-.89,1.32-6.26,10.94-12.5,21.88-18.79,32.8-.51.88-.34,1.49.12,2.28,4.6,8.01,9.17,16.04,13.76,24.07,1.85,3.23,3.71,6.45,5.57,9.66Z"/>
      <path class="cls-1" d="M131.5,131.16c-8.48-2.32-16.62-4.55-24.76-6.78-4.36-1.19-8.7-2.41-13.07-3.59-.85-.23-1.52-.47-1.8-1.48-3.43-12.63-6.91-25.25-10.45-38.2,2.24.59,4.26,1.11,6.28,1.66,10.33,2.83,20.66,5.65,30.98,8.51.94.26,2,.29,2.36,1.64,3.42,12.64,6.9,25.26,10.46,38.23Z"/>
      <path class="cls-1" d="M209.5,81.2c-3.16,11.55-6.47,22.82-9.24,34.22-.97,3.96-2.85,5.57-6.68,6.51-10.65,2.6-21.18,5.69-31.76,8.58-.67.18-1.35.35-2.33.61,1.08-3.97,2.09-7.74,3.12-11.5,2.37-8.65,4.74-17.3,7.11-25.95.27-1,.51-1.85,1.8-2.2,12.4-3.33,24.78-6.75,37.16-10.14.18-.05.36-.06.83-.13Z"/>
      <path class="cls-1" d="M81.44,209.12c2.52-9.22,4.96-18.17,7.41-27.12.97-3.55,1.98-7.08,2.93-10.63.23-.85.48-1.52,1.48-1.79,12.63-3.43,25.25-6.91,38.2-10.46-.62,2.31-1.17,4.39-1.74,6.47-2.79,10.21-5.58,20.41-8.39,30.61-.32,1.15-.48,2.23-2.07,2.66-12.15,3.24-24.28,6.62-36.41,9.95-.37.1-.74.17-1.43.33Z"/>
      <path class="cls-1" d="M209.48,209.16c-4.43-1.2-8.64-2.34-12.84-3.49-8.21-2.25-16.42-4.51-24.64-6.75-1.03-.28-1.81-.58-2.15-1.85-3.29-12.21-6.66-24.4-10-36.59-.1-.35-.15-.72-.28-1.32,4.39,1.19,8.6,2.33,12.81,3.48,8.21,2.25,16.42,4.51,24.64,6.75,1.03.28,1.81.58,2.15,1.85,3.3,12.27,6.68,24.52,10.04,36.78.08.29.14.59.28,1.14Z"/>
      <path class="cls-1" d="M145.02,125.59c-4.18-7.3-8.19-14.31-12.2-21.32-2.41-4.21-4.79-8.42-7.22-12.62-.45-.77-.69-1.38-.17-2.28,6.32-10.97,12.6-21.97,18.89-32.97.18-.32.42-.62.81-1.2,1.97,3.41,3.84,6.62,5.68,9.84,4.59,8.02,9.15,16.05,13.75,24.07.44.77.69,1.37.17,2.28-6.32,10.97-12.6,21.98-18.89,32.97-.19.32-.42.62-.83,1.22Z"/>
      <path class="cls-1" d="M124.81,145.94c-3.63,2.08-6.97,4-10.31,5.92-7.85,4.49-15.71,8.97-23.56,13.47-.82.47-1.46.76-2.45.19-10.92-6.3-21.86-12.53-32.8-18.79-.33-.19-.65-.41-1.05-.66.36-.82,1.14-1.03,1.76-1.39,10.6-6.07,21.21-12.12,31.8-18.19.82-.47,1.46-.76,2.45-.19,10.92,6.3,21.86,12.53,32.8,18.79.33.19.65.41,1.36.86Z"/>
      <path class="cls-1" d="M165.78,145.85c6.35-3.63,12.39-7.09,18.45-10.55,5.16-2.95,10.33-5.89,15.48-8.86.76-.44,1.37-.72,2.28-.19,10.97,6.32,21.98,12.59,32.97,18.88.33.19.62.42,1.22.82-2.56,1.48-4.93,2.87-7.31,4.23-8.86,5.07-17.73,10.12-26.59,15.2-.76.44-1.37.73-2.28.2-10.97-6.32-21.97-12.6-32.97-18.89-.33-.19-.63-.42-1.25-.84Z"/>
      <path class="cls-1" d="M144.9,235.6c-1.85-3.21-3.72-6.43-5.57-9.66-4.59-8.02-9.15-16.05-13.76-24.07-.46-.79-.62-1.4-.12-2.28,6.29-10.92,12.53-21.87,18.79-32.8.21-.37.48-.72.89-1.32,1.98,3.44,3.85,6.65,5.7,9.88,4.59,8.02,9.15,16.05,13.76,24.07.45.79.62,1.4.11,2.28-6.25,10.86-12.46,21.76-18.69,32.63-.24.43-.38.96-1.12,1.26Z"/>
    </g>
  </g>
</svg>