<?xml version="1.0" encoding="UTF-8"?>
<svg id="Layer_1" xmlns="http://www.w3.org/2000/svg" viewBox="0 0 290.81 290.81">
  <defs>
    <style>
      .cls-1 {
        fill: #fff;
      }

      .cls-2 {
        fill: #198038;
      }
    </style>
  </defs>
  <path class="cls-1" d="M0,0v290.81h290.81V0H0Z"/>
  <g id="LSstTX.tif">
    <g>
      <path class="cls-2" d="M63.94,146.79c.03-13.57,1.76-25.55,5.1-37.31.33-1.18.88-1.67,2.12-1.81,8.42-.94,16.84-1.93,25.26-2.98,1.07-.13,1.55.45,2.15,1.01,12.5,11.78,25.01,23.57,37.51,35.35.15.15.31.29.46.44,1.28,1.3,3.64,2.34,3.59,3.89-.04,1.28-2.22,2.52-3.5,3.72-12.65,11.94-25.32,23.86-37.94,35.82-.92.87-1.81,1.13-3.02.99-8.28-1-16.55-1.99-24.84-2.86-1.38-.14-1.51-.92-1.79-1.88-3.46-11.66-5.02-23.6-5.1-34.4Z"/>
      <path class="cls-2" d="M226.87,145.28c-.04,12.29-1.81,24.34-5.11,36.17-.31,1.12-.82,1.5-2,1.63-8.15.87-16.28,1.85-24.42,2.81-1.15.14-2.1.07-3.06-.85-13.44-12.75-26.91-25.47-40.43-38.12-1.36-1.27-1.42-1.87-.02-3.18,13.54-12.64,27.02-25.35,40.47-38.08.87-.82,1.65-1.01,2.81-.86,7.85.97,15.71,1.9,23.58,2.7,1.94.2,2.85.87,3.4,2.83,2.97,10.75,4.77,23.31,4.79,34.95Z"/>
      <path class="cls-2" d="M149.02,152.73c3.39,3.35,6.48,6.34,9.51,9.4,9.55,9.64,19.06,19.33,28.64,28.94,1.05,1.06,1.26,1.88.71,3.29-6.87,17.84-23,29.66-42.03,30.04-11.36.23-21.44-3.76-29.98-11.38-5.9-5.27-10.24-11.62-13.03-19.03-.36-.96-.44-1.63.36-2.44,12.55-12.64,25.07-25.31,37.6-37.97.22-.23.41-.6,1.04-.4,0,.69,0,1.44,0,2.2,0,16.33.03,32.66-.04,48.99,0,1.68.46,2.11,2.11,2.09,5.09-.08,5.09-.01,5.09-5,0-15.41,0-30.82,0-46.23,0-.69,0-1.38,0-2.48Z"/>
      <path class="cls-2" d="M149.27,137.65c-.44-.84-.24-1.71-.24-2.53-.01-12.86,0-25.73-.03-38.59,0-1.33.04-2.41,1.45-3.15,1.33-.7,1.16-2.62,2.47-3.53.47-.33.02-1.06-.39-1.48-1.98-2.02-3.98-4.01-5.95-6.03-.82-.85-1.52-.79-2.33.04-1.91,1.98-3.87,3.92-5.81,5.88-.76.77-.77,1.38,0,2.33,1.99,2.45,3.64,4.81,3.53,8.49-.35,12.08-.13,24.17-.14,36.26,0,.75.2,1.55-.21,2.28-.75-.04-1.04-.68-1.46-1.1-12.13-12.26-24.24-24.54-36.4-36.77-1.11-1.12-1.38-2.01-.76-3.47,7.01-16.55,18.98-27.15,37.02-29.46,17.71-2.27,31.61,4.93,42.13,19.05,2.5,3.36,4.32,7.1,5.86,10.99.35.88.45,1.5-.3,2.25-12.64,12.75-25.26,25.52-37.89,38.28-.13.13-.35.17-.55.27Z"/>
    </g>
  </g>
</svg>