<?xml version="1.0" encoding="UTF-8"?>
<svg id="Layer_1" xmlns="http://www.w3.org/2000/svg" viewBox="0 0 290.81 290.81">
  <defs>
    <style>
      .cls-1 {
        fill: #fe7901;
      }

      .cls-2 {
        fill: #fff;
      }
    </style>
  </defs>
  <path class="cls-1" d="M0,0v290.81h290.81V0H0Z"/>
  <g>
    <path class="cls-2" d="M108.35,160.62c5.18,7.38,10.21,14.54,15.64,22.28-5.26,0-9.76-.05-14.25.02-1.68.03-2.13-1.23-2.84-2.27-3.72-5.46-7.4-10.94-11.13-16.39-1.35-1.98-6.72-3.29-8.64-2.17-1.16.67-.77,1.83-.78,2.8-.04,5.06-.12,10.13.03,15.18.06,2.21-.65,2.83-2.85,2.88-10.22.27-10.22.35-10.22-9.88,0-15.32.06-30.63-.06-45.95-.02-2.66.62-3.6,3.43-3.54,8.3.18,16.61.02,24.92.08,9.72.07,17.26,5.91,19,14.6,2.06,10.24-2.14,18.1-12.24,22.34ZM94.71,135.19s0-.03,0-.04c-1.81,0-3.63.15-5.42-.04-2.44-.26-3.14.68-3.01,3.04.19,3.48.04,6.98.06,10.46,0,.99-.23,2.26,1.38,2.2,4.89-.19,9.84.73,14.65-.68,3.96-1.15,5.77-4.03,5.4-8.23-.32-3.62-3.04-6.38-6.85-6.7-2.05-.17-4.13-.03-6.2-.03Z"/>
    <path class="cls-2" d="M133.09,153.24c.58-13.09,6.7-22.61,18.71-28.04,10.79-4.88,24.21-2.2,32.9,5.96,2.17,2.03,2.45,3.38-.25,4.9-.45.25-.82.64-1.22.97-1.88,1.58-3.53,3.8-5.71,4.6-2.62.96-3.67-2.44-5.7-3.57-5.58-3.1-12.66-2.85-17.89,1.12-5.53,4.19-8.13,12.1-6.2,18.83,3.73,12.98,17.52,16.93,27.43,7.73,1.43-1.33,2.13-1.34,3.4-.1,1.39,1.35,2.97,2.51,4.46,3.76,4.49,3.76,4.6,3.9-.22,7.64-9.88,7.66-20.82,9.23-32.11,3.89-11.42-5.41-17.11-14.95-17.61-27.68Z"/>
    <path class="cls-2" d="M201.89,161.11c0-5.84-.02-11.68,0-17.52.02-4.85,2.82-8.07,6.96-8.07,4.09,0,6.93,3.25,6.94,8.15.04,12.07-.04,24.14.06,36.21.02,2.26-.43,3.13-2.95,3.17-11.02.19-11.02.29-11.02-10.65,0-3.76,0-7.53,0-11.29Z"/>
    <path class="cls-2" d="M217.57,115.44c.02,5.01-3.85,8.87-8.87,8.83-4.84-.03-8.52-3.74-8.57-8.65-.06-5.04,3.81-8.96,8.77-8.88,4.79.07,8.65,3.94,8.67,8.7Z"/>
  </g>
</svg>