<?xml version="1.0" encoding="UTF-8"?>
<svg id="Layer_1" xmlns="http://www.w3.org/2000/svg" viewBox="0 0 290.81 290.81">
  <defs>
    <style>
      .cls-1 {
        fill: #011955;
      }

      .cls-2 {
        fill: #fff;
      }

      .cls-3 {
        fill: #ff0008;
      }
    </style>
  </defs>
  <path class="cls-2" d="M0,0v290.81h290.81V0H0Z"/>
  <g id="NVgRLS">
    <g>
      <path class="cls-3" d="M126.33,120.45v-42.69h82.91c-1.28,1.62-2.19,3.03-3.34,4.18-11.67,11.66-23.26,23.41-35.2,34.79-2.15,2.05-5.78,3.45-8.78,3.55-11.69.4-23.4.16-35.58.16Z"/>
      <path class="cls-1" d="M78.54,208.11v-82.59h42.96c0,9.65-.56,19.53.17,29.31.61,8.2-2.08,13.84-8.14,19.29-10.41,9.36-19.99,19.63-29.95,29.49-1.36,1.35-2.87,2.57-5.04,4.5Z"/>
      <path class="cls-1" d="M81.2,213.05c13.98-14.04,27.28-27.45,40.69-40.75.99-.98,2.8-1.61,4.23-1.62,12.66-.12,25.32-.07,38.48-.07v42.45h-83.41Z"/>
      <path class="cls-3" d="M169.54,165.15c0-13.02-.08-25.23.09-37.43.02-1.59.92-3.52,2.05-4.69,13.05-13.46,26.22-26.81,40.6-41.44v83.56h-42.74Z"/>
      <path class="cls-3" d="M120.94,120.12h-38.04c12.77-12.38,25.7-24.92,38.04-36.88v36.88Z"/>
      <path class="cls-1" d="M169.78,209.12v-38.09h37.26c-11.87,12.14-24.5,25.05-37.26,38.09Z"/>
    </g>
  </g>
</svg>