<?xml version="1.0" encoding="UTF-8"?>
<svg id="Layer_1" xmlns="http://www.w3.org/2000/svg" viewBox="0 0 290.81 290.81">
  <defs>
    <style>
      .cls-1 {
        fill: #8eae3f;
      }

      .cls-2 {
        fill: #fff;
      }

      .cls-3 {
        fill: #155a9e;
      }
    </style>
  </defs>
  <path class="cls-3" d="M0,0v290.81h290.81V0H0Z"/>
  <polyline class="cls-2" points="290.81 0 131.6 0 290.81 130.47"/>
  <g id="aNOuUT.tif">
    <g>
      <path class="cls-2" d="M157.11,132.42c-5.17,11-10.33,21.99-15.5,32.99-.57,1.22-1,2.54-1.74,3.65-.45.68-1.37,1.38-2.11,1.42-.59.03-1.49-.82-1.81-1.49-5.67-11.85-11.27-23.73-16.89-35.6-.22-.46-.48-.91-1.05-1.98,0,2.24,0,3.84,0,5.44,0,7.74.01,15.48.03,23.22,0,.9,0,1.81.11,2.7.39,3.47.4,3.55,3.9,3.82,1.41.11,2.02.47,1.98,1.97-.04,1.67-1.1,1.48-2.16,1.48-4.07,0-8.14,0-12.22,0-1.04,0-2.17.24-2.25-1.42-.07-1.46.5-1.92,1.95-2.03,3.76-.3,3.92-.48,3.93-4.19.04-11.49.04-22.99,0-34.48-.01-3.61-.09-3.65-3.6-3.91-1.49-.11-2.47-.49-2.27-2.27.2-1.82,1.49-1.29,2.55-1.28,3.99.03,8.01.32,11.98.01,2.29-.18,3.1.59,3.97,2.49,4.73,10.3,9.62,20.52,14.46,30.77.22.47.51.9.93,1.63,1.9-3.85,3.75-7.44,5.46-11.09,3.49-7.48,6.87-15.01,10.41-22.47.31-.65,1.4-1.28,2.14-1.31,4.21-.13,8.43-.06,12.65-.09,1.12,0,2.12-.11,2.19,1.49.07,1.49-.63,1.95-1.98,2.1-3.83.42-3.91.45-3.92,4.29-.04,11.49-.03,22.99.01,34.48.01,3.27.27,3.52,3.6,3.82,1.3.12,2.38.13,2.29,1.93-.09,1.81-1.29,1.52-2.39,1.52-6.03,0-12.07,0-18.1.01-1.12,0-2.11.07-2.16-1.52-.05-1.52.67-1.84,2.04-1.94,3.4-.25,3.45-.32,3.78-3.6.19-1.86.27-3.74.27-5.62.03-8.26.01-16.53.01-24.79l-.5-.16Z"/>
      <path class="cls-2" d="M89.22,142.34c.08.01.82.14,1.55.3,10.39,2.27,13.86,12.77,6.86,20.87-3.7,4.29-8.55,6.36-14.13,6.49-6.48.16-12.96.05-19.44,0-.56,0-1.12-.47-1.68-.73.28-.57.41-1.43.85-1.65,2.25-1.08,2.46-3.05,2.46-5.12.02-11.11.02-22.23,0-33.34,0-.82-.25-1.64-.25-2.46,0-1.99-.9-2.83-2.92-2.73-.84.04-1.95-.15-2.47-.69-.42-.43-.32-1.6-.07-2.31.13-.35,1.13-.52,1.74-.53,6.02-.07,12.05-.19,18.07-.08,4.04.07,8.17.04,12.1.83,8.66,1.74,9.45,11.49,4.7,16.17-2.17,2.14-5.12,3.48-7.39,4.97ZM76.49,144.85v20.85c4.42.38,8.72.77,11.42-3.32,2.77-4.19,2.96-8.92.6-13.26-2.51-4.63-7.28-4.36-12.03-4.28ZM76.35,132.66s-.05,0-.07,0c0,2.1-.07,4.21.05,6.3.03.58.53,1.49,1.01,1.63,4.81,1.45,9.69-1.35,10.86-6.14,1.26-5.11-.91-9.09-5.48-9.8-1.62-.25-3.32-.2-4.95-.03-.52.06-1.31.96-1.35,1.52-.16,2.16-.06,4.35-.06,6.52Z"/>
      <path class="cls-2" d="M208.3,156.86c2.86-7.23,5.75-14.45,8.58-21.7.95-2.44,1.81-4.93,2.63-7.42,1.07-3.27.85-3.53-2.6-3.74-1.24-.08-2.71.18-2.68-1.84.01-1.21.43-1.8,1.71-1.79,4.52.03,9.04-.04,13.55.06.56.01,1.52.85,1.54,1.34.02.7-.63,2.05-1.01,2.05-3.3.05-4.24,2.47-5.22,4.85-5.4,13.11-10.8,26.21-16.12,39.35-.63,1.57-1.22,2.56-3.15,2.42-1.81-.14-3.32.08-4.25-2.24-5.21-12.94-10.64-25.79-16-38.67-.4-.97-.91-1.89-1.32-2.86-.75-1.76-1.92-2.81-3.97-2.69-1.53.09-2.15-.67-2.02-2.22.14-1.66,1.26-1.33,2.3-1.34,6.18-.01,12.36-.02,18.53-.06,1.96-.01,2.89.94,2.11,2.52-.29.58-1.38.98-2.15,1.06-3.58.38-3.84.6-2.51,4,3.77,9.63,7.63,19.23,11.45,28.84.19.02.39.05.58.07Z"/>
    </g>
  </g>
  <polygon class="cls-1" points="162.9 0 290.81 104.82 290.81 0 162.9 0"/>
</svg>