<?xml version="1.0" encoding="UTF-8"?>
<svg id="Layer_1" xmlns="http://www.w3.org/2000/svg" viewBox="0 0 290.81 290.81">
  <defs>
    <style>
      .cls-1 {
        fill: #fff;
      }

      .cls-2 {
        fill: #da1e28;
      }
    </style>
  </defs>
  <path class="cls-1" d="M0,0v290.81h290.81V0H0Z"/>
  <g>
    <path class="cls-2" d="M170.93,71.76c-4.74,0-9.51.34-14.22-.08-6.69-.59-12.46,1.3-18.14,4.67-11.06,6.57-21.25,14.1-28.94,24.58-8.38,11.41-12.02,24.06-9.52,38.19,2.07,11.72,7.88,21.57,15.72,30.28,12.34,13.73,27.66,23.25,44.27,30.89.98.45,1.61.32,2.36-.39,1.96-1.84,4.07-3.53,5.98-5.42,19.75-19.62,29.65-43.7,31.85-71.14,1.36-16.96-.79-33.61-5.2-50-.33-1.24-.8-1.61-2.05-1.6-7.37.05-14.74.03-22.11.03ZM131.7,219.24c-.59-.43-.93-.67-1.28-.91-3.93-2.76-7.99-5.36-11.76-8.31-11.79-9.21-21.79-20-28.79-33.37-6.86-13.1-9.59-27.01-7.42-41.66,2.27-15.28,9.68-28.06,20.19-39.16,8.95-9.45,19.45-16.82,30.91-22.88.56-.3,1.09-.65,1.85-1.1h-63.63v147.39h59.94ZM203.11,71.82c.16.68.26,1.17.39,1.66,3.4,12.84,5.63,25.88,6.53,39.13.99,14.63.31,29.18-2.23,43.64-3.68,20.98-10.82,40.62-22.49,58.52-.92,1.42-1.81,2.86-2.79,4.41h36.53V71.82h-15.94Z"/>
    <path class="cls-2" d="M170.93,71.76c7.37,0,14.74.03,22.11-.03,1.25,0,1.72.37,2.05,1.6,4.41,16.39,6.56,33.04,5.2,50-2.2,27.45-12.1,51.53-31.85,71.14-1.91,1.89-4.02,3.58-5.98,5.42-.75.71-1.38.84-2.36.39-16.62-7.63-31.93-17.16-44.27-30.89-7.83-8.71-13.64-18.56-15.72-30.28-2.5-14.13,1.14-26.78,9.52-38.19,7.69-10.48,17.88-18,28.94-24.58,5.68-3.37,11.45-5.27,18.14-4.67,4.71.42,9.48.08,14.22.08Z"/>
    <path class="cls-2" d="M131.7,219.24h-59.94V71.86h63.63c-.75.45-1.29.8-1.85,1.1-11.46,6.06-21.96,13.44-30.91,22.88-10.51,11.09-17.92,23.88-20.19,39.16-2.18,14.64.56,28.55,7.42,41.66,7,13.36,17,24.16,28.79,33.37,3.78,2.95,7.84,5.55,11.76,8.31.34.24.68.49,1.28.91Z"/>
    <path class="cls-2" d="M203.11,71.82h15.94v147.37h-36.53c.98-1.55,1.87-2.99,2.79-4.41,11.67-17.9,18.81-37.54,22.49-58.52,2.53-14.46,3.22-29.01,2.23-43.64-.9-13.25-3.13-26.29-6.53-39.13-.13-.48-.23-.97-.39-1.66Z"/>
  </g>
</svg>