<?xml version="1.0" encoding="UTF-8"?>
<svg id="Layer_1" xmlns="http://www.w3.org/2000/svg" viewBox="0 0 290.81 290.81">
  <defs>
    <style>
      .cls-1 {
        fill: #fbdc01;
      }

      .cls-2 {
        fill: #a8a4a0;
      }

      .cls-3 {
        fill: #e22918;
      }
    </style>
  </defs>
  <path class="cls-3" d="M0,0v290.81h290.81V0H0Z"/>
  <g>
    <path class="cls-1" d="M153.36,117.94c-11.2-1.39-24.35,4.77-30.93,13.93,5.95,1.33,12.99-.41,18.99-1,14.21,2.48,14.45,17.7,8.39,28.11-7.53,12.95-22.22,21.98-33.44,31.38-6.61,4.43-20.26,18.1-28.55,17.25-3.23-.33-6.65-4.54-8.33-7.13-3.7-5.72.38-8.59,5.05-12.15,16.99-12.94,41.97-20.45,53.91-39.03-12.08-2.22-23.58,6.88-35.38,6.41-10.24-.41-14.79-12.75-10.55-20.71,10.65-20.03,31.94-28.24,51.64-36.21,6.45,4.76,12.79,9.58,9.19,19.16Z"/>
    <path class="cls-1" d="M180.46,178.89c-4.53,1.15-9.01,2.53-13.6,3.4-5.43,1.04-6.4-3.46-5.56-6.62,5.07-19.14,10.22-38.29,16.52-57.04,1.27-3.77,8.03-1.89,12.38-1.57,2.88,1.61,4.98,3.98,3.73,7.31-6.65,17.65-9.74,36.17-13.47,54.53Z"/>
    <path class="cls-1" d="M192.01,109.2c-7.9,1.23-9.36-7.69-5.38-12.21,4.54-5.15,14.23-17.09,21.69-12.99,2.37,4.05,3.57,7.61-1.18,11.33-5.37,4.2-10.12,9.21-15.13,13.87Z"/>
    <path class="cls-2" d="M116.38,190.36c11.22-9.4,25.91-18.43,33.44-31.38,6.06-10.41,5.82-25.62-8.39-28.11,10.94.42,17.46,8.86,13.57,19.77-6.72,18.87-22.57,29.54-38.62,39.71Z"/>
    <path class="cls-2" d="M180.46,178.89c3.73-18.36,6.82-36.87,13.47-54.53,1.25-3.33-.84-5.7-3.73-7.31,12.26,1.34,1.09,21.4-.62,28.03-1.22,4.75-4.18,33.46-9.13,33.81Z"/>
    <path class="cls-2" d="M192.01,109.2c5.02-4.66,9.76-9.67,15.13-13.87,4.75-3.71,3.55-7.27,1.18-11.33,14.52,2.52-10.94,25.1-16.31,25.2Z"/>
    <path class="cls-2" d="M153.36,117.94c3.6-9.58-2.74-14.4-9.19-19.16,6.14,1.23,19.28,15.2,9.19,19.16Z"/>
  </g>
</svg>