<?xml version="1.0" encoding="UTF-8"?>
<svg id="Layer_1" xmlns="http://www.w3.org/2000/svg" viewBox="0 0 290.81 290.81">
  <defs>
    <style>
      .cls-1 {
        fill: none;
      }

      .cls-2 {
        fill: #fff;
      }

      .cls-3 {
        fill: #001e50;
      }
    </style>
  </defs>
  <path class="cls-2" d="M0,0v290.81h290.81V0H0Z"/>
  <g>
    <path class="cls-1" d="M0,0h290.81v290.81H0V0Z"/>
    <path class="cls-3" d="M145.41,211.42c-36.21,0-65.87-29.81-65.87-66.01,0-8.14,1.45-15.85,4.22-23.12l38.53,77.5c.44,1.02,1.16,1.89,2.33,1.89s1.89-.87,2.33-1.89l17.74-39.7c.15-.44.44-.87.87-.87s.58.44.87.87l17.74,39.7c.44,1.02,1.16,1.89,2.33,1.89s1.89-.87,2.33-1.89l38.53-77.5c2.76,7.27,4.22,14.98,4.22,23.12-.29,36.21-29.95,66.01-66.16,66.01ZM145.41,130.43c-.44,0-.58-.44-.87-.87l-20.65-46.53c6.69-2.47,13.96-3.78,21.52-3.78s14.83,1.31,21.52,3.78l-20.65,46.53c-.29.58-.44.87-.87.87ZM124.32,178.27c-.44,0-.58-.44-.87-.87l-33.44-67.47c5.96-9.16,13.96-16.87,23.7-22.25l24.14,53.65c.29.87,1.02,1.16,1.74,1.16h11.63c.87,0,1.45-.15,1.89-1.16l24.14-53.65c9.6,5.38,17.74,13.09,23.7,22.25l-33.73,67.47c-.15.44-.44.87-.87.87s-.58-.44-.87-.87l-12.65-28.79c-.44-1.02-1.02-1.16-1.89-1.16h-11.63c-.87,0-1.45.15-1.89,1.16l-12.21,28.79c-.15.44-.44.87-.87.87ZM145.41,218.11c40.28,0,72.7-32.43,72.7-72.7s-32.43-72.7-72.7-72.7-72.7,32.43-72.7,72.7,32.43,72.7,72.7,72.7Z"/>
  </g>
</svg>