<?xml version="1.0" encoding="UTF-8"?>
<svg id="Layer_1" xmlns="http://www.w3.org/2000/svg" viewBox="0 0 290.81 290.81">
  <defs>
    <style>
      .cls-1 {
        fill: #c6242f;
      }

      .cls-2 {
        fill: #fff;
      }
    </style>
  </defs>
  <path class="cls-1" d="M0,0v290.81h290.81V0H0Z"/>
  <path class="cls-2" d="M145.41,91.44c-46.07,0-83.41,24.16-83.41,53.96s37.35,53.98,83.41,53.98,83.41-24.16,83.41-53.98-37.35-53.96-83.41-53.96ZM145.41,176.21c-6.85,0-12.44-13.5-12.79-30.48,4.12.36,8.41.56,12.79.56s8.67-.2,12.79-.56c-.35,16.97-5.94,30.48-12.79,30.48ZM133.46,132.25c1.86-12,6.51-20.52,11.95-20.52s10.09,8.52,11.95,20.52c-3.83.34-7.82.53-11.95.53s-8.12-.19-11.95-.53ZM145.41,99.24c-8.95,0-16.58,13.4-19.39,32.1-16.96-2.64-28.8-8.67-28.8-15.68,0-9.45,21.57-17.11,48.19-17.11s48.19,7.66,48.19,17.11c0,7.01-11.84,13.03-28.8,15.68-2.82-18.7-10.45-32.1-19.39-32.1ZM73.95,143.38c0-9.14,3.52-17.73,9.65-25.09-.07.52-.11,1.04-.11,1.57,0,11.52,17.28,21.34,41.38,24.96-.02.83-.02,1.68-.02,2.52,0,21.48,6.02,39.66,14.34,45.83-36.56-2.2-65.24-23.66-65.24-49.79ZM151.62,193.17c8.32-6.17,14.34-24.36,14.34-45.83,0-.86-.01-1.69-.02-2.52,24.1-3.62,41.38-13.43,41.38-24.96,0-.53-.04-1.05-.11-1.57,6.13,7.39,9.65,15.95,9.65,25.09,0,26.13-28.68,47.59-65.24,49.79Z"/>
</svg>