<?xml version="1.0" encoding="UTF-8"?>
<svg id="Layer_1" xmlns="http://www.w3.org/2000/svg" viewBox="0 0 290.81 290.81">
  <defs>
    <style>
      .cls-1 {
        fill: #112234;
      }

      .cls-2 {
        fill: #fff;
      }
    </style>
  </defs>
  <path class="cls-1" d="M0,0v290.81h290.81V0H0Z"/>
  <g id="S9eMpH">
    <g>
      <path class="cls-2" d="M163.56,151.15c-3.22,1.63-6.59,2.39-10,3.02-6.72,1.25-13.47,1.24-20.24.5-5.79-.63-11.42-1.94-16.72-4.41-1.76-.82-3.45-1.8-5.12-2.78-1.08-.63-1.22-1.27-.66-2.35.86-1.62,1.73-3.23,2.61-4.84.6-1.1,1.09-1.25,2.17-.55,5.82,3.79,12.26,5.86,19.1,6.63,7.14.79,14.29.91,21.2-1.48,1.59-.55,3.14-1.43,4.49-2.45,3.61-2.72,4.06-9.13-1.32-11.66-2.48-1.17-5.13-1.6-7.81-1.84-6.52-.57-13.06-1.01-19.57-1.62-4.69-.44-9.35-1.17-13.79-2.89-.3-.11-.93,0-1.07.22-3.02,4.62-7.62,6.42-12.79,7.16-1.88.27-3.8.37-5.71.38-8.31.04-16.62.02-24.94.01-.33,0-.65-.03-1.15-.06.5-.96.93-1.81,1.37-2.65.86-1.62,1.77-3.21,2.57-4.86.35-.72.8-.91,1.56-.91,6.96.03,13.93.06,20.89-.01,1.74-.02,3.53-.18,5.21-.63,3.8-1.01,5.57-3.31,5.92-7.24.47-5.37-2.13-8.88-7.41-9.9-1.17-.23-2.37-.37-3.56-.37-10.11-.03-20.22-.02-30.33-.02-1.56,0-1.99.44-1.99,2.01,0,14.53,0,29.06,0,43.58,0,2.38-.32,2.69-2.74,2.69-1.61,0-3.22.02-4.83,0-1.36-.02-1.9-.55-1.96-1.9-.03-.64,0-1.27,0-1.91,0-16.81,0-33.62,0-50.44,0-2.1.39-2.5,2.47-2.5,13.85,0,27.71-.03,41.56.02,4.22.01,8.26.84,11.78,3.37.81.58,1.51,1.32,2.32,2.05,2.81-2.4,6.09-3.98,9.62-5.05,5.14-1.57,10.43-1.92,15.76-1.85,6.43.08,12.77.8,18.85,3.03,2.13.78,4.19,1.78,6.24,2.78,1.31.64,1.51,1.46.83,2.77-.74,1.43-1.48,2.85-2.24,4.27-.59,1.09-1.18,1.32-2.28.77-4.9-2.45-10.07-4.01-15.49-4.65-6.35-.75-12.71-.91-18.94.81-1.65.46-3.33,1.24-4.69,2.27-2.92,2.2-2.68,6.06.3,8.18,2.36,1.68,5.13,2.04,7.87,2.32,6.14.62,12.3,1.03,18.44,1.61,5.98.57,11.85,1.67,17.23,4.54,3.35,1.79,5.49,4.54,6.34,8.27.04.18.09.35.18.67,2.18-4.12,4.29-8.11,6.4-12.1,4.04-7.64,8.08-15.27,12.1-22.91.42-.79.99-1.16,1.87-1.15,3.33.01,6.67.02,10,0,.93,0,1.5.39,1.94,1.22,6.62,12.58,13.26,25.14,19.89,37.7,2.74,5.19,5.47,10.39,8.2,15.58.82,1.56.4,2.25-1.32,2.25-2.06,0-4.12-.04-6.18.02-1.11.03-1.83-.41-2.32-1.39-1.66-3.31-3.39-6.58-5.02-9.9-.54-1.09-1.27-1.5-2.47-1.5-9.32.03-18.65.02-27.97.02-.41,0-.82,0-1.43,0,.75-1.43,1.43-2.73,2.12-4.04.61-1.16,1.28-2.28,1.83-3.47.35-.78.85-.96,1.66-.96,6.18.03,12.36.02,18.53.02,1.86,0,2.16-.51,1.29-2.14-3.93-7.44-7.86-14.87-11.79-22.32-.41-.77-.85-1.3-1.87-1.29-1.01,0-1.45.51-1.86,1.29-7.78,14.75-15.59,29.49-23.36,44.24-.55,1.04-1.25,1.47-2.4,1.44-2.02-.05-4.04,0-6.07-.01-1.86,0-2.2-.55-1.41-2.25.04-.09.05-.19.11-.43Z"/>
      <path class="cls-2" d="M109.29,171.58v-1.42h73.42v1.42h-73.42Z"/>
      <path class="cls-2" d="M109.71,184.52c.8,0,1.57-.01,2.35,0,2.39.04,4.79-.02,7.16.17,1.73.14,2.74,1.67,2.36,3.29-.15.61-.6,1.15-.88,1.67.38.52,1,1.05,1.23,1.72.62,1.8-.23,3.19-2.11,3.6-.79.17-1.63.19-2.45.19-2.53.02-5.06,0-7.66,0v-10.66ZM111.49,193.45c2.56,0,5.02.02,7.48-.01.75-.01,1.25-.44,1.27-1.27.03-.86-.41-1.42-1.23-1.44-2.49-.06-4.98-.02-7.52-.02v2.75ZM111.47,188.97c.93,0,1.74,0,2.56,0,1.46,0,2.92.02,4.37-.02.79-.02,1.38-.43,1.46-1.27.08-.79-.37-1.39-1.13-1.41-2.41-.07-4.83-.03-7.27-.03v2.73Z"/>
      <path class="cls-2" d="M161.42,195.08c-1.4.33-2.37-.03-3.3-1.1-2.15-2.48-4.45-4.82-6.85-7.39v8.51h-1.76v-10.46c1.16-.22,2.12-.23,3.02.81,1.98,2.29,4.1,4.45,6.16,6.67.25.27.45.58.67.87l.27-.14v-8.22h1.79v10.45Z"/>
      <path class="cls-2" d="M172.42,195.12h-1.85v-10.5h1.71v5.37c1.97-1.45,3.75-2.72,5.48-4.06,1.23-.96,2.43-1.86,4.26-1.21-1.76,1.31-3.44,2.57-5.19,3.88,1.94,2.14,3.86,4.25,5.89,6.5-1.35.21-2.34.17-3.21-.92-1.26-1.57-2.69-3-4.01-4.46-2.24,1.14-4.04,2.47-3.08,5.41Z"/>
      <path class="cls-2" d="M142.05,195.05c-1.4.41-2.26.02-2.63-1.26-.24-.83-.79-1.02-1.61-1-1.64.06-3.3.07-4.94,0-.82-.04-1.2.3-1.54.97-.75,1.5-.78,1.49-2.52,1.37.06-.21.08-.42.17-.59,1.6-3.04,3.24-6.06,4.79-9.13.4-.78.92-.9,1.7-.91.73,0,1.13.21,1.48.88,1.65,3.22,3.36,6.4,5.09,9.67ZM135.38,186.17c-.89,1.69-1.72,3.28-2.59,4.93h5.18c-.89-1.68-1.72-3.26-2.59-4.93Z"/>
    </g>
  </g>
</svg>