<?xml version="1.0" encoding="UTF-8"?>
<svg id="Layer_1" xmlns="http://www.w3.org/2000/svg" viewBox="0 0 290.81 290.81">
  <defs>
    <style>
      .cls-1 {
        fill: #fff;
      }

      .cls-2 {
        fill: #26cad3;
      }

      .cls-3 {
        fill: #f9be00;
      }

      .cls-4 {
        fill: #ff5000;
      }
    </style>
  </defs>
  <path class="cls-1" d="M0,0v290.81h290.81V0H0Z"/>
  <g>
    <path class="cls-4" d="M160.88,190.38l.22-.28.06-.08.18-.25.08-.13.13-.2.12-.19.08-.14.14-.25.05-.09.16-.32c.3-.65.52-1.33.65-2.03v-.05c0-.12.04-.25.06-.36s0-.14,0-.21v-.21c.03-.33.05-.65.04-.98v-78.31c0-5-4.05-9.04-9.04-9.04s-9.04,4.05-9.04,9.04h0v43.26l-26.18-47.57c-2.39-4.39-7.88-6.01-12.27-3.63-2.92,1.59-4.73,4.64-4.73,7.96v25.14c-.01,15.02-12.19,27.19-27.21,27.21v18.07c21.74-.03,40.4-15.47,44.5-36.82l27.06,48.97c.09.18.19.35.3.52l.08.13.23.34.13.18.26.33.2.23.14.14c.25.27.51.52.79.75l.14.11.25.19.2.14.3.2.33.21.15.09.37.2.09.05c.34.17.7.32,1.06.44.55.19,1.12.32,1.69.4h2.98l.34-.08h.14l.51-.14.5-.18h.07l.47-.2c.45-.21.88-.45,1.29-.73l.13-.08.22-.16.25-.19.08-.07.3-.25.3-.29.29-.3.37-.49Z"/>
    <path class="cls-2" d="M197.19,124.36l-14.28-22.17c-.26-.4-.7-.64-1.18-.64h-9.51c-.26,0-.47.21-.48.47,0,.09.03.19.08.27l14.88,23.11c.1.16.1.36,0,.52l-14.88,23.05c-.14.22-.09.51.13.66.08.05.17.08.27.08h9.51c.48,0,.92-.24,1.18-.64l14.27-22.11c.51-.79.51-1.8,0-2.59h0Z"/>
    <path class="cls-3" d="M200.12,128.88c-.14-.22-.43-.29-.65-.15-.06.04-.11.09-.15.15l-3.92,6.07c-.76,1.18-.76,2.71,0,3.89l6.68,10.32c.22.34.6.54,1.01.54h9.85c.2,0,.35-.16.35-.36,0-.07-.02-.14-.06-.19l-13.11-20.27Z"/>
    <path class="cls-4" d="M199.32,122.37c.14.22.43.29.65.15.06-.04.11-.09.15-.15l13.12-20.3c.11-.16.06-.38-.1-.49-.06-.04-.12-.06-.19-.06h-9.86c-.41,0-.78.2-1.01.54l-6.68,10.32c-.76,1.18-.76,2.71,0,3.89l3.92,6.1Z"/>
  </g>
</svg>