<?xml version="1.0" encoding="UTF-8"?>
<svg id="Layer_1" xmlns="http://www.w3.org/2000/svg" viewBox="0 0 290.81 290.81">
  <defs>
    <style>
      .cls-1 {
        fill: #fff;
      }

      .cls-2 {
        fill: #040404;
      }

      .cls-3 {
        fill: #e91919;
      }
    </style>
  </defs>
  <path class="cls-1" d="M0,0v290.81h290.81V0H0Z"/>
  <g id="o6O44S">
    <g>
      <path class="cls-2" d="M204.1,177.97h20.72c-1.13,3.92-3.04,7.12-5.01,10.24-12.4,19.59-29.95,32.26-52.5,37.26-24.32,5.39-46.95.72-67.31-13.84-13.75-9.84-23.53-22.81-29.17-38.73-4.19-11.82-5.76-23.94-4.29-36.59,2.2-18.88,10.05-34.95,23.15-48.33,11.86-12.1,26.34-19.86,43.11-23.06,5.7-1.09,11.45-1.99,17.25-1.7,31.89,1.6,56.26,15.71,72.17,43.72.78,1.37,2.04,2.7,1.55,4.9-6.48.19-13,1.27-19.75.87-2.91-4.25-5.99-8.35-9.69-11.96-10.29-10.05-22.47-16.14-36.77-17.98-21.97-2.83-40.55,4.08-55.74,19.88-8.93,9.29-14.09,20.56-16.22,33.42-5.35,32.25,17.08,63.87,48.88,71.08,26.15,5.93,54.04-5.22,68.42-27.51.36-.55.77-1.07,1.21-1.67Z"/>
      <path class="cls-2" d="M136.63,104.82c.65-1.09,1.73-.78,2.68-.79,6.33-.02,12.66.07,18.98-.06,2.2-.04,3.78.72,5.26,2.24,3.85,3.92,7.66,7.89,11.73,11.58,3.27,2.96,2.97,4.6,3.06,5.4.4,3.3-1.65,6.06-2.66,7.24-1.65,1.56-3.32,3.19-4.99,4.89-3.28,3.32-6.28,6.62-9.04,9.83,4.79,4.62,9.57,9.25,14.36,13.87.72.5,1.44,1.22,1.76,2.23.16.51.16.93.16,1.09-.03,7.79-.01,15.57-.01,23.62h-16.84v-24.14c-1.69-.01-3.38-.03-5.07-.04-6.31-5.63-12.61-11.25-18.92-16.88h23.48c.04-8.3.09-16.6.13-24.9-7.93.06-15.85.12-23.78.18-.1-5.12-.19-10.24-.29-15.36Z"/>
      <path class="cls-3" d="M136.63,104.82c.12,5.09.22,10.21.29,15.36.31,22.41.12,44.33-.51,65.74-7.11-6.49-12.32-11.35-14.24-13.1-.39-.36-1.37-1.25-1.97-2.73-.35-.85-.52-1.79-.51-2.89.09-15.46.05-30.93.05-46.62,5.63-5.25,11.26-10.5,16.89-15.75Z"/>
    </g>
  </g>
</svg>