<?xml version="1.0" encoding="UTF-8"?>
<svg id="Layer_1" xmlns="http://www.w3.org/2000/svg" viewBox="0 0 290.81 290.81">
  <defs>
    <style>
      .cls-1 {
        fill: #00bcff;
      }

      .cls-2 {
        fill: #fff;
      }

      .cls-3 {
        fill: #0a0080;
      }
    </style>
  </defs>
  <rect class="cls-2" width="290.81" height="290.81"/>
  <g>
    <path class="cls-1" d="M145.41,95.12c-40.88,0-74.04,21.23-74.04,47.36s33.16,49.43,74.04,49.43,74.04-23.23,74.04-49.43-33.16-47.36-74.04-47.36Z"/>
    <path class="cls-2" d="M121.28,127.86c-.07.07-.76.83-.28,1.45,1.17,1.45,4.69,2.27,8.27,1.52,2.14-.48,4.83-2.62,7.51-4.76,2.9-2.27,5.72-4.55,8.55-5.45,3.03-.97,4.96-.55,6.27-.14,1.38.41,3.03,1.38,5.72,3.31,4.96,3.72,24.89,21.16,28.4,24.13,2.76-1.24,15.99-6.62,32.74-10.27-1.45-8.96-6.82-17.44-15.1-24.13-11.51,4.83-26.47,7.72-40.26,1.03-.07,0-7.51-3.52-14.82-3.38-10.89.28-15.65,4.96-20.61,10l-6.41,6.69h0Z"/>
    <path class="cls-2" d="M184.84,149.78c-.21-.21-23.44-20.54-28.75-24.47-3.03-2.27-4.76-2.9-6.55-3.1-.9-.14-2.21.07-3.1.28-2.48.69-5.65,2.83-8.48,5.03-2.96,2.34-5.72,4.55-8.27,5.1-3.31.76-7.31-.14-9.17-1.38-.76-.48-1.24-1.1-1.52-1.65-.69-1.59.55-2.83.76-3.03l6.41-6.96c.76-.76,1.52-1.52,2.27-2.21-2.07.28-4,.83-5.86,1.31-2.34.62-4.55,1.24-6.82,1.24-.97,0-6-.83-6.96-1.1-5.79-1.59-12.41-3.1-19.99-6.69-9.1,6.76-15.03,15.1-16.82,24.47,1.31.34,4.76,1.1,5.65,1.31,20.61,4.62,27.02,9.31,28.19,10.27,1.24-1.38,3.1-2.27,5.1-2.27,2.27,0,4.34,1.17,5.58,2.9,1.17-.97,2.83-1.72,4.89-1.72.97,0,1.93.21,2.96.48,2.34.83,3.52,2.34,4.14,3.72.76-.34,1.72-.62,2.9-.62,1.1,0,2.27.28,3.45.76,3.79,1.65,4.41,5.38,4.07,8.2.28,0,.55-.07.83-.07,4.48,0,8.2,3.65,8.2,8.2,0,1.38-.34,2.69-.97,3.86,1.24.69,4.34,2.27,7.1,1.93,2.21-.28,3.03-1.03,3.31-1.45.21-.28.41-.62.21-.9l-5.79-6.48s-.97-.9-.62-1.24.9.14,1.31.48c2.96,2.48,6.55,6.2,6.55,6.2.07.07.28.48,1.65.76,1.17.21,3.17.07,4.62-1.1.34-.28.69-.69,1.03-1.03l-.07.07c1.52-1.93-.14-3.86-.14-3.86l-6.82-7.65s-.97-.9-.62-1.24c.28-.34.9.14,1.38.48,2.14,1.79,5.17,4.83,8.13,7.72.55.41,3.1,2,6.55-.21,2.07-1.38,2.48-3.03,2.41-4.27-.14-1.65-1.45-2.83-1.45-2.83l-9.31-9.31s-.97-.83-.62-1.24c.28-.34.9.14,1.31.48,2.96,2.48,10.96,9.79,10.96,9.79.14.07,2.9,2.07,6.27-.14,1.24-.76,2-1.93,2.07-3.31.07-2.14-1.59-3.52-1.59-3.52h0Z"/>
    <path class="cls-2" d="M139.82,161.57c-1.45,0-3.03.83-3.24.69-.14-.07.07-.62.21-.97.14-.34,2-6-2.55-8-3.52-1.52-5.72.21-6.41.97-.21.21-.28.21-.28-.07-.07-1.03-.55-3.79-3.58-4.76-4.34-1.31-7.17,1.72-7.86,2.83-.34-2.48-2.41-4.41-4.96-4.41-2.83,0-5.03,2.27-5.1,5.03,0,2.83,2.27,5.03,5.03,5.03,1.38,0,2.62-.55,3.52-1.38,0,0,.07.07,0,.14-.21,1.24-.62,5.79,4.14,7.65,1.93.76,3.52.21,4.89-.76.41-.28.48-.14.41.21-.21,1.17.07,3.65,3.58,5.1,2.69,1.1,4.27,0,5.31-.97.48-.41.55-.34.62.28.14,3.38,2.96,6.07,6.34,6.07s6.34-2.83,6.34-6.34c-.07-3.45-2.9-6.27-6.41-6.34h0Z"/>
    <path class="cls-3" d="M145.41,93.19c-41.64,0-75.42,22.13-75.42,49.36v2.9c0,28.82,29.5,52.18,75.42,52.18s75.42-23.37,75.42-52.18v-2.9c0-27.23-33.78-49.36-75.42-49.36h0ZM217.37,137.03c-16.41,3.65-28.61,8.96-31.71,10.27-7.17-6.27-23.71-20.61-28.19-23.99-2.55-1.93-4.27-2.96-5.86-3.38-.69-.21-1.65-.41-2.9-.41-1.17,0-2.34.21-3.65.62-2.9.9-5.79,3.24-8.55,5.45v.07c-2.62,2.07-5.31,4.21-7.31,4.69-.9.21-1.79.28-2.69.28-2.27,0-4.34-.69-5.1-1.65-.14-.14-.07-.41.28-.83l.07-.07,6.27-6.76c4.96-4.96,9.58-9.58,20.34-9.86h.55c6.69,0,13.37,2.96,14.06,3.31,6.27,3.03,12.68,4.62,19.23,4.62s13.72-1.65,21.03-5.03c7.51,6.48,12.62,14.27,14.13,22.68h0ZM145.41,96.08c22.13,0,41.91,6.34,55.22,16.34-6.41,2.76-12.55,4.21-18.47,4.21s-12.13-1.45-17.99-4.34c-.28-.14-7.65-3.65-15.37-3.65h-.62c-9.03.21-14.06,3.38-17.51,6.2-3.31.07-6.2.9-8.75,1.59-2.27.62-4.21,1.17-6.14,1.17-.76,0-2.21-.07-2.34-.07-2.21-.07-13.24-2.76-22.06-6.07,13.37-9.44,32.61-15.37,54.05-15.37h0ZM88.88,113.38c9.17,3.79,20.34,6.69,23.92,6.89.97.07,2,.21,3.1.21,2.34,0,4.69-.69,6.96-1.31,1.31-.34,2.83-.76,4.34-1.1-.41.41-.83.83-1.24,1.24l-6.41,6.89c-.48.48-1.59,1.86-.9,3.52.28.69.9,1.31,1.65,1.86,1.52,1.03,4.27,1.72,6.76,1.72.97,0,1.86-.07,2.69-.28,2.69-.62,5.51-2.83,8.48-5.24,2.34-1.86,5.72-4.27,8.34-4.96.76-.21,1.59-.34,2.34-.34.21,0,.41,0,.62.07,1.72.21,3.38.83,6.27,3.03,5.24,3.93,28.47,24.27,28.68,24.47,0,0,1.52,1.31,1.38,3.45-.07,1.17-.69,2.21-1.86,2.96-.97.62-2,.97-3.03.97-1.59,0-2.62-.76-2.69-.76-.07-.07-8.07-7.38-10.96-9.86-.48-.41-.9-.76-1.38-.76-.28,0-.48.14-.62.28-.48.55.07,1.38.69,1.86l9.31,9.38s1.17,1.1,1.31,2.55c.07,1.52-.69,2.83-2.21,3.86-1.1.76-2.21,1.1-3.31,1.1-1.45,0-2.41-.62-2.62-.83l-1.31-1.31c-2.41-2.41-4.96-4.89-6.82-6.41-.48-.34-.9-.69-1.38-.69-.21,0-.41.07-.62.28-.21.21-.34.62.14,1.38.21.28.48.55.48.55l6.76,7.65c.07.07,1.38,1.65.14,3.24l-.28.28c-.21.21-.41.41-.62.62-1.17.97-2.69,1.03-3.31,1.03-.34,0-.62,0-.9-.07-.69-.14-1.1-.28-1.31-.55l-.07-.07c-.34-.41-3.79-3.86-6.62-6.2-.34-.34-.83-.69-1.31-.69-.21,0-.41.07-.62.28-.55.62.28,1.52.62,1.86l5.79,6.41c0,.07-.07.21-.21.41-.21.28-.9.97-3.03,1.24-.28,0-.48.07-.76.07-2.14,0-4.48-1.03-5.65-1.65.55-1.17.83-2.41.83-3.65,0-4.76-3.86-8.62-8.62-8.62h-.28c.14-2.21-.14-6.27-4.41-8.13-1.24-.55-2.41-.83-3.58-.83-.9,0-1.79.14-2.62.48-.9-1.72-2.34-2.96-4.21-3.58-1.03-.34-2.07-.55-3.1-.55-1.79,0-3.38.55-4.83,1.52-1.38-1.72-3.45-2.76-5.65-2.76-1.93,0-3.79.76-5.17,2.14-1.79-1.38-8.96-5.93-28.06-10.27-.9-.21-2.96-.83-4.27-1.17,1.65-8.75,7.1-16.61,15.23-23.09h0ZM124.31,163.23l-.21-.21h-.21c-.14,0-.34.07-.55.21-.97.69-1.93,1.03-2.83,1.03-.55,0-1.03-.14-1.59-.28-4.41-1.72-4.07-5.93-3.86-7.17,0-.28,0-.48-.21-.62l-.34-.28-.28.28c-.9.83-2,1.31-3.17,1.31-2.55,0-4.62-2.07-4.62-4.62s2.07-4.62,4.62-4.62c2.27,0,4.27,1.72,4.55,4l.14,1.24.69-1.03c.07-.14,1.93-2.96,5.38-2.96.62,0,1.31.14,2,.34,2.76.83,3.17,3.31,3.24,4.34.07.62.48.62.55.62.21,0,.41-.14.55-.28.48-.55,1.65-1.45,3.38-1.45.83,0,1.65.21,2.55.55,4.34,1.86,2.34,7.38,2.34,7.45-.34.9-.41,1.31-.07,1.52l.14.07h.14c.21,0,.41-.07.83-.21.62-.21,1.45-.48,2.34-.48h0c3.24.07,5.93,2.69,5.93,5.93s-2.69,5.93-5.93,5.93-5.79-2.48-5.93-5.65c0-.28-.07-.97-.62-.97-.28,0-.48.14-.69.34-.69.62-1.59,1.31-2.9,1.31-.62,0-1.24-.14-1.93-.41-3.38-1.38-3.45-3.65-3.31-4.62,0-.21.07-.41-.14-.62h0ZM145.41,188.87c-40.05,0-72.52-20.75-72.52-46.39,0-1.03.07-2.07.21-3.1.34.07,3.52.83,4.14.97,19.51,4.34,25.99,8.82,27.09,9.72-.34.9-.55,1.86-.55,2.83,0,4.07,3.31,7.31,7.31,7.31.48,0,.9-.07,1.38-.14.62,2.96,2.55,5.24,5.51,6.41.9.34,1.72.48,2.62.48.55,0,1.1-.07,1.65-.21.55,1.38,1.79,3.1,4.55,4.27.97.41,1.93.62,2.9.62.76,0,1.52-.14,2.21-.41,1.31,3.24,4.48,5.38,8,5.38,2.34,0,4.55-.97,6.2-2.62,1.38.76,4.34,2.21,7.31,2.21.41,0,.76,0,1.1-.07,2.96-.34,4.34-1.52,4.96-2.41.14-.14.21-.34.28-.48.69.21,1.45.34,2.34.34,1.59,0,3.17-.55,4.76-1.65,1.52-1.1,2.62-2.69,2.76-4.07v-.07c.55.14,1.03.14,1.59.14,1.65,0,3.31-.48,4.83-1.52,3.03-2,3.52-4.55,3.52-6.2.55.14,1.03.14,1.59.14,1.59,0,3.1-.48,4.55-1.38,1.86-1.17,2.96-3.03,3.17-5.17.14-1.45-.28-2.9-1.03-4.14,5.03-2.14,16.54-6.34,30.06-9.44.07.76.07,1.52.07,2.34,0,25.58-32.47,46.33-72.52,46.33h0Z"/>
  </g>
</svg>