<?xml version="1.0" encoding="UTF-8"?>
<svg id="Layer_1" xmlns="http://www.w3.org/2000/svg" viewBox="0 0 290.81 290.81">
  <defs>
    <style>
      .cls-1 {
        fill: #fff;
      }

      .cls-2 {
        fill: #5d4ffc;
      }
    </style>
  </defs>
  <rect class="cls-2" width="290.81" height="290.81"/>
  <g>
    <path class="cls-1" d="M186.39,82.99h-105.7v42.08h8v-34.08h97.7c8.23,0,15.72,6.71,15.72,14.16v65.86h-38.67c-25.29,0-45.88-20.59-45.88-45.88h-8c0,29.71,24.17,53.89,53.89,53.89h46.67v-73.81c0-11.81-11.08-22.16-23.73-22.16"/>
    <path class="cls-1" d="M163.45,142.13c-9.4,0-17.07-7.67-17.07-17.07h-8c0,13.82,11.25,25.07,25.07,25.07v-8Z"/>
    <path class="cls-1" d="M88.69,125.07h-8c0,45.6,37.1,82.76,82.76,82.76v-8c-41.24,0-74.76-33.52-74.76-74.76"/>
  </g>
</svg>