<?xml version="1.0" encoding="UTF-8"?>
<svg id="Layer_1" xmlns="http://www.w3.org/2000/svg" viewBox="0 0 290.81 290.81">
  <defs>
    <style>
      .cls-1 {
        fill: #cc3631;
        fill-rule: evenodd;
      }

      .cls-2 {
        fill: #fff;
      }
    </style>
  </defs>
  <rect class="cls-2" width="290.81" height="290.81"/>
  <g id="Layer_x5F_1">
    <path class="cls-1" d="M0,0h290.81v290.81H0V0ZM202.06,63.63c0-.24-.2-.44-.44-.44h-8.18c-.24,0-.44.2-.44.44v24.82c0,.24.2.44.44.44h8.18c.24,0,.44-.2.44-.44v-24.82ZM242.08,74.71c.07-.07.11-.17.11-.27s-.04-.21-.12-.28l-5.82-5.8c-.07-.07-.17-.11-.28-.11s-.2.04-.28.11l-23.19,23.27c-.07.07-.11.17-.11.28s.04.2.11.28l5.82,5.8c.07.07.17.11.27.11s.21-.04.28-.12l23.19-23.27ZM60.31,126.15c-7.88-3.62-10.91-13.98-6.84-21.5,6.17-11.42,21.38-10.81,27.49.59.07.13.2.21.35.21h.01l9.86-.12c.19,0,.25-.1.21-.27-4.97-18.17-27.6-24.74-41.07-12.16-6.35,5.92-9.55,14.1-8.28,22.77,1.84,12.59,12.58,22.32,25.49,22.02,11.45-.27,20.41-7.48,23.9-18.45.07-.25-.02-.37-.27-.37h-9.9c-.19,0-.33.09-.43.26-4.12,7.86-12.63,10.66-20.52,7.04ZM106.34,86.82c0-.19-.16-.35-.35-.35h-9.36c-.19,0-.35.16-.35.35v50.66c0,.19.16.35.35.35h9.36c.2,0,.35-.16.35-.35v-50.66ZM135.89,134.19v3.29c0,.21.1.31.31.31l9.36-.07c.17,0,.26-.09.26-.26.03-10.12.02-20.24-.02-30.35-.04-10.45-15.18-11.74-22.46-10.06-6.77,1.57-10.28,5.96-10.53,13.19,0,.16.07.24.23.24h9.37c.14,0,.27-.11.29-.26.59-5.78,6.84-6.22,11.03-4.38,2.8,1.23,2.4,5.59-.98,6.2-10.06,1.8-21.68,2-20.75,15.99.81,12.22,16.09,11.36,23.66,6.05.16-.12.25-.08.25.12ZM161.74,102.82v-4.13c0-.16-.13-.29-.28-.29h-8.81c-.19,0-.28.1-.28.29v38.57c0,.32.16.49.48.48h9.01c.17-.01.25-.09.26-.26.1-6.07.16-12.15.18-18.23.01-2.91.29-5.05.82-6.4,2.03-5.12,6.54-6.43,11.81-6.05h.02c.15,0,.28-.12.28-.28h0s-.17-9.57-.17-9.57c0-.16-.08-.23-.24-.23-5.24.15-9.49,2.22-12.76,6.21-.23.27-.34.23-.34-.12ZM217.03,117.32c0-11.39-9.24-20.62-20.62-20.62s-20.62,9.24-20.62,20.62,9.23,20.62,20.62,20.62,20.62-9.23,20.62-20.62ZM249.05,108.35h0c0-.15-.12-.28-.28-.28l-25.69-.04h0c-.15,0-.28.12-.28.28v8.26h-.01c0,.16.12.28.28.28l25.69.04h0c.16,0,.28-.12.28-.28v-8.26ZM95.09,175.24c.19-.41.51-.61.95-.6,5.47.06,10.73.05,15.76-.01,4.59-.06,7.94-.43,10.04-1.1,10.53-3.36,13.6-13.41,17.68-22.5,1.3-2.91-.4-4.61-3.26-4.62-12.18-.01-24.36,0-36.53,0-1.37,0-3.08,1.56-3.73,2.95-5.57,11.95-11.04,23.9-16.41,35.84-.02.05-.03.1-.03.15,0,.2.16.36.36.36,2.48.03,8.33.64,10.26-.99,1.9-1.6,3.87-7.2,4.92-9.5ZM147.42,156.02c.24.31.56.46.95.46h29.12c.55,0,1,.45,1,1,0,.03,0,.07,0,.1-.27,2.73-1.65,3.45-4.31,3.45-8.85,0-17.69,0-26.53,0-2.92,0-4.21.86-5.39,3.38-2.1,4.49-4.16,9-6.17,13.52-2.2,4.94-.11,7.81,5.16,7.81,10.64,0,21.28,0,31.92-.01,1.78,0,3.92-.58,4.64-2.13,5.43-11.69,10.77-23.37,16.02-35.03.09-.2.13-.41.13-.63,0-.85-.69-1.53-1.53-1.53-12.63,0-25.34,0-38.14,0-5.1,0-5.93,4.48-7.6,8.25-.08.19-.06.36.07.52l.65.84ZM243.62,146.5c-3.3-.12-11.37-.95-14.11.94-4.43,3.04-8.83,6.08-13.19,9.1-.08.05-.17.08-.27.08-.16,0-.32-.08-.4-.22-1.71-2.73-3.51-5.4-5.41-8-2.14-2.94-7.21-2.01-10.31-1.98-.83.01-1.5.69-1.5,1.52,0,.3.09.59.25.84l11.02,16.53c.05.07.06.17.02.25l-9.08,19.74s-.03.08-.03.12c0,.17.13.3.3.3,2.99.03,10.03.97,11.53-2.27,2.71-5.86,5.42-11.72,8.11-17.6.08-.18.21-.32.36-.43,7.68-5.29,15.37-10.57,23.07-15.84.58-.4.93-.8,1.03-1.22.03-.12.05-.25.05-.37,0-.81-.64-1.47-1.45-1.5ZM97.11,233.68c-1.86,3.61-3.69,7.24-5.47,10.88-3.31,6.78,2.44,9.23,8.07,8.25.18-.03.31-.13.39-.29l2.29-4.22s.04-.1.04-.16c0-.17-.14-.32-.32-.32l-3.67-.02c-.71,0-1.29-.58-1.29-1.29,0-.21.05-.41.14-.59l6.17-11.94c.16-.31.42-.47.77-.46l3.91.07c.24,0,.42-.1.54-.31l2.39-4.34s.02-.03.02-.05c.03-.12-.04-.25-.16-.28-.02,0-.04,0-.06,0h-4.11c-.28,0-.36-.13-.23-.38l3.15-6.06c.13-.25.05-.37-.23-.37h-5.81c-.2,0-.34.08-.43.26l-3.28,6.14c-.09.17-.23.26-.41.26l-3.64.05c-.22,0-.39.11-.49.3l-2.26,4.27s-.02.04-.03.07c-.04.17.06.35.23.39.03,0,.05,0,.08,0l3.55-.07c.16,0,.2.06.12.2ZM140.78,221.8c-.08,0-.16.04-.2.12l-16.1,30.36s-.03.07-.03.11c0,.13.1.23.22.23h6.17c.08,0,.16-.04.2-.12l15.94-30.36s.03-.07.03-.11c0-.13-.1-.23-.22-.23h-6.02ZM193.64,221.8h0c-.07,0-.13.04-.16.1l-16.1,30.46s-.02.05-.02.08c0,.1.08.17.17.17h6.19c.07,0,.13-.04.16-.1l16.03-30.46s.02-.05.02-.08c0-.1-.08-.17-.17-.17h-6.12ZM104.79,244.93c-1.97,5.18,2.35,8.12,7.12,8.06,3.91-.05,6.67-.15,8.29-.31.23-.02.39-.13.5-.34l2.26-4.29s.02-.04.02-.06c.02-.12-.05-.23-.17-.26-.02,0-.03,0-.05,0-3.37.18-6.75.25-10.15.22-.76,0-1.35-.32-1.78-.95-.12-.18-.14-.36-.07-.56l1.15-3.17c.08-.21.23-.32.45-.32h14.13c.16,0,.28-.07.36-.21,2.75-5.09,7.45-12.59-2.08-14.1-11.35-1.8-16.43,7-19.98,16.29ZM149.03,236.51c2.7-4.04,7.36-2.67,11.45-2.69.2,0,.35-.1.45-.27l2.35-4.53c.11-.21.05-.32-.19-.34-3.01-.27-6.04-.32-9.07-.15-7.02.39-9.75,4.09-13.1,9.84-2.35,4.01-5.55,10.15-1.23,13.21,3.05,2.17,9.03,1.57,12.89.97.2-.03.36-.15.45-.32l2.13-4.18c.14-.26.06-.38-.24-.34-3.34.4-6.69.44-10.05.11-.19-.02-.34-.1-.46-.25-1.38-1.7,3.1-8.78,4.62-11.06ZM164.41,247.47c-.25-.02-.43-.22-.43-.47,0-.05,0-.11.02-.16l1.27-3.63c.06-.17.18-.25.36-.25h14.12c.17,0,.29-.07.38-.22,1.9-3.21,5.35-8.53,2.92-11.51-4.43-5.43-14.94-2.7-18.86,2.52-2.39,3.19-6.84,10.42-6.33,14.51.76,6.14,11.04,4.96,15.77,4.24.2-.03.35-.14.45-.32l2.09-4s.02-.06.02-.1c0-.12-.09-.21-.21-.21h0l-10.76.1c-.15,0-.27-.07-.35-.19-.11-.19-.27-.29-.48-.31ZM207.12,117.3c0-5.93-4.8-10.73-10.73-10.73s-10.73,4.8-10.73,10.73,4.8,10.73,10.73,10.73,10.73-4.8,10.73-10.73ZM126.92,130.6c-5.29.27-6.85-5.96-3.33-8.77.65-.52,2.01-1.01,4.1-1.47,2.5-.55,4.96-1.26,7.38-2.15.17-.07.26,0,.26.18.01,6.49-.26,11.78-8.4,12.2ZM111.23,164.46c-3.63-.03-7.25.03-10.86.18h-.01c-.14,0-.26-.11-.26-.25,0-.04,0-.08.02-.11l3.39-7.45c.1-.21.31-.34.53-.34h20.21s.07,0,.1,0c.53.06.91.53.86,1.06,0,.03,0,.07-.02.1-1.68,7.71-7.83,6.87-13.96,6.81ZM149,175.16l-.23-.44c-.08-.15-.09-.31-.01-.47l1.33-2.86c.08-.17.25-.28.44-.29,6.6,0,13.2,0,19.78,0,1.15,0,1.6.59,1.39,1.7-.45,2.3-1.51,2.98-3.88,2.98-6.32,0-12.24,0-17.76,0h0c-.44,0-.85-.25-1.06-.64h0ZM124.02,234.07c.25.15.4.43.4.72,0,.13-.03.25-.08.36l-1.36,2.84c-.09.18-.24.28-.44.28h-7.79c-.15,0-.2-.07-.13-.22,1.56-3.4,5.68-6.24,9.41-3.98ZM177.08,233.81c.41.18.68.59.68,1.04,0,.18-.04.35-.12.51l-1.32,2.62c-.1.19-.25.29-.46.29h-7.71c-.17,0-.22-.08-.15-.23,1.55-3.4,5.29-5.88,9.09-4.24Z"/>
  </g>
</svg>