<?xml version="1.0" encoding="UTF-8"?>
<svg id="Layer_1" xmlns="http://www.w3.org/2000/svg" viewBox="0 0 290.81 290.81">
  <defs>
    <style>
      .cls-1 {
        fill: #fff;
      }

      .cls-2 {
        fill: #6d00f7;
      }
    </style>
  </defs>
  <rect class="cls-1" width="290.81" height="290.81"/>
  <path class="cls-2" d="M166.99,145.41l31.44-32.69c5.94-6.17,5.75-16.07-.43-22-6.17-5.94-16.07-5.75-22,.43l-30.61,31.82-30.61-31.82c-5.94-6.17-15.84-6.37-22-.43-6.17,5.94-6.37,15.84-.43,22l31.44,32.69-31.44,32.69c-5.94,6.17-5.75,16.07.43,22,6.17,5.94,16.07,5.75,22-.43l30.61-31.82,30.61,31.82c5.94,6.17,15.84,6.37,22,.43,6.17-5.94,6.37-15.84.43-22l-31.44-32.69h0ZM192.74,194.64c-1.47,1.42-3.45,2.21-5.52,2.21-2.19,0-4.24-.87-5.75-2.42l-35.44-36.58v-24.86l35.44-36.57c1.51-1.57,3.55-2.44,5.75-2.44,2.08,0,4.04.79,5.53,2.21,3.18,3.04,3.27,8.12.21,11.28l-31.44,32.69c-2.83,2.93-2.83,7.58,0,10.51l31.44,32.69c3.05,3.19,2.94,8.23-.23,11.29Z"/>
</svg>