<?xml version="1.0" encoding="UTF-8"?>
<svg id="Layer_1" xmlns="http://www.w3.org/2000/svg" viewBox="0 0 290.81 290.81">
  <defs>
    <style>
      .cls-1 {
        fill: #032a9a;
      }

      .cls-2 {
        fill: #fff;
      }

      .cls-3 {
        fill: #fe5874;
      }
    </style>
  </defs>
  <path class="cls-2" d="M0,0v290.81h290.81V0H0Z"/>
  <g>
    <path class="cls-1" d="M67.85,133.86c.3-.5.26-1.08.39-1.62,1.58-6.64,7.75-11.38,14.48-11.1,6.99.29,12.65,5.36,13.82,12.15.65,3.81.9,7.68,1.65,11.48,1.57,7.9,3.97,15.5,7.55,22.73-.06.24.11.41.21.6,1.23,2.35,2.84,4.4,4.79,6.19,7.41,6.8,18.28,7.98,27,2.94.22-.13.41-.34.71-.29-.34.54-.91.79-1.41,1.13-4.32,2.98-9.02,4.98-14.26,5.64-.78.1-1.58.04-2.34.3h-7.23c-.07-.21-.26-.12-.39-.13-2.73-.22-5.44-.58-8.11-1.18-9.49-2.14-17.81-6.41-24.57-13.5-6.9-7.23-10.66-15.92-11.9-25.77-.12-.91-.06-1.85-.37-2.74v-6.83Z"/>
    <path class="cls-3" d="M138.43,176.94c-.3-.06-.49.16-.71.29-8.72,5.04-19.59,3.86-27-2.94-1.95-1.79-3.56-3.84-4.79-6.19-.1-.19-.27-.35-.21-.6,1.89-.68,3.57-1.75,5.17-2.93,3.59-2.65,6.53-5.94,9.26-9.43,4-5.1,7.47-10.57,11.03-15.98,4.01-6.08,8.06-12.14,12.88-17.63,2.61-2.97,5.43-5.74,8.7-8,.35.02.62-.19.9-.34,4.28-2.27,8.84-3.12,13.63-2.53,5.16.64,9.61,2.82,13.31,6.47,1.72,1.69,3.19,3.59,4.22,5.79-2.53.83-4.73,2.24-6.75,3.95-3.33,2.83-6.01,6.22-8.51,9.77-3.91,5.52-7.34,11.34-11.02,17.01-3.23,4.97-6.59,9.85-10.5,14.32-2.33,2.66-4.86,5.11-7.56,7.41-.66.56-1.37,1.04-2.06,1.57Z"/>
    <path class="cls-1" d="M184.83,122.92c-1.03-2.21-2.5-4.1-4.22-5.79-3.7-3.65-8.15-5.83-13.31-6.47-4.8-.59-9.35.26-13.63,2.53-.29.15-.55.36-.9.34,1.94-1.56,4.1-2.77,6.34-3.84,4.02-1.91,8.28-2.74,12.7-2.87,6.82-.2,13.49.64,19.95,2.87,10.38,3.58,18.73,9.79,24.53,19.21,3.47,5.63,5.45,11.78,6.27,18.32.37,2.92.46,5.84.37,8.77-.18,6.48-5.44,12.38-11.84,13.46-8.15,1.37-15.55-4.15-16.84-12.08-.55-3.37-.79-6.77-1.4-10.12-1.53-8.36-4.03-16.39-7.81-24.01-.06-.11-.14-.22-.21-.32Z"/>
  </g>
</svg>