<?xml version="1.0" encoding="UTF-8"?>
<svg id="Layer_1" xmlns="http://www.w3.org/2000/svg" xmlns:xlink="http://www.w3.org/1999/xlink" viewBox="0 0 290.81 290.81">
  <defs>
    <style>
      .cls-1 {
        filter: url(#drop-shadow-1);
      }

      .cls-2 {
        fill: #f3c142;
      }

      .cls-3 {
        fill: #1b1b1b;
      }
    </style>
    <filter id="drop-shadow-1" filterUnits="userSpaceOnUse">
      <feOffset dx="0" dy="0"/>
      <feGaussianBlur result="blur" stdDeviation="5"/>
      <feFlood flood-color="#eac52d" flood-opacity=".32"/>
      <feComposite in2="blur" operator="in"/>
      <feComposite in="SourceGraphic"/>
    </filter>
  </defs>
  <rect class="cls-3" width="290.81" height="290.81"/>
  <g class="cls-1">
    <path class="cls-2" d="M133.06,148.46h-18.7c-2.4,0-4.3-1.9-4.3-4.3s1.9-4.3,4.3-4.3h18.7c2.4,0,4.3,1.9,4.3,4.3,0,2.3-1.9,4.3-4.3,4.3ZM114.36,128.96c-2.4,0-4.3-1.9-4.3-4.3s1.9-4.3,4.3-4.3h24.5c2.4,0,4.3,1.9,4.3,4.3s-1.9,4.3-4.3,4.3h-24.5ZM142.36,171.16c-2.3-.7-3.6-3.1-2.9-5.4l13.2-43.2c.7-2.3,3.1-3.6,5.4-2.9,2.3.7,3.6,3.1,2.9,5.4l-13.3,43.2c-.7,2.3-3.1,3.6-5.3,2.9ZM180.56,125.06l-13.2,43.2c-.7,2.3-3.1,3.6-5.4,2.9s-3.6-3.1-2.9-5.4l13.2-43.2c.7-2.3,3.1-3.6,5.4-2.9,2.3.7,3.6,3.2,2.9,5.4Z"/>
    <path class="cls-2" d="M145.41,205.41c-33.1,0-59.9-26.9-59.9-60s26.8-60,59.9-60,59.9,26.9,59.9,60c0,33-26.8,60-59.9,60ZM145.41,93.01c-28.8,0-52.3,23.5-52.3,52.3s23.5,52.4,52.3,52.4,52.3-23.5,52.3-52.4c0-28.8-23.5-52.3-52.3-52.3Z"/>
  </g>
</svg>