<?xml version="1.0" encoding="UTF-8"?>
<svg id="Layer_1" xmlns="http://www.w3.org/2000/svg" viewBox="0 0 290.81 290.81">
  <defs>
    <style>
      .cls-1 {
        fill: #02f7ad;
      }

      .cls-2 {
        fill: #3801f7;
      }
    </style>
  </defs>
  <rect class="cls-2" width="290.81" height="290.81"/>
  <path class="cls-1" d="M145.44,170.7c-27.34-.01-51.66-8.72-73.18-25.46-6-4.67-6.03-5.95-.81-11.7,3.03-3.33,6.22-6.52,9.06-10,3.41-4.17,6.43-4.22,10.86-.98,30.35,22.17,62.53,24.63,96.13,8.02,4.57-2.26,8.81-5.32,12.85-8.46,3.91-3.04,6.81-2.54,9.88,1.08,3.32,3.92,6.81,7.72,10.41,11.38,3.77,3.84,3.2,6.8-.92,10.04-21.82,17.14-46.44,26.14-74.29,26.09Z"/>
</svg>