<?xml version="1.0" encoding="UTF-8"?>
<svg id="Layer_1" xmlns="http://www.w3.org/2000/svg" viewBox="0 0 290.81 290.81">
  <defs>
    <style>
      .cls-1 {
        fill: #fff;
      }

      .cls-2 {
        fill: #1827a4;
      }
    </style>
  </defs>
  <path class="cls-2" d="M0,0v290.81h290.81V0H0Z"/>
  <path class="cls-1" d="M163.59,121.19c7.47-2.76,14.9-3.7,22.59-1.51,14.99,4.27,24.48,17.78,23.87,33.57-.15,3.82-1.23,15-10.31,23.21-1.52,1.38-3.07,2.49-4.56,3.4-3.34,2.03-7.2,3.03-11.1,3.01-26.25-.14-52.5-.28-78.75-.41-3.47-.02-6.91-.83-9.96-2.5-3.15-1.73-6.84-4.48-9.8-8.8-1.49-2.18-5.26-7.67-4.8-14.86.87-13.39,15.88-22.18,19.12-22.76,2.91-.52,4.21-1.87,5.25-4.43,4.76-11.62,13.14-19.06,25.78-20.8,11.15-1.54,20.85,2.04,29.18,9.49,1.09.98,2.1,2.04,3.48,3.39ZM115.47,176.52c1.46.11,2.55.27,3.65.27,19.74.01,39.48.09,59.22-.03,12.99-.08,21.97-8.02,24.28-21.13,2.01-11.37-4.83-23.58-15.68-27.77-9.95-3.85-19.06-1.6-27.52,4.25-8.11,5.61-14.51,12.9-19.92,21.05-6.02,9.08-13.06,17.04-22.96,22.05-.33.17-.51.61-1.06,1.31ZM129.26,154.78c-5.98-5.57-11.91-10.78-19.52-13.52-6.48-2.33-12.18-.58-16.93,4.17-4.73,4.73-5.86,13.58-2.7,19.25,3.21,5.76,9.14,7.92,16.79,6.04,9.44-2.33,16.2-8.41,22.36-15.94ZM133.98,147.79c6.18-8.53,13.15-16.65,22.17-22.7-5.46-7.44-16.98-11.31-26.28-9.01-9.17,2.27-16.84,9.85-17.85,16.97,7.32,4.91,14.37,9.64,21.96,14.73Z"/>
</svg>