<?xml version="1.0" encoding="UTF-8"?>
<svg id="Layer_1" xmlns="http://www.w3.org/2000/svg" viewBox="0 0 290.81 290.81">
  <defs>
    <style>
      .cls-1 {
        fill: #6eeb78;
      }

      .cls-2 {
        fill: #0e0e0e;
      }
    </style>
  </defs>
  <path class="cls-2" d="M0,0v290.81h290.81V0H0Z"/>
  <path class="cls-1" d="M145.41,97.22c-26.43,0-48.19,21.75-48.19,48.19s21.75,48.19,48.19,48.19,48.19-21.75,48.19-48.19v-.02c0-26.42-21.74-48.16-48.16-48.16h-.02ZM170.75,147.68c-.33.26-.69.48-1.06.67-.43.18-.88.31-1.34.39-1.05.17-2.12.17-3.17,0-2.36-.5-4.62-1.4-6.67-2.67-2.15-1.31-4.16-2.84-6-4.56-.95-.83-1.83-1.77-2.72-2.72-.89-.95-1.72-2-2.5-2.94-.18-.26-.48-.42-.8-.42-.21,0-.42.07-.58.19-.48.31-.63.96-.33,1.44.72,1.11,1.5,2.22,2.33,3.34.83,1.11,1.67,2.13,2.56,3.17,1.83,2.07,3.88,3.93,6.11,5.56,2.29,1.76,4.86,3.12,7.61,4,.94.27,1.91.46,2.89.56.39.04.69.38.67.78-.01.12-.05.23-.11.33-1.61,2.68-3.55,5.14-5.78,7.33-6.07,6.36-14.39,10.09-23.18,10.39-3.28.06-6.52-.62-9.49-2l-.67-.33c-.22-.11-.48-.11-.71,0l-.61.39c-1.01.66-2.19,1.02-3.39,1.06-.99.04-1.95-.32-2.67-1-1.28-1.73-1.28-4.11,0-5.84l.39-.67c.11-.22.11-.48,0-.71l-.35-.7c-3.39-6.34-3.11-14.67.33-22.4.11-.27.37-.45.66-.45.1,0,.2.02.29.06.18.07.32.21.39.39.62,1.61,1.4,3.15,2.33,4.6,1.54,2.27,3.31,4.37,5.28,6.28.95.94,2,1.89,3,2.72,1,.84,2.12,1.72,3.22,2.5.16.09.34.14.53.14.58,0,1.06-.48,1.06-1.06,0-.25-.09-.5-.25-.69-.95-.84-1.89-1.72-2.83-2.61-.89-.95-1.77-1.89-2.61-2.83-1.62-1.94-3.04-4.05-4.23-6.28-1.16-2.11-1.95-4.4-2.33-6.78-.17-1.06-.17-2.13,0-3.19.1-.42.23-.83.39-1.22,0-.11.17-.28.22-.39.71-.83,1.44-1.66,2.22-2.44,10-10,23.68-13.23,33.35-8l.71.39c.23.17.55.17.78,0l.67-.45c1.79-1.44,4.36-1.48,6.18-.08,1.44,1.9,1.37,4.56-.17,6.37l-.44.67c-.16.21-.16.5,0,.71l.33.71c2.51,5.8,2.69,12.35.5,18.28h0Z"/>
</svg>