<?xml version="1.0" encoding="UTF-8"?>
<svg id="Layer_1" xmlns="http://www.w3.org/2000/svg" viewBox="0 0 290.81 290.81">
  <defs>
    <style>
      .cls-1 {
        fill: #012226;
      }

      .cls-2 {
        fill: #fff;
      }
    </style>
  </defs>
  <rect class="cls-1" width="290.81" height="290.81"/>
  <g id="uzZK8e.tif">
    <path class="cls-2" d="M216.04,174.25c-.11,10.82-3.53,20.13-10.61,27.97-6.33,7.01-14.11,11.65-23.51,13.21-8.69,1.44-17.11.35-25.14-3.31-2.06-.94-4.04-2.09-6.01-3.22-1.99-1.14-4.07-1.55-6.36-1.36-8.68.71-17.12-.49-25.3-3.43-7.19-2.58-13.84-6.16-19.8-10.96-6.45-5.2-11.66-11.47-15.85-18.6-2.36-4.03-4.33-8.24-5.78-12.69-1.42-4.34-2.34-8.78-2.59-13.35-.16-2.92-.35-5.84-.32-8.76.1-9.27,1.92-18.17,5.96-26.58,2.93-6.12,6.55-11.77,11.12-16.78,4.33-4.75,9.26-8.8,14.74-12.17,6.01-3.71,12.44-6.42,19.39-7.73,3.33-.63,6.72-.95,10.1-1.3,2.26-.24,4.54-.42,6.81-.39,9.48.14,18.56,2.08,27.13,6.24,5.64,2.73,10.74,6.23,15.38,10.42,4.4,3.98,8.37,8.35,11.68,13.29,4.8,7.16,8.02,14.96,9.24,23.5.45,3.14.56,6.33.77,9.5.21,3.13.31,6.27.53,9.4.13,1.87,1.09,3.43,2.05,4.99,3.6,5.85,5.69,12.21,6.21,19.08.08,1.1.12,2.21.16,3.03ZM174.82,133.28c-3.55,0-6.5.31-9.41.98-8.59,1.99-15.7,6.49-21.64,12.91-4.26,4.61-7.23,9.98-8.91,16.02-1.15,4.14-1.99,8.33-1.64,12.68.3,3.73.95,7.38,2.1,10.94,2.26,7,6.26,12.89,11.56,17.95,1.2,1.15,2.56,1.55,4.16,1.28.7-.12,1.41-.21,2.12-.31,6.8-1.01,13.19-3.23,19.19-6.56,6.94-3.84,13.03-8.76,18.31-14.68,3.49-3.91,6.42-8.22,8.88-12.85,3.2-6,4.99-12.49,6.61-19.03.52-2.09.21-4.08-1.41-5.66-1.58-1.54-3.15-3.1-4.85-4.5-7.45-6.1-16.01-9.14-25.07-9.18Z"/>
  </g>
</svg>