<?xml version="1.0" encoding="UTF-8"?>
<svg id="Layer_1" xmlns="http://www.w3.org/2000/svg" viewBox="0 0 290.81 290.81">
  <defs>
    <style>
      .cls-1 {
        fill: #ff00a3;
      }
    </style>
  </defs>
  <rect x="0" y="0" width="290.81" height="290.81"/>
  <g>
    <path class="cls-1" d="M119.06,131.62c-4.2-4.34-9.73-6.54-16.44-6.54s-12.73,2.15-17.06,6.4c-4.35,4.27-6.56,9.9-6.56,16.73v18.8c0,4.28,3.49,7.77,7.77,7.77s7.77-3.49,7.77-7.77v-18.74c0-2.71.7-4.78,2.13-6.32,1.38-1.48,3.16-2.17,5.61-2.17s4.06.67,5.39,2.12c1.4,1.52,2.07,3.58,2.07,6.31l.06,18.82c.01,4.27,3.5,7.75,7.78,7.75s7.77-3.49,7.77-7.77v-18.53c0-6.89-2.11-12.57-6.28-16.87h-.01Z"/>
    <path class="cls-1" d="M171.81,168.31c4.22,4.32,9.75,6.51,16.46,6.48,6.99-.02,12.73-2.2,17.04-6.46,4.34-4.28,6.52-9.92,6.5-16.76l-.06-18.8c0-4.28-3.51-7.76-7.8-7.74-4.28.01-7.76,3.51-7.74,7.8l.06,18.74c0,2.71-.68,4.78-2.11,6.33-1.37,1.49-3.15,2.18-5.6,2.19-2.35,0-4.06-.66-5.39-2.1-1.4-1.52-2.09-3.58-2.1-6.31l-.12-18.82c-.03-4.27-3.52-7.73-7.81-7.72s-7.76,3.51-7.74,7.8l.06,18.53c.02,6.89,2.15,12.56,6.34,16.85h0Z"/>
    <path class="cls-1" d="M154.05,117.52c-.07-.07-.13-.14-.2-.21-1.3-1.32-3.11-2.15-5.12-2.15-2.29,0-4.33,1.08-5.64,2.75l-11.67,11.48c-2.77,2.77-2.95,7.28-.26,10.12,2.78,2.95,7.45,3,10.29.15l.1-.1v28.74c0,3.91,3.06,7.23,6.97,7.34,4.05.11,7.38-3.15,7.38-7.17v-45.33c.21-1.99-.41-4.05-1.86-5.62h.01Z"/>
  </g>
</svg>