<?xml version="1.0" encoding="UTF-8"?>
<svg id="Layer_1" xmlns="http://www.w3.org/2000/svg" viewBox="0 0 290.81 290.81">
  <defs>
    <style>
      .cls-1 {
        fill: #15487e;
      }

      .cls-2 {
        fill: #fff;
      }
    </style>
  </defs>
  <path class="cls-1" d="M0,0v290.81h290.81V0H0Z"/>
  <path class="cls-2" d="M76.71,147.34c.71.23,1.53.59,2.47,1.06,1.64.94,3.05,2.24,4.23,3.88,1.41,2.35,2.11,5.17,2.11,8.45,0,11.27-6.81,16.9-20.43,16.9h-26.42c-.71,0-1.06-.35-1.06-1.06v-54.24c0-.71.35-1.06,1.06-1.06h27.82c4.94,0,8.92,1.36,11.97,4.05,3.05,2.7,4.59,6.29,4.59,10.75,0,2.58-.59,4.88-1.76,6.87-1.18,2-2.71,3.47-4.59,4.4h.01ZM64.74,169.53c3.99,0,6.93-.64,8.8-1.93,1.87-1.29,2.82-3.53,2.82-6.69s-.94-5.4-2.82-6.69c-1.87-1.29-4.82-1.93-8.8-1.93h-16.56c-.94,0-1.41.35-1.41,1.06v15.15c0,.71.47,1.06,1.41,1.06h16.56ZM48.19,129.38c-.71,0-1.06.35-1.06,1.06v12.68c0,.71.35,1.06,1.06,1.06h16.21c6.1,0,9.16-2.47,9.16-7.39s-3.05-7.39-9.16-7.39h-16.21ZM133.78,147.34c.71.23,1.41.59,2.11,1.06,1.87.94,3.28,2.24,4.23,3.88,1.64,2.35,2.47,5.17,2.47,8.45,0,11.27-6.81,16.9-20.43,16.9h-26.42c-.71,0-1.06-.35-1.06-1.06v-54.24c0-.71.35-1.06,1.06-1.06h27.83c4.69,0,8.63,1.36,11.8,4.05,3.17,2.7,4.76,6.29,4.76,10.75,0,2.58-.59,4.88-1.76,6.87-1.19,2-2.71,3.47-4.59,4.4ZM104.9,129.38c-.71,0-1.06.35-1.06,1.06v12.68c0,.71.35,1.06,1.06,1.06h16.55c6.1,0,9.16-2.47,9.16-7.39s-3.05-7.39-9.16-7.39h-16.55ZM121.8,169.53c3.99,0,6.93-.64,8.8-1.93,1.87-1.29,2.82-3.53,2.82-6.69s-.94-5.4-2.82-6.69c-1.87-1.29-4.82-1.93-8.8-1.93h-16.9c-.71,0-1.06.35-1.06,1.06v15.15c0,.71.35,1.06,1.06,1.06h16.9ZM192.96,121.97c.23-.47.47-.71.71-.71h9.16c.23,0,.47.12.71.35.23.23.23.48,0,.71l-29.23,54.95c-.23.23-.52.35-.88.35s-.65-.12-.88-.35l-29.23-54.95c-.23-.23-.3-.47-.17-.71.12-.23.41-.35.88-.35h8.8c.47,0,.83.23,1.06.71l18.66,35.23c0,.23.23.35.71.35s.83-.12,1.06-.35l18.66-35.23h-.01ZM203.53,168.82c-.23.48-.59.71-1.06.71h-9.16c-.23,0-.42-.12-.52-.35-.12-.23-.17-.47-.17-.71l29.24-54.95c.23-.23.58-.35,1.06-.35s.83.12,1.06.35l29.23,54.95c0,.23-.06.48-.17.71-.12.23-.3.35-.52.35h-9.16c-.48,0-.83-.23-1.06-.71l-18.32-35.23c-.23-.47-.59-.71-1.06-.71s-.83.23-1.06.71l-18.3,35.23h-.01Z"/>
</svg>