<?xml version="1.0" encoding="UTF-8"?>
<svg id="Layer_1" xmlns="http://www.w3.org/2000/svg" viewBox="0 0 290.81 290.81">
  <defs>
    <style>
      .cls-1 {
        fill: #b3272d;
      }

      .cls-2 {
        fill: #fff;
      }
    </style>
  </defs>
  <path class="cls-1" d="M0,0v290.81h290.81V0H0Z"/>
  <g>
    <path class="cls-2" d="M145.45,66.45c43.05-.47,80.88,35.63,79.1,82.29-1.54,40.31-35.53,77.27-82.48,75.56-40.71-1.49-76.19-34.88-75.85-79.77.33-43.47,35.95-78.38,79.24-78.07ZM78.55,145.31c.1,36.87,29.61,66.13,65.53,66.71,38.14.63,67.87-29.57,68.13-66.05.27-37.84-29.98-66.48-65.21-67.27-38.2-.85-68.43,29.93-68.46,66.61Z"/>
    <path class="cls-2" d="M103.03,139.39v-36.42h39.4v12.05h-27.09v12.05h24.08v36.5h-24.08v12.04h27.08v12.2h-39.36v-36.39h24.02v-12.03h-24.04Z"/>
    <path class="cls-2" d="M148.72,175.66h27.13v-12h-24.15v-36.45h24.12v-12.11h-27.1v-12.12h39.36v36.34h-24.13v12.03h24.11v36.44h-39.34v-12.12Z"/>
  </g>
</svg>