<?xml version="1.0" encoding="UTF-8"?>
<svg id="Layer_1" xmlns="http://www.w3.org/2000/svg" xmlns:xlink="http://www.w3.org/1999/xlink" viewBox="0 0 290.81 290.81">
  <defs>
    <style>
      .cls-1 {
        fill: none;
      }

      .cls-2 {
        fill: #fff;
      }

      .cls-3 {
        fill: #017893;
      }

      .cls-4 {
        clip-path: url(#clippath);
      }
    </style>
    <clipPath id="clippath">
      <rect class="cls-1" width="290.81" height="290.81"/>
    </clipPath>
  </defs>
  <rect class="cls-3" width="290.81" height="290.81"/>
  <path class="cls-2" d="M145.43,96.21c24.58,0,49.15.05,73.74-.02,10.05-.03,6.78,1.48,12.17-7.31,1.14-1.86.74-2.72-1.09-3.67-9.82-5.15-19.57-10.42-29.35-15.64-17.56-9.36-35.13-18.66-52.65-28.1-2.16-1.17-3.8-.8-5.76.25-26.28,14.03-52.58,28-78.89,41.99-6.17,3.28-5.34,2.12-2.29,8.21,1.67,3.33,3.8,4.42,7.43,4.4,25.56-.17,51.12-.09,76.68-.09h0Z"/>
  <g class="cls-4">
    <path class="cls-3" d="M186.49,80.89h-82.09c-.09-1.22.93-1.2,1.55-1.51,12.34-6.06,24.7-12.08,37.04-18.15,1.51-.74,2.85-1.03,4.47-.23,12.7,6.24,25.43,12.41,38.14,18.6.43.21.92.39.89,1.29Z"/>
  </g>
  <path class="cls-2" d="M145.25,203.98h37.46c10.92,0,21.83-.05,32.75.04,2.29.02,3.2-.77,3.09-3.17-.14-2.94-.03-5.88-.03-8.83,0-4.84,0-4.99-4.6-4.85-2.86.08-3.73-.98-3.71-3.87.11-12.99.05-25.98.05-38.98,0-11.98-.07-23.96.05-35.93.03-2.81-.91-3.81-3.58-3.67-3.24.17-6.49.04-9.73.04s-4.87,1.66-4.88,4.98c0,24.46-.04,48.93.05,73.38.01,3.02-.81,4.22-3.84,4.04-3.82-.23-7.67-.23-11.5,0-3.06.18-4.01-1.06-3.8-4.07.2-2.83.04-5.68.04-8.52v-65.77c0-3.97-.08-4.03-4-4.04-3.34-.01-6.69-.01-10.03,0-4.08.01-4.13.05-4.13,4.25v72.78c0,1.01-.02,2.03-.03,3.05-.01,1.48-.71,2.25-2.18,2.25-4.82,0-9.64,0-14.45,0-1.43,0-2.21-.7-2.23-2.2-.02-1.01-.04-2.03-.04-3.05,0-24.36,0-48.72,0-73.08,0-3.83-.15-3.98-3.78-4-3.84-.02-7.67.07-11.51-.02-2.18-.05-2.96.88-2.92,3.08.09,4.77.02,9.54.02,14.31v60.9c0,3.99-.08,4.04-3.99,4.06-2.75.01-5.5.03-8.26,0-7.66-.06-6.78.86-6.79-6.96-.03-23.85-.05-47.71.04-71.56.01-2.9-.85-4.03-3.7-3.86-3.33.2-6.68.04-10.03.05-2.96,0-4.45,1.5-4.45,4.5v72.17c0,6.02.33,5.83-5.38,5.66-2.19-.06-2.98.84-2.91,3.05.11,3.25.02,6.49.03,9.74.01,4.08.02,4.1,3.89,4.1h69.03-.01Z"/>
  <path class="cls-2" d="M145.11,229.7h76.38c3.59,0,5.38-1.9,5.38-5.71v-5.79c0-3.31-1.63-4.97-4.9-4.97H68.93c-.59,0-1.18.06-1.77,0-2.5-.27-3.29.98-3.19,3.41.12,2.94.02,5.88.03,8.83.01,4.17.05,4.22,4.15,4.22h76.97Z"/>
</svg>