<?xml version="1.0" encoding="UTF-8"?>
<svg id="Layer_1" xmlns="http://www.w3.org/2000/svg" viewBox="0 0 290.81 290.81">
  <defs>
    <style>
      .cls-1 {
        fill: #eb673d;
      }

      .cls-2 {
        fill: #fff;
      }

      .cls-3 {
        fill: #00605c;
      }
    </style>
  </defs>
  <path class="cls-3" d="M0,0v290.81h290.81V0H0Z"/>
  <g>
    <path class="cls-1" d="M163.14,129.28c8.64-9.26,13.05-20.71,16.79-32.49,2.21-6.97,3.16-14.21,3.69-21.47.28-3.91,1.63-5.88,5.79-5.84,13.28.12,26.56.17,39.83.05,4.13-.04,4.92,1.9,4.86,5.56-.34,21.56-5.86,41.8-15.4,60.99-14.36,28.9-35.77,51.01-63.99,66.75-20.61,11.49-42.73,17.04-66.09,18.54-4.97.32-6.91-1.3-6.79-6.46.34-14.33.29-28.67.39-43.01,16.04-.11,32.09-.26,48.13-.31,24.95-.07,39.06-18.24,32.79-42.32Z"/>
    <g>
      <path class="cls-2" d="M154.12,115.84c17.11,15.66,14.48,33.94,5.7,45.01-4.09,5.15-9.1,8.91-14.95,10.73-3.45,1.07-6.26,1.18-7.58,1.23-15.82.53-50.18.13-52.03.11-.7-.11-1.27-.16-1.65-.19-.67-.06-1.06-.06-1.29-.36-.1-.13-.14-.28-.17-.63-.03-.4-.03-.99.12-1.72.09-50.75.04-87.32-.45-93.25-.07-.88-.41-4.07,1.52-5.93,1.48-1.43,3.75-1.56,5.64-1.36,11.77,0,23.55.02,35.32.03,13.67-1.01,26.32,6.2,31.62,17.81,6.36,13.92-1.04,27.21-1.81,28.54ZM103.14,153.09c10.73,0,20.96.13,31.18-.05,6.5-.11,11.58-5.09,11.89-11.09.32-6.23-3.93-12.26-10.3-12.6-10.8-.58-21.65-.16-32.76-.16v23.9ZM102.98,109.32c9.08,0,17.59.31,26.06-.12,5.16-.26,8.85-3.37,9.35-8.83.49-5.42-2.44-9.89-7.5-10.36-9.19-.85-18.51-.24-27.91-.24v19.54Z"/>
      <path class="cls-3" d="M103.14,153.09v-23.9c11.11,0,21.96-.42,32.76.16,6.37.34,10.63,6.37,10.3,12.6-.31,6.01-5.39,10.98-11.89,11.09-10.22.18-20.44.05-31.18.05Z"/>
      <path class="cls-3" d="M102.98,109.32v-19.54c9.41,0,18.73-.61,27.91.24,5.06.47,7.99,4.93,7.5,10.36-.5,5.46-4.19,8.57-9.35,8.83-8.47.43-16.98.12-26.06.12Z"/>
    </g>
  </g>
</svg>