<?xml version="1.0" encoding="UTF-8"?>
<svg id="Layer_1" xmlns="http://www.w3.org/2000/svg" viewBox="0 0 290.81 290.81">
  <defs>
    <style>
      .cls-1 {
        fill: #fff;
      }

      .cls-2 {
        fill: #2ca9e1;
      }

      .cls-3 {
        fill: #2853a3;
      }
    </style>
  </defs>
  <rect class="cls-1" width="290.81" height="290.81"/>
  <g id="layer1">
    <g id="g1899">
      <g id="g1918">
        <g id="g1907">
          <g id="g1273">
            <path id="path1275" class="cls-1" d="M78.79,145.4c0,47.56,19.06,83.28,66.62,83.28s66.62-35.71,66.62-83.28-19.06-83.27-66.62-83.27-66.62,35.71-66.62,83.27"/>
          </g>
          <g id="g1277">
            <path id="path1279" class="cls-3" d="M196.48,86.19c11.1,14.8,15.54,35.53,15.54,59.4,0,47.56-19.06,83.09-66.62,83.09-21.28,0-37.01-7.03-47.56-19.43,16.65-18.51,40.53-45.34,52.55-60.7,11.66-14.8,32.02-42.01,46.08-62.36"/>
          </g>
          <g id="g1281">
            <path id="path1283" class="cls-2" d="M94.15,204.62c-10.55-14.98-15.36-35.35-15.36-59.03,0-47.74,18.88-83.46,66.62-83.46,20.91,0,36.64,7.03,47.18,19.06-17.21,19.06-41.27,46.44-51.81,59.95-12.03,14.81-32.57,43.12-46.63,63.47"/>
          </g>
        </g>
      </g>
    </g>
  </g>
</svg>