<?xml version="1.0" encoding="UTF-8"?>
<svg id="Layer_1" xmlns="http://www.w3.org/2000/svg" viewBox="0 0 290.81 290.81">
  <defs>
    <style>
      .cls-1 {
        fill: #811643;
      }

      .cls-2 {
        fill: #fff;
      }

      .cls-3 {
        fill: #e91f27;
      }
    </style>
  </defs>
  <path class="cls-2" d="M0,0v290.81h290.81V0H0Z"/>
  <g id="vlHAN7">
    <g>
      <path class="cls-3" d="M66.42,217.34c.32-.77.61-1.56.96-2.32,8.23-18.06,13.47-36.96,15.5-56.69,2.87-27.95-.45-55.17-10.12-81.59-.22-.59-.61-1.2-.58-1.78.04-.7.29-1.58.77-1.99.33-.27,1.37-.05,1.85.3,1.08.78,2.02,1.76,3.01,2.66,18.07,16.67,38.09,30.56,59.92,41.82,2.38,1.23,2.64,2.37,1.88,4.71-6.77,20.78-17.49,39.39-30.83,56.56-11.24,14.47-24.06,27.33-39.32,37.62-.77.52-1.66.87-2.5,1.3-.18-.2-.36-.41-.54-.61Z"/>
      <path class="cls-1" d="M99.41,200.04c11.03-10.8,20.96-22.49,29.61-35.23,8.64-12.74,16.03-26.14,21.43-39.87,12.65,4.41,24.96,9.21,37.59,12.95,10.83,3.21,22.01,5.2,33.04,7.72.38.09.83.09,1.14.3.76.52,1.46,1.14,2.18,1.71-.7.61-1.31,1.57-2.11,1.77-7.09,1.77-14.27,3.2-21.32,5.13-34.82,9.53-67.28,24.26-97.2,44.5-1.11.75-2.29,1.38-3.44,2.06l-.91-1.05Z"/>
    </g>
  </g>
</svg>