<?xml version="1.0" encoding="UTF-8"?>
<svg id="Layer_1" xmlns="http://www.w3.org/2000/svg" viewBox="0 0 290.81 290.81">
  <defs>
    <style>
      .cls-1 {
        fill: #386cb4;
      }

      .cls-2 {
        fill: #fff;
      }
    </style>
  </defs>
  <rect class="cls-1" width="290.81" height="290.81"/>
  <g>
    <path class="cls-2" d="M73.16,73.17v91.43c5.99-10.57,25.86-44.28,36.26-44.28,4.93,0,13.15,12.79,13.15,12.79,0,0,40.28,61.09,95.07,62.84v-122.79H73.16ZM162.2,133l-15.92,10.18,15.99-15.65-.07,5.46ZM176.19,127.53l5.45.04,10.18,15.92-15.65-15.92-6.95,33.29v-40.26l-6.97,6.95-33.32-6.95h40.3l-6.97-6.99,6.97-33.31v40.28l6.93-6.95.07-5.49,15.93-10.16-15.97,15.62,33.29,6.97h-40.25l6.96,6.95ZM146.61,97.63l15.66,16-5.48-.08-10.18-15.92Z"/>
    <path class="cls-2" d="M217.65,217.64v-10.68c-10.35-.24-52.77-4.29-89.8-52.79l-18.84,52.32v-75.25s-14.24,10.01-35.83,51.53v34.87h144.47Z"/>
  </g>
</svg>