<?xml version="1.0" encoding="UTF-8"?>
<svg id="Layer_1" xmlns="http://www.w3.org/2000/svg" viewBox="0 0 290.81 290.81">
  <defs>
    <style>
      .cls-1 {
        fill: #fafdff;
      }

      .cls-2 {
        fill: #1081c2;
      }
    </style>
  </defs>
  <g id="GKQrQ2">
    <g>
      <path class="cls-2" d="M38.96,146.13c.09-6.8.72-13.13,1.82-19.59,2.76-16.2,9.07-30.47,18.38-43.33,12.77-17.64,29.16-30.14,49.03-37.3,31.77-11.44,62.58-8.89,91.88,8.48,10.42,6.17,19.89,13.89,27.69,23.94,6.08,7.84,11.44,15.98,15.42,25.14,7.73,17.8,10.21,36.5,7.79,55.88-1.06,8.47-3.1,16.72-6.32,24.59-3.8,9.26-8.45,18.01-14.5,25.85-8.38,10.86-18.24,19.91-29.82,26.76-9.29,5.5-19.02,9.93-29.5,12.12-3.55.74-7.28,1.11-10.79,1.83-9.64,1.97-19.17,1.54-28.75.37-15.4-1.88-29.74-7.19-43.02-15.66-8.21-5.24-15.77-11.41-22.26-18.91-12.97-14.98-21.77-32.2-25.65-52.33-1.18-6.11-1.1-12.1-1.4-17.83ZM146.33,44.32c-18.97.33-36.2,4.31-52.05,13.9-4.41,2.67-9.01,5.19-12.9,8.58-5.32,4.64-10.33,9.7-14.86,15.3-30.72,37.99-29.63,93.61,2.68,129.9,7.74,8.7,16.46,16.07,26.53,21.57,11.68,6.38,23.93,10.68,37.05,12.19,18.34,2.1,36.07-.21,53.19-7.65,5.64-2.45,11.2-5.24,16.22-8.73,6.55-4.55,12.63-9.91,18.13-15.93,11.33-12.39,19.14-27.03,23.44-43.5,2.53-9.72,3.22-19.89,2.6-30.15-1.4-23.49-9.78-43.73-24.82-60.75-20.53-23.23-46.25-34.11-75.21-34.72Z"/>
      <path class="cls-1" d="M146.33,44.32c28.96.61,54.68,11.49,75.21,34.72,15.04,17.02,23.42,37.26,24.82,60.75.61,10.26-.07,20.44-2.6,30.15-4.29,16.47-12.11,31.11-23.44,43.5-5.51,6.02-11.59,11.38-18.13,15.93-5.03,3.49-10.58,6.29-16.22,8.73-17.12,7.43-34.85,9.75-53.19,7.65-13.12-1.5-25.37-5.81-37.05-12.19-10.07-5.5-18.79-12.87-26.53-21.57-32.31-36.3-33.41-91.91-2.68-129.9,4.53-5.6,9.54-10.66,14.86-15.3,3.89-3.39,8.49-5.91,12.9-8.58,15.86-9.59,33.08-13.57,52.05-13.9ZM164.73,162.61c2.19,1.87,4.71,2.11,7.3,1.98,2.14-.11,4.28-.32,6.42-.46.65-.04,1.33.03,1.5.85.17.79-.22,1.28-.83,1.87-1.61,1.55-3.62,1.31-5.47,1.56-6.33.88-12.29-.12-17.36-4.61-1.29-1.14-2.76-1.04-4.05-.59-1.29.45-.65,2-.63,3.04.34,23.73.72,47.46,1.1,71.19.06,3.5,1.22,4.61,4.8,4.22,20.51-2.21,38.5-10.6,54.1-24.87,5.92-5.41,10.86-11.72,15.35-18.44,6.57-9.84,10.98-20.74,13.42-32.49,2.46-11.84,2.93-23.64.74-35.74-1.48-8.13-3.13-16.08-6.52-23.49-8.69-18.98-21.28-33.95-38.99-44.28-5.69-3.32-11.53-6.03-17.42-8.63-9.59-4.22-19.88-5.41-30.16-5.82-18.76-.76-36.34,4.07-52.77,13.64-9.53,5.56-17.82,12.83-24.95,21.47-4.24,5.14-8.06,10.59-11.08,16.79-2.56,5.25-5.08,10.51-6.89,16.05-3.64,11.17-5.16,22.67-4.49,34.58.56,10.02,2.74,19.56,6.05,28.87,1.89,5.31,4.69,10.13,7.37,15.06,4.85,8.91,11.4,16.11,18.49,22.82,8.96,8.48,19.36,14.51,30.63,18.85,6.82,2.63,13.84,4.45,21.02,5.52,3.75.56,6.28-1.1,6.34-4.02.36-16.51.68-33.03,1.04-49.54.04-1.89-.75-3.67-.41-5.6,1.01-5.7.69-11.5.9-17.25.06-1.72-.85-3.18-2.5-3.09-2.17.13-4.46-.04-6.43,1.42-5.74,4.26-12.17,5.71-19.09,5.21-1.55-.11-2.96-.47-4.26-1.3-.68-.44-1.49-.95-1.17-1.98.28-.89,1.14-.74,1.85-.75,2.42-.03,4.83.03,7.24-.13.9-.06,2.33-.13,2.33-1.4,0-1.26-1.35-1.19-2.28-1.3-3.02-.37-5.99-.99-8.72-2.47-1.34-.72-3.04-1.66-2.4-3.54.57-1.66,2.28-.96,3.58-.76.53.08,1.05.24,1.57.35,4.19.84,8.38,1.72,12.59,2.48.73.13,1.98.82,2.18-.67.15-1.13-.93-1.44-1.76-1.82-1.92-.9-4.01-.91-6-1.43-.92-.24-2.23,0-2.35-1.36-.13-1.4,1.14-1.75,2.15-2.15,4.83-1.89,11.24.16,14.66,4.94,1.1,1.55,2.21,2.19,4,2.16,4.91-.08,4.91,0,4.88-5.12-.02-3.83-.98-4.98-4.65-4.8-2.71.13-5.28.03-8.02-.39-6-.93-12.03-1.61-17.97-3-1.45-.34-2.99-.66-4.24.73-3.7,4.09-8.12,6.92-13.09,9.01-2.28.96-3.17-.54-4.12-1.8-1.09-1.45.12-2.45,1.25-3.1,2.67-1.54,5.41-2.95,8.07-4.51.78-.46,2.15-.9,1.48-2.23-.62-1.25-1.91-1.75-3.24-1.27-.63.23-1.18.83-1.68,1.35-4.2,4.36-9.52,5.37-15.06,5.57-1.39.05-3.17-.25-3.39-2.11-.24-2.03,1.6-2.23,2.94-2.59,2.69-.71,5.4-1.3,7.98-2.41.86-.37,1.55-.93,1.3-1.82-.27-.98-1.21-.46-1.85-.31-4.37,1.02-8.7.73-13-.37-2.35-.6-4.67-1.39-6.46-3.25-.87-.9-1.47-2.04-.71-3.31.7-1.18,1.87-1,2.91-.65.93.31,1.81.81,2.69,1.28,2.34,1.23,4.83,2,7.39,2.46.9.16,2,.21,2.35-.79.42-1.18-.72-1.59-1.48-2-3.76-2.02-7.03-4.86-10.53-7.3-1.39-.97-2.65-2.76-1.7-4.5,1.11-2.03,2.85-.66,4.22.13.85.49,1.54,1.3,2.37,1.84.84.56,1.7,1.88,2.76.93.88-.79.07-1.95-.24-2.9-.95-2.83-1.91-5.66-2.91-8.47-.67-1.87-.51-3.47,1.45-4.16,1.81-.65,2.22,1.02,2.78,2.28.23.51.4,1.05.62,1.57,1.48,3.56,2.96,7.12,4.47,10.66.33.76.77,1.74,1.74,1.42,1.18-.39.81-1.54.61-2.43-.25-1.1-.61-2.18-.95-3.26-.41-1.28-.63-2.6-.39-3.92.3-1.65,1.39-2.36,2.92-2.33,1.55.04,2.21,1.04,2.31,2.56.04.66,0,1.33.07,1.99.52,5.4,1.19,10.77,4.34,15.31.74,1.06,1.79,2.16,3.18,1.35,1.2-.71.52-2.03.39-3.11-.06-.56-.28-1.1-.38-1.66-.26-1.42-1.19-3.22.78-3.88,1.77-.6,2.75,1,3.49,2.44.37.72.48,1.61.68,2.43.38,1.56.63,3.16,1.13,4.68.5,1.53,1.52,2.76,3.21,2.36,1.78-.43,1.69-2.16,1.36-3.49-.45-1.85-.21-3.19,1.61-3.67,2-.53,2.67,1.06,3.14,2.67.62,2.09,1.31,4.14,2.5,5.95,1.13,1.72,2.58,3.34,4.63,1.96,2.15-1.45.44-3.16-.31-4.65-.46-.91-1.12-1.72-1.66-2.59-.64-1.03-1.22-2.08-1.3-3.38-.1-1.69.23-3.1,2.03-3.43,1.67-.31,2.45.84,2.84,2.34.53,2.01.9,4.12,2.01,5.85,1.42,2.22,2.69,4.71,5.28,5.72.99.38,2.17.65,3.04-.25.86-.89.3-1.95-.05-2.92-.29-.8-.65-1.57-.9-2.37-.34-1.08-.18-1.94.81-2.71.91-.7,1.53-.68,2.54-.17,1.59.81,1.75,2.18,1.98,3.72.22,1.46.82,2.99,2.53,2.64,1.4-.29,3.04-.81,3.06-2.91.03-3.4,0-6.8,0-10.21-1.04-.19-1.67.64-2.45,1.03-3.97,2-8.08,3.09-12.47,2.16-1.12-.24-2.52-.72-2.37-2.24.16-1.53,1.6-1.07,2.62-1.26,1.25-.23,3.31.22,3.4-1.42.12-2.08-2.13-1.25-3.17-1.38-2.73-.35-5.43-1.87-8.13-1.1-2.57.74-5.1,1.65-7.74,2.12-4.51.82-8.82.21-12.86-2.09-1.25-.71-2.34-1.83-1.67-3.43.7-1.68,2.1-.91,3.27-.5,1.61.56,3.16,1.36,4.89,1.42.65.02,1.39-.01,1.5-.82.08-.6-.52-.89-1.04-1.13-3.53-1.61-6.98-3.44-10.58-4.83-6.45-2.48-11.29-7.35-16.35-11.9-.9-.81-1.62-2.18-.75-3.26.85-1.06,2.27-1,3.43-.16,1.48,1.07,2.88,2.26,4.39,3.27,1.15.77,2.39,2.58,3.7,1.5,1.35-1.12-.21-2.73-.54-4.11-.38-1.6-1.49-3.19-.13-4.81.74-.87,1.78-.92,2.75-.63,2.04.63,2.12,2.57,2.42,4.34.24,1.4.43,2.81.79,4.18.39,1.47,1.02,2.85,2.35,3.66.75.46,1.19,1.8,2.43.91,1.23-.88.35-1.84.11-2.73-.63-2.37-1.45-4.71-1.08-7.23.18-1.23.53-2.52,1.94-2.75,1.55-.25,1.9,1.02,2.26,2.24,1.06,3.62,2.11,7.25,3.2,10.86.27.9.59,1.8,1.02,2.61.56,1.06,1.46,1.8,2.65,1.39,1.29-.45,1.41-1.71,1.05-2.84-.24-.76-.21-1.46-.27-2.2-.17-1.92.23-3.55,2.31-3.56,1.97,0,2.86,1.26,2.99,3.49.17,2.81.62,5.65,2.18,8.07.73,1.13,1.78,2.12,3.16,1.3,1.24-.73.75-2.03.49-3.18-.36-1.62-.97-3.25-.93-4.86.03-1.31.02-3.19,2.02-3.42,1.8-.2,2.59.99,2.99,2.59.16.63.11,1.32.22,1.98.33,1.96.53,3.97,1.63,5.67,1.04,1.6,2.58,2.27,4.21,1.61,1.5-.61,1.79-2.16,1.43-3.83-.31-1.42-.61-3.02,1.19-3.51,1.76-.48,2.5,1.04,3.16,2.38.7,1.42,1.17,2.99,1.98,4.33.91,1.51,1.93,1.82,2.85-.19,1.12-2.46.47-5.02.48-7.52.02-2.9-1.18-3.96-3.96-4.02-8.42-.19-16.59-1.9-24.29-5.41-7.04-3.21-13.52-7.5-18.62-13.77-1.21-1.49-2.11-3.08-.32-4.66,1.77-1.57,2.88-.07,4.01,1.24,1.56,1.82,3.17,3.62,4.82,5.35.67.71,1.45,1.59,2.55.77,1.1-.82.55-1.82.19-2.8-1.07-2.91-2.35-5.76-2.42-8.98-.04-1.79.4-3.07,2.38-3.45,2.01-.39,2.25,1.15,2.61,2.41,1.27,4.45,2.43,8.93,3.62,13.4.34,1.29.55,2.89,2.26,2.52,1.6-.35,1.16-1.99,1.04-3.11-.32-3.12-.52-6.23-.47-9.37.02-1.36.27-2.53,1.79-2.66,1.51-.13,2.33.79,2.58,2.3.11.65.07,1.32.13,1.99.39,4.88.68,9.78,2.92,14.22.38.76.8,1.57,1.8,1.37,1.15-.23,1.27-1.16,1.17-2.18-.13-1.42-.33-2.83-.37-4.25-.04-1.4.22-2.71,1.94-2.82,1.61-.1,2.22,1.02,2.47,2.43.26,1.49.39,3,.61,4.5.18,1.2.63,2.42,1.95,2.22,1.22-.19,1.08-1.54,1.12-2.58.01-.28.01-.57,0-.85-.09-2.07.55-3.79,2.73-3.63,2.22.16,2.51,2.05,2.25,4.04-.06.47-.11.95-.24,1.39-.3,1.04-.55,2.08.44,2.84.98.75,2.04.44,3.09.08,1.23-.42.84-1.51.87-2.39.05-1.42-.12-2.86.04-4.27.28-2.6-.33-3.82-3.16-4.01-3.28-.22-6.46-1.45-9.28-3.44-3.25-2.29-5.58-5.25-6.46-9.4-.45-2.14-.56-4.23,1.79-4.9,2.59-.74,2.8,1.64,3.19,3.46.38,1.78.83,3.53,2.08,4.85.87.92,2,1.43,3.16.72,1.27-.78.7-1.97.31-3.03-.59-1.59-1.22-3.16-1.84-4.74-.68-1.72-.51-3.36,1.21-4.06,1.83-.75,2.82.58,3.32,2.31.86,2.99,1.74,5.97,2.48,8.99.3,1.22.87,1.7,1.99,1.64,1.25-.07,1.66-.89,1.66-2.09,0-3.04.03-6.08.04-9.12,0-1.34.07-2.66.6-3.9.65-1.52,1.8-1.96,3.29-1.79,1.5.16,2.05,1.14,2.06,2.57.02,2.94-.02,5.88,0,8.82,0,1.06.01,2.27,1.32,2.41,1.19.13,1.7-.84,1.98-1.92.61-2.38,1.18-4.76,1.81-7.13.4-1.48,1.13-2.68,2.82-2.33,1.58.33,2.57,1.41,2.52,3.18-.03,1.12-.25,2.26-.55,3.34-.57,1.99-1.25,3.96-1.93,5.91-.32.91-.24,1.68.47,2.31.74.65,1.54.41,2.25-.04.94-.6,1.54-1.47,1.96-2.59.68-1.81,1.56-3.53,2.34-5.3.51-1.16,1.3-1.88,2.54-1.57,1.14.28,1.41,1.32,1.49,2.43.3,4.26-1.2,7.62-4.59,9.93-3.2,2.17-6.89,3.58-10.49,3.9-3.28.3-3.41,1.78-3.32,4.26.03.95,0,1.9.02,2.85.05,1.87.27,3.7,2.46,4.02,2.06.3,3.56-.58,4.43-2.67.87-2.08,1.79-4.14,2.8-6.14.5-.98,1.41-1.47,2.51-1.16,1.17.33,1.74,1.17,1.83,2.48.12,1.8-.61,3.32-1.27,4.87-.37.88-.93,1.87.03,2.55.85.6,1.67.03,2.39-.66,2.17-2.09,3.7-4.62,4.73-7.5.99-2.77,1.46-5.65,1.61-8.6.1-1.95,1.23-2.59,2.87-2.58,1.65.01,2.05,1.09,2.05,2.62.02,2.83-1.15,5.33-1.85,7.97-.34,1.29-2.04,2.96-.2,3.99,1.87,1.05,2.86-.94,3.65-2.36.86-1.54,1.6-3.2,2.12-4.89.95-3.06,1.75-6.17,2.5-9.29.35-1.46,1-2.4,2.47-2.53,2.22-.2,3.38,1.52,2.88,4.21-.54,2.9-2.17,5.31-3.18,8-.42,1.12-1.33,2.37-.12,3.34,1.18.95,2.14-.31,3.06-.97,1.18-.86,2.26-1.87,3.45-2.69.9-.62,1.87-.6,2.69.29.86.92.77,1.96.03,2.8-1.51,1.73-2.89,3.76-4.73,4.96-6.83,4.46-14.03,8.17-22.01,9.63-4.94.91-9.75,2.94-14.91,2.27-1.43-.19-1.69.68-1.69,1.86-.01,2.56-.06,5.13.01,7.69.02.7-.52,1.92.8,1.97,1.02.04,1.65-.77,1.82-1.76.24-1.4.48-2.8,1.14-4.05.63-1.21,1.65-1.78,2.92-1.49,1.08.25,1.82.81,1.96,2.25.12,1.27-.97,3.43.73,3.67,1.69.23,1.53-2.15,2.06-3.46.38-.94.93-1.6,2.01-1.54,1.12.06,1.52.87,1.71,1.86.12.65.1,1.33.22,1.97.22,1.21-.34,3.04,1.41,3.23,1.58.17,2.17-1.38,2.7-2.72,1.01-2.55,1.34-5.29,1.93-7.96.28-1.26.69-2.43,2.17-2.23,1.41.19,1.82,1.28,1.78,2.69-.06,2.18.04,4.37-.08,6.55-.11,1.97.83,1.74,1.93,1.16.85-.45,1.25-1.29,1.36-2.31.17-1.59.27-3.21.61-4.77.42-1.97,1.71-2.96,3.59-2.38,1.82.56,2.17,2.03,1.56,3.85-.35,1.03-1.11,2.27.31,2.96,1.41.69,2.36-.27,3.08-1.49.78-1.31,1.19-2.77,1.45-4.26.58-3.26,1.23-6.52,1.54-9.82.18-1.88.85-2.79,2.55-2.76,1.9.04,2.29,1.42,2.29,3.12,0,3.54-.95,6.84-2.04,10.14-.24.74-1.2,1.88.01,2.49,1.03.51,1.56-.64,2.03-1.41,2.69-4.38,5.14-8.9,7.07-13.72.46-1.14.89-2.32,1.94-3,1.31-.85,2.58-.54,3.73.41.61.5.95,1.1.44,1.95-1.58,2.6-3.09,5.26-4.73,7.83-.4.62-1.07.93-.49,1.86.74,1.19,1.43.33,2.05,0,1.35-.72,2.64-1.58,3.97-2.36,1.1-.64,2.16-.47,2.86.59.8,1.21-.21,1.93-.95,2.57-7.07,6.14-14.93,10.89-23.37,14.56-.74.32-1.39.8-1.36,1.55.04.92.91,1.01,1.65,1.02,2.1.03,4.03-.78,5.99-1.43,1.02-.34,2.16-.95,2.87.39.72,1.36-.18,2.39-1.09,3.16-1.55,1.3-3.35,2.15-5.27,2.65-5.68,1.49-11.17.39-16.61-1.39-1-.33-1.92-.86-3.1-.61-6.06,1.27-12.09,2.94-18.36,2.27-1.69-.18-2.45.56-2.4,2.45.09,3.23.03,6.46.02,9.68,0,1.19.04,2.38,1.48,2.58,1.39.19,1.98-.88,2.17-2.02.4-2.36,1.69-4.32,2.33-6.56.51-1.78,1.63-2.8,3.42-2.34,2.02.52,1.58,2.4,1.31,3.77-.55,2.77-1.38,5.48-2.12,8.21-.2.73-.6,1.5.24,2.01.92.56,1.52-.07,1.98-.84,1.11-1.84,2.18-3.71,3.31-5.53.91-1.46,1.97-3.04,3.87-1.98,1.77.99.84,2.6.32,3.99-.34.89-.84,1.79.17,2.53.97.71,1.92.33,2.72-.34,1.22-1.02,2.05-2.41,2.52-3.96.54-1.8.77-3.72,1.42-5.47.6-1.61,1-3.88,3.56-3.02,2.59.87,3.36,2.53,2.26,5.22-.49,1.2-1.36,2.22-1.96,3.38-.72,1.4-2.48,2.8-.84,4.48,1.53,1.57,3.19.38,4.66-.52.68-.42,1.37-.98,1.82-1.66,1.61-2.46,3.35-4.84,4.47-7.63.45-1.12.97-2.27,2.03-2.95.79-.51,1.64-.81,2.53-.23.9.59,1.05,1.5.82,2.49-.25,1.1-.64,2.17-.86,3.27-.16.84-.19,1.82.74,2.21.82.35,1.48-.03,2.07-.8,1.22-1.63,2.44-3.26,3.02-5.25,1.15-3.96,2.33-7.93,2.25-12.15-.04-1.89.3-3.53,2.57-3.39,2.15.14,2.77,1.65,2.6,3.68-.13,1.51-.2,3.04-.52,4.51-.23,1.05-.75,2.17.48,2.67,1.37.55,1.78-.82,2.31-1.79,1.91-3.53,2.72-7.55,4.38-11.2.8-1.76,1.95-2.82,3.83-1.91,2,.97,1.64,2.61.86,4.31-1.64,3.58-3.25,7.17-4.87,10.76-.27.59-.7,1.24-.11,1.82.69.68,1.41.19,1.89-.34,1.18-1.3,2.21-2.73,3.38-4.04,1.19-1.33,2.54-1.3,3.81-.11,1.25,1.17,1.16,2.49.11,3.74-.65.78-1.35,1.51-2.08,2.21-2.69,2.56-5.8,4.42-8.97,6.19-.64.36-1.36.76-.93,1.72.32.72,1.02.83,1.62.53,3.35-1.68,7.25-1.65,10.41-3.94,1.49-1.08,3.14-.33,4.01.9,1.04,1.48.22,2.81-1.36,3.57-1.7.82-3.28,1.83-5.11,2.41-4.64,1.46-9.36,1.34-14.1,1.11-.79-.04-1.73-.25-2.04.83-.3,1.06.63,1.59,1.24,1.96,2.27,1.35,4.73,2,7.38,1.87,1.56-.08,3.24.05,3.17,2.38-.06,2.14-1.61,2.53-3.22,2.57-5.73.14-10.91-1.28-14.96-5.93-.71-.81-1.48-2.03-2.66-1.14-1.32.99-.44,2.24.16,3.26,1.46,2.5,3.02,4.93,4.49,7.43.53.9.9,1.91.08,2.89-.73.87-1.63,1.05-2.68.7-.94-.31-1.76-.75-2.5-1.49-2.59-2.58-4.31-5.82-6-9.04-.82-1.55-1.59-1.77-3.2-1.36-2.89.74-5.74,1.61-8.72,2.09-6.95,1.11-13.9,1.71-20.9,2.03-4.13.19-4.95,1.45-4.26,7.63.4,3.62,3.15,1.67,4.88,1.98,1,.18,1.78-.73,2.55-1.4,2.44-2.12,5.02-3.99,8.08-4.95,1.98-.62,4.01-1.02,6.08-.58.77.16,1.7.37,1.88,1.35.22,1.12-.77,1.4-1.46,1.72-1.47.68-3.05,1.13-4.47,1.9-.8.44-2.47.32-2,2.06.4,1.49,1.67.8,2.52.68,3.43-.46,6.88-.82,9.9-3.04,1.14-.83,2.82-.92,3.96.31.67.72.56,1.88-.19,2.58-1.76,1.62-3.79,3.19-6.07,3.28-4.09.16-8.06,1.03-12.16,1.54Z"/>
      <path class="cls-2" d="M164.73,162.61c4.1-.51,8.08-1.38,12.16-1.54,2.28-.09,4.31-1.66,6.07-3.28.76-.7.87-1.85.19-2.58-1.14-1.23-2.82-1.15-3.96-.31-3.02,2.22-6.46,2.57-9.9,3.04-.85.11-2.12.81-2.52-.68-.47-1.74,1.2-1.62,2-2.06,1.42-.78,2.99-1.23,4.47-1.9.69-.32,1.68-.59,1.46-1.72-.19-.98-1.11-1.19-1.88-1.35-2.07-.44-4.1-.04-6.08.58-3.06.96-5.64,2.83-8.08,4.95-.77.67-1.55,1.58-2.55,1.4-1.73-.31-4.47,1.65-4.88-1.98-.69-6.18.13-7.44,4.26-7.63,6.99-.32,13.95-.92,20.9-2.03,2.99-.48,5.84-1.35,8.72-2.09,1.61-.41,2.38-.19,3.2,1.36,1.7,3.22,3.41,6.46,6,9.04.75.74,1.56,1.18,2.5,1.49,1.05.35,1.95.18,2.68-.7.82-.98.45-1.99-.08-2.89-1.47-2.5-3.02-4.93-4.49-7.43-.6-1.02-1.48-2.26-.16-3.26,1.19-.89,1.96.32,2.66,1.14,4.05,4.65,9.24,6.07,14.96,5.93,1.61-.04,3.16-.43,3.22-2.57.07-2.33-1.61-2.46-3.17-2.38-2.65.13-5.1-.52-7.38-1.87-.61-.36-1.54-.89-1.24-1.96.31-1.09,1.25-.87,2.04-.83,4.74.23,9.45.35,14.1-1.11,1.83-.58,3.41-1.59,5.11-2.41,1.58-.76,2.4-2.09,1.36-3.57-.87-1.23-2.52-1.98-4.01-.9-3.16,2.3-7.06,2.27-10.41,3.94-.6.3-1.3.19-1.62-.53-.43-.96.29-1.36.93-1.72,3.17-1.77,6.29-3.63,8.97-6.19.73-.69,1.43-1.43,2.08-2.21,1.05-1.26,1.14-2.57-.11-3.74-1.27-1.19-2.61-1.22-3.81.11-1.17,1.3-2.2,2.74-3.38,4.04-.48.53-1.2,1.02-1.89.34-.59-.57-.15-1.23.11-1.82,1.62-3.59,3.23-7.18,4.87-10.76.78-1.7,1.14-3.34-.86-4.31-1.88-.91-3.03.16-3.83,1.91-1.66,3.65-2.47,7.66-4.38,11.2-.53.97-.94,2.34-2.31,1.79-1.23-.5-.7-1.62-.48-2.67.32-1.47.4-3,.52-4.51.17-2.03-.44-3.54-2.6-3.68-2.27-.14-2.61,1.5-2.57,3.39.08,4.22-1.1,8.19-2.25,12.15-.58,2-1.81,3.63-3.02,5.25-.58.78-1.25,1.15-2.07.8-.93-.39-.91-1.37-.74-2.21.22-1.11.61-2.17.86-3.27.23-.99.09-1.9-.82-2.49-.89-.58-1.73-.28-2.53.23-1.05.68-1.58,1.83-2.03,2.95-1.12,2.8-2.86,5.17-4.47,7.63-.44.68-1.13,1.24-1.82,1.66-1.46.9-3.13,2.09-4.66.52-1.64-1.68.11-3.08.84-4.48.6-1.16,1.47-2.18,1.96-3.38,1.1-2.69.33-4.35-2.26-5.22-2.56-.86-2.96,1.41-3.56,3.02-.65,1.75-.88,3.66-1.42,5.47-.46,1.56-1.29,2.94-2.52,3.96-.8.67-1.75,1.05-2.72.34-1.02-.74-.51-1.63-.17-2.53.52-1.39,1.45-3-.32-3.99-1.89-1.06-2.96.52-3.87,1.98-1.13,1.82-2.2,3.69-3.31,5.53-.46.77-1.06,1.4-1.98.84-.84-.51-.44-1.28-.24-2.01.74-2.73,1.58-5.44,2.12-8.21.27-1.37.7-3.24-1.31-3.77-1.79-.47-2.91.55-3.42,2.34-.64,2.24-1.94,4.2-2.33,6.56-.19,1.14-.79,2.21-2.17,2.02-1.44-.2-1.49-1.38-1.48-2.58.01-3.23.07-6.46-.02-9.68-.05-1.89.71-2.63,2.4-2.45,6.28.67,12.3-.99,18.36-2.27,1.18-.25,2.1.29,3.1.61,5.44,1.78,10.94,2.87,16.61,1.39,1.92-.5,3.72-1.35,5.27-2.65.91-.76,1.81-1.79,1.09-3.16-.71-1.34-1.86-.72-2.87-.39-1.96.65-3.89,1.46-5.99,1.43-.73,0-1.61-.1-1.65-1.02-.03-.75.62-1.23,1.36-1.55,8.44-3.67,16.3-8.42,23.37-14.56.73-.64,1.75-1.36.95-2.57-.71-1.07-1.77-1.23-2.86-.59-1.33.78-2.62,1.64-3.97,2.36-.62.33-1.31,1.19-2.05,0-.59-.94.09-1.24.49-1.86,1.64-2.56,3.15-5.22,4.73-7.83.52-.85.17-1.45-.44-1.95-1.15-.94-2.42-1.26-3.73-.41-1.05.68-1.48,1.86-1.94,3-1.93,4.82-4.38,9.34-7.07,13.72-.47.77-1,1.92-2.03,1.41-1.22-.6-.26-1.75-.01-2.49,1.09-3.3,2.04-6.6,2.04-10.14,0-1.71-.39-3.08-2.29-3.12-1.7-.04-2.37.88-2.55,2.76-.31,3.3-.96,6.56-1.54,9.82-.27,1.49-.68,2.95-1.45,4.26-.73,1.22-1.67,2.17-3.08,1.49-1.42-.69-.66-1.93-.31-2.96.62-1.82.26-3.29-1.56-3.85-1.89-.58-3.17.41-3.59,2.38-.33,1.56-.44,3.17-.61,4.77-.11,1.02-.5,1.86-1.36,2.31-1.1.58-2.03.8-1.93-1.16.12-2.18.02-4.37.08-6.55.04-1.41-.37-2.5-1.78-2.69-1.48-.2-1.89.97-2.17,2.23-.59,2.67-.92,5.4-1.93,7.96-.53,1.34-1.12,2.89-2.7,2.72-1.76-.19-1.19-2.02-1.41-3.23-.12-.65-.1-1.33-.22-1.97-.18-.99-.58-1.79-1.71-1.86-1.08-.06-1.63.6-2.01,1.54-.53,1.31-.37,3.69-2.06,3.46-1.7-.23-.6-2.4-.73-3.67-.14-1.44-.88-2-1.96-2.25-1.27-.29-2.29.28-2.92,1.49-.66,1.26-.9,2.65-1.14,4.05-.17,1-.8,1.8-1.82,1.76-1.33-.05-.78-1.27-.8-1.97-.07-2.56-.03-5.13-.01-7.69,0-1.18.27-2.05,1.69-1.86,5.15.67,9.97-1.36,14.91-2.27,7.98-1.46,15.18-5.17,22.01-9.63,1.84-1.2,3.22-3.23,4.73-4.96.73-.85.82-1.88-.03-2.8-.82-.89-1.79-.91-2.69-.29-1.19.82-2.27,1.83-3.45,2.69-.92.67-1.88,1.92-3.06.97-1.21-.97-.3-2.21.12-3.34,1.01-2.69,2.64-5.1,3.18-8,.5-2.69-.66-4.41-2.88-4.21-1.47.14-2.12,1.07-2.47,2.53-.75,3.12-1.55,6.24-2.5,9.29-.52,1.7-1.27,3.35-2.12,4.89-.79,1.42-1.78,3.41-3.65,2.36-1.84-1.04-.14-2.71.2-3.99.7-2.64,1.86-5.13,1.85-7.97,0-1.53-.4-2.61-2.05-2.62-1.64-.01-2.77.63-2.87,2.58-.15,2.95-.62,5.84-1.61,8.6-1.03,2.88-2.56,5.41-4.73,7.5-.72.69-1.54,1.26-2.39.66-.96-.68-.4-1.67-.03-2.55.65-1.55,1.39-3.07,1.27-4.87-.09-1.31-.66-2.15-1.83-2.48-1.1-.31-2.01.18-2.51,1.16-1.01,2-1.93,4.06-2.8,6.14-.87,2.09-2.37,2.97-4.43,2.67-2.19-.32-2.41-2.15-2.46-4.02-.02-.95.01-1.9-.02-2.85-.09-2.48.05-3.96,3.32-4.26,3.6-.32,7.29-1.73,10.49-3.9,3.39-2.3,4.89-5.66,4.59-9.93-.08-1.11-.35-2.14-1.49-2.43-1.23-.31-2.03.41-2.54,1.57-.78,1.77-1.66,3.49-2.34,5.3-.42,1.12-1.02,2-1.96,2.59-.71.45-1.5.7-2.25.04-.71-.62-.79-1.39-.47-2.31.68-1.96,1.36-3.92,1.93-5.91.31-1.08.52-2.22.55-3.34.05-1.77-.94-2.85-2.52-3.18-1.69-.35-2.43.85-2.82,2.33-.64,2.37-1.2,4.75-1.81,7.13-.28,1.08-.79,2.05-1.98,1.92-1.31-.14-1.32-1.35-1.32-2.41,0-2.94.03-5.88,0-8.82-.01-1.43-.56-2.4-2.06-2.57-1.5-.16-2.65.28-3.29,1.79-.53,1.24-.6,2.57-.6,3.9-.01,3.04-.03,6.08-.04,9.12,0,1.2-.41,2.02-1.66,2.09-1.11.07-1.69-.42-1.99-1.64-.74-3.02-1.63-6-2.48-8.99-.5-1.73-1.49-3.06-3.32-2.31-1.72.71-1.88,2.34-1.21,4.06.62,1.58,1.24,3.15,1.84,4.74.4,1.06.96,2.25-.31,3.03-1.16.71-2.29.2-3.16-.72-1.25-1.32-1.69-3.07-2.08-4.85-.39-1.82-.6-4.21-3.19-3.46-2.35.67-2.24,2.76-1.79,4.9.88,4.15,3.21,7.11,6.46,9.4,2.82,1.99,5.99,3.22,9.28,3.44,2.83.19,3.44,1.4,3.16,4.01-.15,1.41.01,2.85-.04,4.27-.03.88.36,1.97-.87,2.39-1.04.36-2.1.67-3.09-.08-.99-.76-.75-1.8-.44-2.84.13-.45.18-.93.24-1.39.26-1.99-.02-3.88-2.25-4.04-2.18-.16-2.82,1.56-2.73,3.63.01.28.01.57,0,.85-.04,1.04.1,2.39-1.12,2.58-1.32.21-1.77-1.02-1.95-2.22-.22-1.5-.35-3.01-.61-4.5-.25-1.41-.85-2.53-2.47-2.43-1.72.11-1.98,1.42-1.94,2.82.04,1.42.24,2.83.37,4.25.1,1.03-.01,1.96-1.17,2.18-1,.2-1.41-.61-1.8-1.37-2.24-4.45-2.54-9.35-2.92-14.22-.05-.66-.02-1.34-.13-1.99-.25-1.51-1.07-2.42-2.58-2.3-1.52.13-1.77,1.3-1.79,2.66-.05,3.14.15,6.25.47,9.37.12,1.12.56,2.76-1.04,3.11-1.71.37-1.92-1.23-2.26-2.52-1.19-4.47-2.35-8.96-3.62-13.4-.36-1.26-.61-2.8-2.61-2.41-1.98.38-2.42,1.66-2.38,3.45.07,3.22,1.35,6.06,2.42,8.98.36.98.91,1.98-.19,2.8-1.1.82-1.88-.07-2.55-.77-1.65-1.74-3.25-3.53-4.82-5.35-1.13-1.31-2.24-2.81-4.01-1.24-1.79,1.59-.89,3.17.32,4.66,5.1,6.27,11.59,10.56,18.62,13.77,7.7,3.51,15.87,5.22,24.29,5.41,2.79.06,3.98,1.12,3.96,4.02-.01,2.49.64,5.06-.48,7.52-.92,2.02-1.94,1.7-2.85.19-.81-1.34-1.28-2.91-1.98-4.33-.66-1.34-1.4-2.86-3.16-2.38-1.8.49-1.5,2.09-1.19,3.51.37,1.67.08,3.22-1.43,3.83-1.63.66-3.18,0-4.21-1.61-1.11-1.7-1.31-3.71-1.63-5.67-.11-.65-.06-1.34-.22-1.98-.4-1.6-1.19-2.79-2.99-2.59-2,.22-1.98,2.11-2.02,3.42-.04,1.61.57,3.24.93,4.86.25,1.15.75,2.45-.49,3.18-1.38.81-2.43-.17-3.16-1.3-1.56-2.41-2-5.26-2.18-8.07-.14-2.23-1.02-3.5-2.99-3.49-2.09,0-2.48,1.64-2.31,3.56.06.74.03,1.44.27,2.2.36,1.13.23,2.39-1.05,2.84-1.19.41-2.09-.33-2.65-1.39-.43-.82-.75-1.71-1.02-2.61-1.09-3.61-2.14-7.24-3.2-10.86-.35-1.22-.71-2.49-2.26-2.24-1.41.23-1.76,1.52-1.94,2.75-.37,2.52.45,4.86,1.08,7.23.24.89,1.13,1.85-.11,2.73-1.23.89-1.68-.46-2.43-.91-1.33-.81-1.96-2.19-2.35-3.66-.36-1.37-.55-2.78-.79-4.18-.3-1.77-.38-3.71-2.42-4.34-.97-.3-2.01-.25-2.75.63-1.37,1.61-.25,3.21.13,4.81.33,1.39,1.89,3,.54,4.11-1.31,1.08-2.55-.73-3.7-1.5-1.51-1.01-2.91-2.2-4.39-3.27-1.16-.84-2.58-.9-3.43.16-.87,1.08-.15,2.45.75,3.26,5.06,4.55,9.91,9.42,16.35,11.9,3.6,1.39,7.06,3.22,10.58,4.83.52.24,1.12.53,1.04,1.13-.11.81-.85.84-1.5.82-1.74-.06-3.28-.86-4.89-1.42-1.17-.41-2.57-1.19-3.27.5-.67,1.6.42,2.72,1.67,3.43,4.04,2.3,8.35,2.91,12.86,2.09,2.64-.48,5.17-1.39,7.74-2.12,2.7-.77,5.41.75,8.13,1.1,1.04.13,3.29-.69,3.17,1.38-.09,1.64-2.15,1.19-3.4,1.42-1.01.19-2.46-.27-2.62,1.26-.16,1.53,1.25,2,2.37,2.24,4.39.93,8.51-.16,12.47-2.16.78-.39,1.41-1.22,2.45-1.03,0,3.41.02,6.81,0,10.21-.02,2.1-1.66,2.62-3.06,2.91-1.71.35-2.32-1.18-2.53-2.64-.23-1.54-.4-2.91-1.98-3.72-1-.51-1.63-.53-2.54.17-.99.77-1.15,1.62-.81,2.71.25.81.61,1.58.9,2.37.35.97.91,2.03.05,2.92-.87.9-2.05.63-3.04.25-2.59-1-3.86-3.49-5.28-5.72-1.11-1.73-1.48-3.84-2.01-5.85-.4-1.51-1.18-2.65-2.84-2.34-1.79.33-2.13,1.74-2.03,3.43.08,1.3.66,2.35,1.3,3.38.54.87,1.2,1.67,1.66,2.59.76,1.49,2.46,3.2.31,4.65-2.05,1.38-3.5-.24-4.63-1.96-1.18-1.81-1.88-3.86-2.5-5.95-.48-1.61-1.14-3.2-3.14-2.67-1.82.48-2.06,1.82-1.61,3.67.33,1.34.42,3.07-1.36,3.49-1.69.4-2.71-.82-3.21-2.36-.5-1.51-.75-3.12-1.13-4.68-.2-.82-.3-1.71-.68-2.43-.74-1.44-1.72-3.03-3.49-2.44-1.97.66-1.04,2.46-.78,3.88.1.56.32,1.1.38,1.66.12,1.07.81,2.4-.39,3.11-1.39.81-2.44-.29-3.18-1.35-3.15-4.54-3.82-9.91-4.34-15.31-.06-.66-.02-1.33-.07-1.99-.1-1.52-.76-2.52-2.31-2.56-1.53-.04-2.62.68-2.92,2.33-.24,1.33-.02,2.64.39,3.92.34,1.08.7,2.15.95,3.26.2.89.57,2.04-.61,2.43-.97.32-1.42-.65-1.74-1.42-1.52-3.54-2.99-7.1-4.47-10.66-.22-.52-.39-1.06-.62-1.57-.56-1.26-.97-2.93-2.78-2.28-1.96.7-2.11,2.29-1.45,4.16,1,2.81,1.96,5.64,2.91,8.47.32.95,1.13,2.11.24,2.9-1.06.95-1.91-.37-2.76-.93-.83-.55-1.52-1.35-2.37-1.84-1.37-.79-3.1-2.16-4.22-.13-.96,1.74.3,3.53,1.7,4.5,3.5,2.44,6.76,5.28,10.53,7.3.76.41,1.91.82,1.48,2-.36,1-1.46.95-2.35.79-2.57-.46-5.05-1.22-7.39-2.46-.88-.46-1.76-.96-2.69-1.28-1.04-.35-2.2-.53-2.91.65-.76,1.27-.16,2.4.71,3.31,1.79,1.86,4.11,2.65,6.46,3.25,4.3,1.1,8.64,1.39,13,.37.64-.15,1.58-.67,1.85.31.25.89-.44,1.45-1.3,1.82-2.59,1.1-5.3,1.69-7.98,2.41-1.34.36-3.18.55-2.94,2.59.22,1.86,2,2.15,3.39,2.11,5.54-.19,10.86-1.21,15.06-5.57.5-.52,1.05-1.12,1.68-1.35,1.33-.48,2.62.02,3.24,1.27.67,1.33-.7,1.77-1.48,2.23-2.66,1.56-5.4,2.97-8.07,4.51-1.13.65-2.34,1.65-1.25,3.1.95,1.26,1.84,2.76,4.12,1.8,4.97-2.09,9.39-4.92,13.09-9.01,1.25-1.39,2.79-1.07,4.24-.73,5.94,1.38,11.97,2.07,17.97,3,2.74.42,5.31.52,8.02.39,3.67-.18,4.63.97,4.65,4.8.03,5.11.03,5.04-4.88,5.12-1.79.03-2.9-.61-4-2.16-3.42-4.78-9.82-6.83-14.66-4.94-1,.39-2.27.74-2.15,2.15.12,1.35,1.44,1.11,2.35,1.36,1.99.52,4.09.54,6,1.43.83.39,1.91.69,1.76,1.82-.2,1.49-1.45.8-2.18.67-4.21-.76-8.4-1.64-12.59-2.48-.53-.11-1.04-.27-1.57-.35-1.3-.2-3.01-.9-3.58.76-.64,1.88,1.06,2.82,2.4,3.54,2.73,1.48,5.69,2.11,8.72,2.47.93.11,2.29.05,2.28,1.3,0,1.27-1.43,1.34-2.33,1.4-2.41.15-4.83.1-7.24.13-.71,0-1.57-.14-1.85.75-.32,1.02.49,1.54,1.17,1.98,1.3.83,2.71,1.19,4.26,1.3,6.92.5,13.35-.95,19.09-5.21,1.98-1.47,4.26-1.3,6.43-1.42,1.65-.1,2.56,1.36,2.5,3.09-.21,5.76.11,11.55-.9,17.25-.34,1.93.45,3.72.41,5.6-.36,16.51-.69,33.02-1.04,49.54-.06,2.92-2.59,4.58-6.34,4.02-7.18-1.07-14.19-2.89-21.02-5.52-11.27-4.34-21.68-10.36-30.63-18.85-7.08-6.71-13.64-13.9-18.49-22.82-2.68-4.93-5.48-9.74-7.37-15.06-3.31-9.3-5.49-18.84-6.05-28.87-.67-11.9.85-23.41,4.49-34.58,1.81-5.54,4.33-10.8,6.89-16.05,3.02-6.2,6.84-11.65,11.08-16.79,7.13-8.65,15.42-15.92,24.95-21.47,16.43-9.58,34.01-14.4,52.77-13.64,10.28.41,20.58,1.61,30.16,5.82,5.89,2.59,11.73,5.31,17.42,8.63,17.7,10.33,30.3,25.3,38.99,44.28,3.39,7.41,5.05,15.36,6.52,23.49,2.2,12.1,1.72,23.9-.74,35.74-2.44,11.75-6.85,22.65-13.42,32.49-4.49,6.72-9.43,13.02-15.35,18.44-15.6,14.27-33.59,22.66-54.1,24.87-3.58.39-4.75-.72-4.8-4.22-.38-23.73-.76-47.46-1.1-71.19-.01-1.04-.65-2.6.63-3.04,1.28-.44,2.76-.55,4.05.59,5.07,4.5,11.03,5.49,17.36,4.61,1.84-.26,3.85,0,5.47-1.56.61-.59,1-1.08.83-1.87-.17-.81-.86-.89-1.5-.85-2.14.14-4.28.35-6.42.46-2.59.13-5.11-.11-7.3-1.98Z"/>
    </g>
  </g>
</svg>