<?xml version="1.0" encoding="UTF-8"?>
<svg id="Layer_1" xmlns="http://www.w3.org/2000/svg" viewBox="0 0 290.81 290.81">
  <defs>
    <style>
      .cls-1 {
        fill: #e61e26;
      }
    </style>
  </defs>
  <g id="GKQrQ2">
    <g id="oJISUr">
      <path class="cls-1" d="M140.78,54.83c3.09,0,6.17,0,9.26,0,.29.06.58.16.87.18,15.01.91,28.94,5.3,41.74,13.16,13.08,8.03,23.49,18.72,31.21,31.98,6.23,10.71,10.07,22.23,11.53,34.54.2,1.69.4,3.38.59,5.07v11.27c-.07.32-.17.65-.2.97-.58,8.38-2.32,16.52-5.23,24.39-6.04,16.36-15.96,29.91-29.72,40.61-13.22,10.28-28.19,16.39-44.82,18.39-1.66.2-3.32.39-4.98.58h-11.07c-2.22-.26-4.45-.49-6.67-.78-10.91-1.43-21.22-4.79-30.86-10.07-16.52-9.05-29.12-21.95-37.75-38.7-5-9.72-8.08-20.03-9.28-30.9-.2-1.83-.39-3.66-.58-5.48,0-3.02,0-6.04,0-9.06.06-.36.16-.71.18-1.07.49-8.25,2.02-16.3,4.82-24.07,8.82-24.4,25.02-42.09,48.54-53.03,8.57-3.99,17.62-6.39,27.03-7.4,1.79-.19,3.59-.38,5.38-.58ZM135.02,215.19c.02-.29.06-.59.06-.88,0-10.1-.01-20.19,0-30.29,0-.76-.23-.97-.98-.97-4.19.03-8.39.02-12.58.03-2.69,0-5.29-.49-7.71-1.65-7.49-3.6-11.52-9.59-11.64-17.92-.14-9.39-.05-18.78-.02-28.18,0-2.71-.09-5.45.2-8.14.98-9.29,9.04-16.75,18.36-17.03,4.39-.13,8.79-.07,13.18-.04.9,0,1.2-.21,1.2-1.16-.03-10.77-.02-21.53-.02-32.3,0-.35-.04-.7-.07-1.06-32.93,4.44-63.04,35.02-60,75.22,2.82,37.28,32.96,61.16,60.01,64.36ZM155.89,215.25c30.9-4.2,59.41-31.4,60.17-68.34.78-38.1-28.09-66.91-60.16-71.3v34.45c.4.02.76.05,1.12.05,1.91,0,3.82-.05,5.74,0,3.21.07,6.47-.09,9.63.34,8.99,1.23,16.16,9.32,16.26,18.41.13,11.54.03,23.08.06,34.61.03,11.11-9.17,19.94-20.14,19.63-3.82-.11-7.65-.03-11.47-.03-.39,0-.78,0-1.22,0v32.18ZM122.09,129.49c-.02.43-.05.76-.05,1.08,0,10.63.01,21.26-.02,31.9,0,.99.21,1.3,1.26,1.3,14.72-.04,29.45-.02,44.17-.02.43,0,.86,0,1.34,0v-34.26h-46.69Z"/>
    </g>
  </g>
</svg>