<?xml version="1.0" encoding="UTF-8"?>
<svg id="Layer_1" xmlns="http://www.w3.org/2000/svg" viewBox="0 0 290.81 290.81">
  <defs>
    <style>
      .cls-1 {
        fill: #614ad9;
      }

      .cls-2 {
        fill: #fff;
      }
    </style>
  </defs>
  <g id="_x38_3vMa2">
    <rect class="cls-1" width="290.81" height="290.81"/>
    <g>
      <path class="cls-2" d="M74.75,119.94c0,13.42-.05,26.85.04,40.27.02,2.82.38,5.67.87,8.46,2.81,15.95,10.36,29.3,22.48,40.01,16.9,14.93,36.74,20.31,58.8,16.98,16.44-2.48,30.33-10.24,41.37-22.76,15.52-17.59,20.82-38.09,16.1-60.93-6.52-31.6-36.01-54.96-69.15-54.49-8.28.12-15.05,6.72-15.21,15.01-.16,8.06,6.81,15,14.99,15.36,4,.17,8.07.66,11.93,1.68,20.24,5.36,32.58,26.49,27.59,46.4-4.98,19.86-24.9,32.71-45.05,29.82-19.47-2.8-34.43-19.32-34.48-38.93-.02-8.64,0-17.28,0-25.93,0-17.19.05-34.38-.03-51.58-.04-8.6-7.56-15.54-15.94-15.08-7.93.44-14.3,6.84-14.31,15.16,0,13.51,0,27.03,0,40.54ZM165.17,155.56c0-11.68-8.89-20.35-20.5-20.71-11.31-.35-21.19,9.84-20.91,20.65.31,11.87,8.9,20.77,20.71,20.77,11.84,0,20.7-8.86,20.7-20.71Z"/>
      <path class="cls-2" d="M74.75,119.94c0-13.51,0-27.03,0-40.54,0-8.32,6.38-14.71,14.31-15.16,8.39-.47,15.9,6.48,15.94,15.08.08,17.19.03,34.38.03,51.58,0,8.64-.02,17.28,0,25.93.05,19.61,15.01,36.13,34.48,38.93,20.15,2.9,40.07-9.95,45.05-29.82,4.99-19.91-7.35-41.03-27.59-46.4-3.86-1.02-7.93-1.51-11.93-1.68-8.18-.36-15.15-7.3-14.99-15.36.16-8.3,6.93-14.9,15.21-15.01,33.14-.48,62.62,22.89,69.15,54.49,4.72,22.84-.58,43.34-16.1,60.93-11.04,12.52-24.93,20.28-41.37,22.76-22.06,3.32-41.9-2.05-58.8-16.98-12.12-10.71-19.67-24.05-22.48-40.01-.49-2.79-.85-5.64-.87-8.46-.09-13.42-.04-26.85-.04-40.27Z"/>
      <path class="cls-2" d="M165.17,155.56c0,11.85-8.86,20.71-20.7,20.71-11.81,0-20.4-8.9-20.71-20.77-.28-10.81,9.6-21,20.91-20.65,11.6.36,20.49,9.03,20.5,20.71Z"/>
    </g>
  </g>
</svg>