<?xml version="1.0" encoding="UTF-8"?>
<svg id="Layer_1" xmlns="http://www.w3.org/2000/svg" viewBox="0 0 290.81 290.81">
  <defs>
    <style>
      .cls-1 {
        fill: #37ebc8;
      }

      .cls-2 {
        fill: #fff;
      }

      .cls-3 {
        fill: #2267f2;
      }
    </style>
  </defs>
  <g id="_x38_3vMa2">
    <rect class="cls-2" width="290.81" height="290.81"/>
    <g id="R6ALRg.tif">
      <g>
        <path class="cls-3" d="M147.91,44.04c2.2.86,4.54.48,6.8.69,11.13,1.03,21.79,3.83,31.99,8.35,3.98,1.76,5.69,6.03,4.05,9.85-1.69,3.94-5.97,5.61-10.07,3.8-12.05-5.31-24.65-7.9-37.81-7.43-21.73.78-40.65,8.52-56.51,23.42-14.54,13.65-23.5,30.41-26.26,50.15-3.56,25.39,2.74,48.26,19.2,68.02,13.63,16.37,31.1,26.57,52.17,29.78,28.06,4.27,52.79-3.24,73.55-22.77,14.11-13.28,22.67-29.66,25.67-48.78,3-19.17-.12-37.4-9.29-54.55-.89-1.67-1.75-3.32-1.61-5.29.23-3.4,2.49-6.17,5.61-6.89,3.41-.79,6.65.59,8.43,3.74,5.61,9.97,9.55,20.59,11.32,31.87,5.42,34.62-3.94,64.74-28.67,89.64-16.34,16.46-36.39,25.82-59.49,28.47-52.54,6.04-101.08-29.3-110.91-81.24-10.78-56.96,26.47-107.33,78.26-118.34,5.78-1.23,11.62-1.97,17.54-2.11.47-.01,1.06.25,1.38-.38h4.67Z"/>
        <path class="cls-3" d="M94.25,145.52c0-16.02.02-32.04-.03-48.06,0-1.68.29-2.33,2.19-2.32,12.78.09,25.56.01,38.34.06,13.34.05,24.8,8.27,28.04,20.47,2.76,10.42.49,19.64-7.79,26.98-.67.6-1.36.95-.07,1.75,10.33,6.39,14.27,15.89,12.34,27.58-1.94,11.81-9.37,19.14-20.66,22.67-2.86.89-5.82,1.25-8.82,1.25-13.88,0-27.76-.03-41.64.03-1.57,0-1.92-.47-1.91-1.96.05-16.15.03-32.3.03-48.45ZM125.32,180.26c4.15,0,8.29.02,12.44,0,7.4-.05,13.24-6.15,13.32-13.88.07-7.79-5.79-14.09-13.25-14.13-8.42-.05-16.84.01-25.27-.04-1.2,0-1.67.23-1.66,1.57.06,8.29.06,16.58,0,24.88,0,1.23.28,1.66,1.59,1.64,4.27-.08,8.55-.03,12.83-.03ZM123.81,137.12c3.63,0,7.26.04,10.88,0,6.8-.1,12.15-5.45,12.46-12.38.32-7.22-4.54-13.26-11.39-13.75-7.88-.56-15.8-.1-23.69-.23-1-.02-1.15.45-1.15,1.3.02,7.9.03,15.8-.01,23.7,0,1.13.38,1.41,1.44,1.39,3.82-.05,7.64-.02,11.46-.02Z"/>
        <path class="cls-3" d="M196.57,159.88c0,11.41-.03,22.82.03,34.23,0,1.45-.35,1.86-1.82,1.83-4.08-.11-8.17-.07-12.25-.01-1.13.02-1.57-.22-1.56-1.48.04-23.01.04-46.03,0-69.04,0-1.18.3-1.56,1.52-1.54,4.15.07,8.3.09,12.45,0,1.46-.04,1.66.53,1.66,1.8-.04,11.41-.02,22.82-.02,34.23Z"/>
        <path class="cls-1" d="M207.66,64.28c7.35.02,13.32,6.05,13.3,13.42-.02,7.21-6.04,13.24-13.27,13.28-7.37.04-13.47-6.11-13.41-13.54.06-7.22,6.13-13.19,13.38-13.16Z"/>
      </g>
    </g>
  </g>
</svg>