<?xml version="1.0" encoding="UTF-8"?>
<svg id="Layer_1" xmlns="http://www.w3.org/2000/svg" viewBox="0 0 290.81 290.81">
  <defs>
    <style>
      .cls-1 {
        fill: #00a651;
      }

      .cls-1, .cls-2, .cls-3, .cls-4, .cls-5, .cls-6, .cls-7, .cls-8 {
        fill-rule: evenodd;
      }

      .cls-2 {
        fill: #fff;
      }

      .cls-3 {
        fill: #ed1c24;
      }

      .cls-4 {
        fill: #a54686;
      }

      .cls-5 {
        fill: #9e76b4;
      }

      .cls-6 {
        fill: #00aeef;
      }

      .cls-7 {
        fill: #f58220;
      }

      .cls-9 {
        fill: #5c574c;
      }

      .cls-8 {
        fill: #ffcb05;
      }
    </style>
  </defs>
  <g id="_x38_3vMa2">
    <rect class="cls-9" width="290.81" height="290.81"/>
    <g>
      <polygon id="polygon3031" class="cls-3" points="54.67 189.92 54.67 226.7 54.67 226.7 80.59 226.7 80.59 189.92 54.67 189.92"/>
      <polygon id="polygon3033" class="cls-7" points="106.52 189.92 106.52 226.7 106.52 226.7 80.59 226.7 80.59 189.92 106.52 189.92"/>
      <polygon id="polygon3035" class="cls-8" points="106.52 189.92 106.52 226.7 106.52 226.7 132.44 226.7 132.44 189.92 106.52 189.92"/>
      <polygon id="polygon3037" class="cls-1" points="158.37 189.92 158.37 226.7 158.37 226.7 132.44 226.7 132.44 189.92 158.37 189.92"/>
      <polygon id="polygon3039" class="cls-6" points="158.37 189.92 158.37 226.7 158.37 226.7 184.29 226.7 184.29 189.92 158.37 189.92"/>
      <polygon id="polygon3041" class="cls-5" points="210.22 189.92 210.22 226.7 210.22 226.7 184.29 226.7 184.29 189.92 210.22 189.92"/>
      <polygon id="polygon3043" class="cls-4" points="210.22 189.92 210.22 226.7 210.22 226.7 236.14 226.7 236.14 189.92 210.22 189.92"/>
    </g>
    <path id="path3025" class="cls-2" d="M177.26,85.59v19.32h-9.34v-1.05c0-4.66-1.16-8.08-3.47-10.24-2.31-2.17-5.97-3.25-10.99-3.25-7.31,0-12.97,2.51-16.95,7.55-3.98,5.04-5.97,12.19-5.97,21.45s2.05,16.39,6.15,21.59c4.1,5.22,9.74,7.82,16.89,7.82,5.14,0,8.82-1.19,11.07-3.58,2.27-2.39,3.38-6.33,3.38-11.81h9.22v20.53c-4.32,1.31-8.65,2.31-12.95,2.97-4.32.66-8.66,1-13.03,1-12.21,0-21.55-3.32-28.02-9.96-6.48-6.63-9.72-16.19-9.72-28.68s3.4-21.31,10.22-27.98c6.79-6.67,16.35-10,28.64-10,3.59,0,7.43.36,11.55,1.08,4.12.72,8.56,1.82,13.3,3.25h0Z"/>
  </g>
</svg>