<?xml version="1.0" encoding="UTF-8"?>
<svg id="Layer_1" xmlns="http://www.w3.org/2000/svg" viewBox="0 0 290.81 290.81">
  <defs>
    <style>
      .cls-1 {
        fill: #034289;
      }

      .cls-2 {
        fill: #fff;
      }
    </style>
  </defs>
  <g id="_x38_3vMa2">
    <rect class="cls-1" width="290.81" height="290.81"/>
    <path class="cls-2" d="M170.17,203.83v-5.43c0-29.3.02-58.6,0-87.9-.01-13.09-10.86-23.99-24.3-23.9-14.9.1-25.29,12.08-25.05,23.72.59,29.29.19,58.59.19,87.89,0,1.77,0,3.54,0,5.62h49.17ZM227.03,204.15c.22-1.77.47-2.89.47-4,.01-30.49.02-60.98-.05-91.47,0-2.12-.33-4.35-1.04-6.34-3.76-10.5-15.73-17.1-27.37-15.26-11.98,1.9-20.55,10.93-20.62,22.67-.19,29.99-.02,59.98-.12,89.97-.01,3.58,1.36,4.55,4.73,4.49,8.66-.18,17.33-.06,25.99-.06,5.95,0,11.91,0,18.02,0ZM111.92,204.11c.24-1.36.46-2,.46-2.64.01-31.32.15-62.64-.18-93.96-.04-3.67-1.95-7.8-4.17-10.87-6.35-8.77-18.12-12.07-28.08-8.6-11.18,3.9-16.62,11.68-16.63,23.86-.01,22.82,0,45.65,0,68.47,0,6.66-.13,13.33.15,19.99.05,1.29,1.72,3.58,2.68,3.59,15.13.23,30.26.16,45.77.16Z"/>
  </g>
</svg>