<?xml version="1.0" encoding="UTF-8"?>
<svg id="Layer_1" xmlns="http://www.w3.org/2000/svg" viewBox="0 0 290.81 290.81">
  <defs>
    <style>
      .cls-1 {
        fill: #005ca8;
      }

      .cls-2 {
        fill: #ffca00;
      }

      .cls-3 {
        fill: #fcfdfd;
      }
    </style>
  </defs>
  <g id="_x38_3vMa2">
    <rect class="cls-1" width="290.81" height="290.81"/>
    <g>
      <g id="sswc44.tif">
        <g>
          <path class="cls-3" d="M122.68,203.06c-19.44,0-35.18-15.79-35.15-35.23.08-44.85.07-74.82-.11-76.92-.02-.29-.19-1.7.65-2.54.85-.85,2.29-.63,2.6-.63,26,.09,52.01,0,78.01.08,17.95.06,33.98,14.52,34.43,32.36.61,23.91.1,47.84.07,71.77.03,3.72.06,7.43.09,11.15-26.87-.01-53.73-.02-80.6-.04ZM145.61,142.4c-9.44,0-18.87.03-28.31,0-3.23-.01-7.33-.95-9.12,2.28-1.81,3.27-1.73,8.34,1.04,11.44,2.36,2.64,5.81,3.06,7.97,3.29,5.66.6,14.84,1.28,27.45.99,14.42,0,25.37-.38,30.43-.81,1.1-.09,3.32-.31,5.06-1.92,1.96-1.82,2.34-4.45,2.51-6.48.59-7.19-.55-8.77-8.07-8.79-9.65-.02-19.3.01-28.95.01ZM114.67,121.96c-.24,5.96-.48,11.91-.71,17.87l13.01.13c.11-1.47.23-2.93.34-4.4,11.42.04,22.83.08,34.25.12.05,1.09.11,2.18.16,3.26,4.71.04,9.43.07,14.14.11.01-2.08.03-4.16.04-6.24-3.99-3.59-7.99-7.19-11.98-10.78-16.42-.02-32.84-.05-49.25-.07ZM162.63,119.36l-13.45-11.8-9.78-.39s0-.05,0-.07c-2.85-2.63-4.72-4.35-7.57-6.98-5.55.04-11.1.09-16.65.13-.09,6.16-.17,12.32-.26,18.48l47.72.63ZM145.66,180.03c5.55-.03,13.15-.07,20.71-5.02,6.23-4.09,9.45-9.56,10.91-12.54l-14.17.58c-.86,1.85-3.43,6.69-9.02,9.49-3.61,1.81-6.87,1.96-8.37,2.02-2.41.09-6.55.24-10.6-2.41-3.76-2.46-5.38-6-6-7.62l-15.81-1.95c1.61,3,5.38,9.02,12.65,13.2,7.5,4.31,14.57,4.28,19.71,4.25Z"/>
          <path class="cls-3" d="M143.94,156.19c-11.2-.04-16,.63-17.35-2.12-.71-1.43-.06-3,.02-3.2,1.7-4,9.58-3.95,17.59-3.89,7.9.05,16.15.11,17.66,4.11.05.14.6,1.65-.12,3.06-1.46,2.82-6.33,2.08-17.8,2.04Z"/>
          <path class="cls-3" d="M145.48,132.29c-5.92,0-11.75.05-17.5.14.06-2.28.12-4.57.19-6.85,11.16.07,22.32.15,33.48.22.02,2.21.04,4.41.07,6.62-5.33-.08-10.75-.13-16.24-.13Z"/>
          <rect class="cls-3" x="128.21" y="112.96" width="16.25" height="3.34"/>
          <rect class="cls-3" x="128.21" y="104.27" width="2.11" height="3.34"/>
        </g>
      </g>
      <rect class="cls-2" x="153.34" y="194.83" width="49.94" height="8.27"/>
    </g>
  </g>
</svg>