<?xml version="1.0" encoding="UTF-8"?>
<svg id="Layer_1" xmlns="http://www.w3.org/2000/svg" viewBox="0 0 290.81 290.81">
  <defs>
    <style>
      .cls-1 {
        fill: #fff;
      }

      .cls-2 {
        fill: #008a70;
      }
    </style>
  </defs>
  <g id="_x38_3vMa2">
    <rect class="cls-2" width="290.81" height="290.81"/>
    <g id="CejkC0">
      <g>
        <path class="cls-1" d="M206,133.71c-.18-4.03-.3-7.78-.53-11.53-.45-7.24-1.18-14.46-3.4-21.41-.58-1.83-1.5-3.55-2.29-5.31-.27-.59-.66-.85-1.36-.48-9,4.76-18.02,9.49-27.02,14.25-1.4.74-2.74,1.57-4.21,2.29,5.78-6.4,11.27-13.02,16.21-20.64-15.95.92-31.52,2.17-47.02,4.96,3.08-1.33,6.14-2.73,9.26-3.96,3.18-1.26,6.41-2.41,9.66-3.5,3.25-1.09,6.53-2.08,9.82-3.02,3.29-.94,6.61-1.82,9.94-2.59,3.33-.77,6.69-1.39,10.29-2.12-.35-.4-.58-.73-.87-.98-5.12-4.28-10.93-7.5-16.72-10.73-4.97-2.78-10.04-5.39-15.17-8.14,2.99.39,5.92.7,8.83,1.17,13.33,2.16,26.26,5.67,38.58,11.27,1.84.84,3.58,1.87,5.4,2.74.51.24,1.17.39,1.72.32,5.43-.69,10.85-1.44,16.36-1.98-1.02,2.89-2.47,5.34-4.75,7.19-1.46,1.19-3.03,2.25-4.5,3.43-.33.27-.6.83-.6,1.26,0,3.23.42,6.5.05,9.69-.81,7.06-1.75,14.12-3.11,21.09-1.05,5.41-2.8,10.69-4.24,16.03-.04.16-.15.29-.36.69Z"/>
        <path class="cls-1" d="M62.54,156.91c6.24-12.05,13.23-23.24,22.83-32.98-6.42-4.84-13.94-5.43-21.46-6.55,2.97-.66,5.92-1.38,8.91-1.96,7.76-1.5,15.6-1.79,23.49-1.36.83.05,1.81-.29,2.5-.77,5.87-4.09,12.1-7.45,18.97-9.57.16-.05.33-.08.83-.2-2.53,3.81-4.52,7.6-5.98,11.86,12.94,1.94,24.83,6.35,35.98,12.92-2.17-.32-4.34-.65-6.52-.97-10.44-1.5-20.88-2.04-31.37-.4-2.24.35-3.48,1.29-4.29,3.49-2.91,7.96-4.75,16.17-6.29,24.46-.04.24-.11.47-.16.7-.14.03-.28.05-.42.08-2.52-7.5-5.04-15-7.66-22.8-10.7,6.82-19.79,15.49-29.37,24.03Z"/>
        <path class="cls-1" d="M60.25,165.98c.95,3.7,1.8,7.28,2.79,10.82,1.31,4.71,3.07,9.24,5.42,13.55.47.86.94,1.04,1.87.87,5.05-.88,10.12-1.68,15.16-2.5-1.71,3.07-3.43,6.06-5.05,9.11-.72,1.35-1.2,2.83-1.83,4.23-.32.71-.19,1.16.4,1.71,5.21,4.86,11.14,8.52,17.81,11.01.16.06.31.11.47.17-.02.11-.03.23-.05.34-3.49-.4-7.01-.66-10.47-1.22-3.49-.57-6.93-1.44-10.4-2.18-.67,2.65-.64,7.51.66,13.54-1.94-2.26-4.06-4.38-5.77-6.8-2.05-2.89-3.93-5.93-5.55-9.08-.9-1.74-2.13-2.67-3.78-3.52-4.83-2.49-9.56-5.16-14.33-7.77l.04-.5c2.6-.95,5.2-1.93,7.82-2.84,1.28-.45,2.59-.84,3.91-1.17.73-.18.9-.56.78-1.23-1.4-7.78-.87-15.57-.22-23.37.08-1,.22-2,.35-3.16Z"/>
        <path class="cls-1" d="M131.69,184.84v-28.07s.2-.12.36-.12c6.72.04,13.44.01,20.16.18,2.64.06,5.23.69,7.54,2.09,3.47,2.09,3.76,5.74.51,8.16-1.38,1.02-3.05,1.64-4.62,2.46.32.11.8.21,1.22.43,1.79.9,3.77,1.57,5.31,2.79,3.1,2.46,2.84,6.52-.37,8.85-2.73,1.98-5.93,2.74-9.18,2.91-5.43.28-10.89.23-16.33.31-1.57.02-3.14,0-4.61,0ZM143.4,171.78c.51-1.09.92-1.86,1.23-2.67.37-.97.9-1.41,2.05-1.37,1.94.06,3.87-.24,5.52-1.43,1.87-1.35,1.79-3.99-.17-5.19-.59-.36-1.27-.71-1.94-.77-2.75-.23-5.51-.33-8.26-.49-.75-.04-.97.34-.96,1.05,0,6.5,0,13-.03,19.5,0,.76.26,1.11,1.08,1.09,1.49-.04,3.01.14,4.48-.04,2.12-.26,4.31-.48,6.28-1.23,3.19-1.22,3.42-4.67.61-6.61-1.87-1.28-4.01-1.74-6.24-1.84-1.13-.05-2.26,0-3.63,0Z"/>
        <path class="cls-1" d="M202.15,184.82c-1.85,0-3.86.03-5.86-.03-.32,0-.7-.33-.93-.61-5.01-5.88-10.01-11.77-15-17.67-.49-.59-.91-1.24-1.63-1.83.14,6.64.29,13.28.44,20.03h-7.77v-28.03c.34-.02.8-.06,1.27-.06,1.1-.01,2.23.16,3.29-.03,3.45-.62,5.68.9,7.73,3.56,3.58,4.64,7.47,9.06,11.29,13.64-.27-5.7-.53-11.35-.8-17.09h7.98v28.11Z"/>
        <path class="cls-1" d="M220.82,173.18c.15,3.97.29,7.69.43,11.52h-9.36v-27.96c.08-.02.25-.11.41-.1,6.02.04,12.04-.08,18.05.22,2.71.13,5.47.84,8.06,1.71,3.39,1.15,4.93,3.56,4.82,6.6-.11,3.04-1.99,4.75-4.53,5.91-3.29,1.51-6.83,1.92-10.4,2.08-2.4.11-4.81.02-7.47.02ZM220.94,164.92s-.04,0-.06,0c0,1.23.05,2.46-.02,3.68-.04.81.25,1.14,1.04,1.1,2.19-.11,4.39-.07,6.55-.38,1.35-.19,2.75-.71,3.91-1.42,2.42-1.49,2.35-4.69-.02-6.22-.55-.35-1.15-.65-1.77-.85-2.85-.88-5.79-.95-8.73-.68-.33.03-.83.6-.86.95-.1,1.26-.04,2.54-.04,3.81Z"/>
        <path class="cls-1" d="M143.26,221.44c-2.73.12-5.23.19-7.71.35-.8.05-1.66.22-2.36.59-6.65,3.48-13.68,5.9-21.02,7.62,1.83-1.34,3.7-2.64,5.49-4.04,1.82-1.43,3.56-2.96,5.69-4.75-4.31-.95-8.15-2.11-11.98-4.08,2.85-.22,5.44-.27,7.97-.64,3.25-.48,6.47-1.19,9.69-1.9.58-.13,1.18-.61,1.57-1.09,3.08-3.72,6.11-7.48,9.15-11.23.16-.2.31-.39.61-.76.23,2.97.45,5.73.69,8.73,5.76-2.64,10.98-5.72,16.12-9.03-2.58,2.45-5.12,4.96-7.76,7.35-2.25,2.03-4.65,3.88-6.92,5.89-.35.31-.56,1.05-.48,1.52.3,1.72.76,3.4,1.25,5.47Z"/>
      </g>
    </g>
  </g>
</svg>