<?xml version="1.0" encoding="UTF-8"?>
<svg id="Layer_1" xmlns="http://www.w3.org/2000/svg" viewBox="0 0 290.81 290.81">
  <defs>
    <style>
      .cls-1 {
        fill: #042d65;
      }

      .cls-2 {
        fill: #fff;
      }
    </style>
  </defs>
  <g id="_x38_3vMa2">
    <rect class="cls-1" width="290.81" height="290.81"/>
    <g id="gYDPtr">
      <path class="cls-2" d="M93.38,95.28h15.12c0,8.42,0,16.54,0,24.67,0,6.34.09,12.67-.02,19.01-.22,12.31,4.81,22.09,14.75,29.02,5.99,4.17,12.52,7.6,19.02,10.96,1.66.86,4.51.96,6.11.1,7.16-3.88,14.42-7.74,20.96-12.54,8.85-6.49,13.05-15.73,12.97-26.84-.07-9.63-.01-19.25-.01-29.27-14.22,0-28.01-.09-41.78.14-1.31.02-3.47,1.95-3.63,3.2-.17,1.27,1.36,3.55,2.66,4.08,5.09,2.04,10.45,3.39,15.59,5.31,6.91,2.58,12.98,6.1,14.52,14.32,2.33,12.5-4.42,23.07-17.04,24.76-6.28.84-12.85-.29-19.27-.81-4.19-.34-6-2.82-5.38-7.15.3-2.1.05-4.29.05-6.89,4.79,0,9.21,0,13.63,0,1.83,0,3.82.46,5.46-.09,2.28-.76,5.54-1.82,6.2-3.57,1.34-3.57-2.28-4.54-4.91-5.51-6.23-2.3-12.74-4-18.7-6.86-8.02-3.85-11.34-11.06-10.03-19.39,1.38-8.78,6.75-15.71,15.39-16.02,20.57-.75,41.19-.24,62.35-.24,0,6.38.06,12.84-.01,19.3-.12,10.16.07,20.35-.59,30.48-.9,13.79-7.56,24.99-18.54,32.93-8.58,6.21-18.03,11.34-27.53,16.09-2.96,1.48-7.87,1.34-10.94-.09-8.42-3.94-16.68-8.43-24.36-13.66-14.64-9.96-22.06-24.13-22.06-41.99,0-14.31,0-28.62,0-43.46Z"/>
    </g>
  </g>
</svg>