<?xml version="1.0" encoding="UTF-8"?>
<svg id="Layer_1" xmlns="http://www.w3.org/2000/svg" viewBox="0 0 290.81 290.81">
  <defs>
    <style>
      .cls-1 {
        fill: #fff;
      }

      .cls-2 {
        fill: #c21722;
      }

      .cls-3 {
        fill: #3b63a9;
      }
    </style>
  </defs>
  <path class="cls-1" d="M0,0v290.81h290.81V0H0Z"/>
  <g id="wEY73f">
    <g>
      <path class="cls-3" d="M144.7,175.96c30.14-20.81,32.03-27.76,9.92-57.69-10.23-13.85-10.63-28.05-9.29-46.25,9.93,22.75,25.91,38.78,36.98,58.11,16.84,29.4,12.76,51.92-13.51,73.55-7.28,6-14.67,12.06-23.88,15.11-.07-14.28-.15-28.55-.22-42.83Z"/>
      <path class="cls-2" d="M144.7,175.96c.07,14.28.15,28.55.22,42.83-18.01-6.79-32.44-18.31-42.27-34.72-9.69-16.17-2.3-34.79,17.39-43.75-3.26,20.17,11.61,27.23,24.67,35.63Z"/>
    </g>
  </g>
</svg>