<?xml version="1.0" encoding="UTF-8"?>
<svg id="Layer_1" xmlns="http://www.w3.org/2000/svg" xmlns:xlink="http://www.w3.org/1999/xlink" viewBox="0 0 290.81 290.81">
  <defs>
    <style>
      .cls-1 {
        fill: url(#linear-gradient);
      }

      .cls-2 {
        fill: #fcc830;
      }

      .cls-3 {
        fill: #fff;
      }
    </style>
    <linearGradient id="linear-gradient" x1="0" y1="145.41" x2="290.81" y2="145.41" gradientUnits="userSpaceOnUse">
      <stop offset="0" stop-color="#5b06ae"/>
      <stop offset="1" stop-color="#a10085"/>
    </linearGradient>
  </defs>
  <path class="cls-1" d="M0,0v290.81h290.81V0H0Z"/>
  <g id="I8ZwDC.tif">
    <g>
      <path class="cls-3" d="M44.06,139.27c.23-.48.51-.95.69-1.45,1.76-5.2,7.2-8.1,12.43-6.61,5.24,1.5,8.48,6.83,7.1,12.12-1.12,4.29-4.41,7.47-9.13,7.74-4.83.28-8.89-2.44-10.36-6.79-.19-.56-.48-1.08-.73-1.62,0-1.13,0-2.26,0-3.38Z"/>
      <path class="cls-3" d="M44.06,176.17c.24-.48.54-.93.7-1.43,1.75-5.21,7.2-8.13,12.41-6.62,5.24,1.52,8.54,6.9,7.02,12.13-1.25,4.33-4.14,7.28-9,7.67-4.65.37-8.81-2.38-10.34-6.61-.22-.6-.53-1.17-.81-1.75,0-1.13,0-2.26,0-3.38Z"/>
      <path class="cls-2" d="M131.51,159.06c-.04-14.67,9.53-26.84,23.13-29.75,7.74-1.66,15.01-.22,21.69,4.27,6.56,4.41,10.72,10.43,12.48,18.01,3.91,16.84-7.47,34.28-25.53,36.36-12.36,1.42-24.98-6.51-29.68-18.63-1.38-3.56-2.14-7.23-2.08-10.26ZM174.07,158.27c.03-9.55-8.54-16.41-17.26-13.83-7.21,2.13-11.36,9.84-9.44,17.52,1.56,6.22,6.65,10.61,12.55,10.81,7.85.26,14.13-6.17,14.16-14.5ZM100.12,155.58c-3.33-7.64-6.69-15.27-9.95-22.94-.8-1.88-1.96-2.66-4.01-2.59-3.5.12-7.01.03-10.51.04-3.12,0-3.86,1.18-2.5,3.99,8.32,17.19,16.66,34.37,24.97,51.57.68,1.42,1.5,2.43,3.28,2.43,1.78,0,2.58-1.04,3.26-2.45,3.35-6.95,6.74-13.89,10.13-20.82,4.99-10.23,9.99-20.45,14.98-30.68,1.44-2.96.77-4.02-2.56-4.03-3.33,0-6.67.07-10-.03-2.01-.06-3.2.67-4.05,2.55-3.59,7.96-7.33,15.85-11.01,23.77-.23.49-.49.97-.87,1.71-.47-1.01-.83-1.75-1.16-2.51ZM228.29,158.23c0,8.34,0,16.69,0,25.03,0,2.36,1.06,3.4,3.42,3.41,3.45.02,6.89.02,10.34,0,2.46,0,3.5-1.03,3.5-3.5.01-16.57.02-33.15.01-49.72,0-2.44-.95-3.39-3.37-3.4-3.45-.02-6.89-.01-10.34,0-2.79,0-3.57.81-3.57,3.66,0,8.17,0,16.35,0,24.52h.01ZM216.15,158.22c0-8.29,0-16.58,0-24.87,0-2.39-.89-3.29-3.24-3.3-3.56-.02-7.12-.02-10.68,0-2.28.01-3.21.91-3.21,3.16,0,16.75,0,33.49.02,50.24,0,2.2,1.01,3.18,3.23,3.2,3.45.02,6.89.01,10.34,0,2.63,0,3.53-.91,3.53-3.58,0-8.29,0-16.58,0-24.87h.01ZM207.4,122.31c5.35,0,9.91-4.47,9.96-9.75.05-5.34-4.52-9.86-9.98-9.86-5.33,0-9.64,4.33-9.66,9.71-.02,5.46,4.33,9.91,9.68,9.9ZM236.78,122.31c5.35,0,9.91-4.47,9.96-9.75.05-5.34-4.52-9.86-9.98-9.86-5.33,0-9.64,4.33-9.66,9.71-.02,5.46,4.33,9.91,9.68,9.9Z"/>
    </g>
  </g>
</svg>