<?xml version="1.0" encoding="UTF-8"?>
<svg id="Layer_1" xmlns="http://www.w3.org/2000/svg" viewBox="0 0 290.81 290.81">
  <defs>
    <style>
      .cls-1 {
        fill: #0572bb;
      }

      .cls-2 {
        fill: #016fba;
      }

      .cls-3 {
        fill: #0671bb;
      }

      .cls-4 {
        fill: #fff;
      }

      .cls-5 {
        fill: #016fbb;
      }

      .cls-6 {
        fill: #0370ba;
      }

      .cls-7 {
        fill: #036fba;
      }
    </style>
  </defs>
  <path class="cls-4" d="M0,0v290.81h290.81V0H0Z"/>
  <g id="CIj0Kl">
    <g>
      <path class="cls-7" d="M175.22,111.05c0,6.83-.18,13.67.06,20.49.16,4.47-1.63,5.75-5.99,5.94-16.11.69-16.1.85-16.1-15.3,0-10.24-.12-20.49.05-30.73.13-7.8,4.45-12.55,10.93-12.57,6.45-.01,10.74,4.7,11,12.54.21,6.54.04,13.09.04,19.63Z"/>
      <path class="cls-6" d="M115.5,178.89c0-6.54.25-13.1-.09-19.63-.24-4.55,1.53-5.76,5.86-5.99,16.3-.88,16.29-1.02,16.29,15.18,0,9.96.08,19.92-.03,29.88-.09,8.4-4.34,13.55-10.91,13.61-6.47.05-10.96-5.29-11.09-13.42-.1-6.54-.02-13.09-.03-19.63Z"/>
      <path class="cls-2" d="M110.68,137.35c-7.12,0-14.24.02-21.36-.01-6.82-.03-11.05-3.71-11.27-10.23-.22-6.57,3.9-10.76,10.62-10.89,14.52-.28,29.05,0,43.57-.19,4.22-.05,5.63,1.77,5.31,5.62-.02.28.01.57.01.85-.14,18.38,1.36,14.47-14.07,14.84-4.27.1-8.54.02-12.82.01Z"/>
      <path class="cls-5" d="M179.75,174.66c-6.84,0-13.69-.19-20.52.07-4.39.17-5.89-1.38-6.13-5.84-.82-15.56-.99-15.55,14.25-15.55,11.12,0,22.23.08,33.35-.03,7.2-.07,11.79,3.35,11.97,10.41.18,7.14-4.48,10.75-11.55,10.87-7.12.12-14.25.03-21.38.03,0,.01,0,.03,0,.04Z"/>
      <path class="cls-3" d="M123.02,100.34c-2.84,0-5.73.34-8.51-.07-5.68-.83-9.36-3.97-9.62-10.06-.28-6.47,3.25-10.46,9.31-11.17,6.17-.72,12.48-.18,18.73-.22,3.15-.02,4.72,1.44,4.65,4.64-.05,1.99,0,3.97,0,5.96q0,10.99-11.14,11c-1.14,0-2.27,0-3.41,0v-.08Z"/>
      <path class="cls-1" d="M166.43,211.98c-2,0-4.02-.21-5.98.04-5.55.69-7.52-1.45-7.37-7.15.47-17.3-1.67-14.36,14.46-14.61,2.85-.05,5.74-.24,8.54.13,6.19.82,10.02,4.46,9.91,10.79-.11,6.26-3.99,9.9-10.16,10.64-3.09.37-6.26.06-9.4.06,0,.03,0,.07,0,.1Z"/>
      <path class="cls-6" d="M191.02,124.06c0-2.85-.19-5.71.04-8.54.53-6.42,4.51-9.97,10.59-10.18,6.18-.21,10.43,3.41,11.07,9.62.61,5.92.13,11.95.24,17.93.06,3.33-1.59,4.62-4.73,4.48-1.14-.05-2.28.02-3.42,0-16.2-.21-13.58,1.9-13.78-13.31Z"/>
      <path class="cls-6" d="M77.81,166.13c0-2.85.08-5.7-.02-8.54-.11-2.86,1.14-4.18,3.99-4.2,4.56-.03,9.12-.24,13.68-.19,2.04.02,4.23.56,4.21,3.21-.06,7.1.37,14.31-.69,21.28-.81,5.3-5.24,7.81-10.87,7.52-5.74-.3-8.94-3.7-9.99-8.85-.67-3.28-.12-6.8-.12-10.22-.06,0-.12,0-.17,0Z"/>
    </g>
  </g>
</svg>