<?xml version="1.0" encoding="UTF-8"?>
<svg id="Layer_1" xmlns="http://www.w3.org/2000/svg" viewBox="0 0 290.81 290.81">
  <defs>
    <style>
      .cls-1 {
        fill: #487629;
      }

      .cls-2 {
        fill: #236092;
      }

      .cls-3 {
        fill: #80bc00;
      }

      .cls-4 {
        fill: #00b2e3;
      }

      .cls-5 {
        fill: #fff;
      }

      .cls-6 {
        fill: #003a70;
      }

      .cls-7 {
        fill: #4c9c2e;
      }

      .cls-8 {
        fill: #1a5632;
      }
    </style>
  </defs>
  <path class="cls-5" d="M0,0v290.81h290.81V0H0Z"/>
  <g>
    <path class="cls-6" d="M151.35,178.59c-1.1,11.88-6,23.09-13.99,31.96-1.12,1.12-1.12,2.94,0,4.06,0,0,0,0,0,0,.56.63,8.6,8.67,12.52,12.52,1.08,1.1,2.86,1.11,3.96.03.01-.01.02-.02.03-.03,13.59-14.77,21.09-34.13,20.98-54.2.13-7.19-.72-14.37-2.52-21.33-3.98,8.35-9.35,15.96-15.88,22.52-1.62,1.59-3.32,3.08-5.11,4.48Z"/>
    <path class="cls-6" d="M143.73,144.25c.98,1.68,1.89,3.43,2.73,5.18,1.9-2.65,3.54-5.49,4.9-8.46-2.47,1.25-5.02,2.34-7.62,3.29Z"/>
    <path class="cls-6" d="M98.27,93.48c-1.54-.04-2.83,1.18-2.87,2.73,0,.02,0,.05,0,.07v17.69c0,1.58,1.28,2.87,2.87,2.87,9.44.48,18.61,3.34,26.65,8.32,8.94-1.44,17.39-5.04,24.62-10.49-13.97-13.02-32.18-20.55-51.26-21.19Z"/>
    <path class="cls-3" d="M170.79,81.66c-3.33-6.52-7.51-12.57-12.45-17.97-1.12-1.12-2.94-1.12-4.06,0,0,0,0,0,0,0l-12.59,12.52c-1.1,1.08-1.11,2.86-.03,3.96.01.01.02.02.03.03,7.44,8.21,12.31,18.42,13.99,29.37h0c7.62-7.65,12.87-17.34,15.11-27.91Z"/>
    <path class="cls-3" d="M146.45,149.43c-2.05,2.96-4.39,5.7-6.99,8.18-7.19,7.15-16.14,12.26-25.95,14.83-1.49.23-2.5,1.63-2.27,3.12,0,.06.02.11.03.17,0,1.26,2.38,12.03,3.43,17.34.32,1.54,1.81,2.54,3.36,2.24l1.82-.49c11.6-2.92,22.37-8.47,31.47-16.23.11-1.89.11-3.78,0-5.66.09-8.1-1.58-16.11-4.9-23.5Z"/>
    <path class="cls-3" d="M179.33,117.47c-2.13,2.94-4.47,5.72-6.99,8.32-2.49,2.51-5.16,4.85-7.97,6.99,3.43,5.91,6.11,12.23,7.97,18.81,4.75-10.6,7.13-22.1,6.99-33.71v-.42Z"/>
    <path class="cls-1" d="M151.35,140.97c-1.28,2.97-2.85,5.8-4.69,8.46,3.24,7.4,4.84,15.42,4.69,23.5.11,1.89.11,3.78,0,5.66,1.71-1.4,3.35-2.89,4.9-4.48,6.6-6.54,12.04-14.16,16.09-22.52-1.93-6.59-4.68-12.91-8.18-18.81-3.99,3.14-8.27,5.88-12.8,8.18Z"/>
    <path class="cls-4" d="M195.41,72.57c-.07-1.53-1.34-2.73-2.87-2.73h-17.62c-1.58,0-2.87,1.28-2.87,2.87-.2,3.06-.62,6.09-1.26,9.09,5.58,11.06,8.5,23.28,8.53,35.67,9.86-12.95,15.48-28.63,16.09-44.9Z"/>
    <path class="cls-4" d="M156.04,121.45v-3.57c.01-2.78-.15-5.56-.49-8.32-1.89,1.83-3.9,3.54-6.01,5.11l1.82,2.03c1.82,1.54,3.29,3.15,4.69,4.76Z"/>
    <path class="cls-2" d="M156.04,121.45c-1.4-1.61-2.87-3.22-4.41-4.76l-2.1-2.03c-7.23,5.45-15.68,9.05-24.62,10.49,3.68,2.3,7.11,5,10.21,8.04,3.29,3.34,6.18,7.04,8.6,11.05,2.6-.94,5.15-2.04,7.62-3.29,2.7-6.18,4.28-12.78,4.69-19.51Z"/>
    <path class="cls-7" d="M156.04,121.45c3.02,3.54,5.73,7.33,8.11,11.33,2.89-2.14,5.62-4.47,8.18-6.99,2.53-2.65,4.87-5.48,6.99-8.46-.06-12.45-3.03-24.71-8.67-35.81-2.24,10.6-7.52,20.32-15.18,27.98h0c.36,2.76.55,5.54.56,8.32.07.98.07,2.45,0,3.64Z"/>
    <path class="cls-8" d="M151.35,140.97c4.52-2.3,8.81-5.04,12.8-8.18-2.38-4-5.09-7.79-8.11-11.33-.4,6.73-1.99,13.33-4.69,19.51Z"/>
    <path class="cls-4" d="M124.91,125.16c-2.98.46-6,.67-9.02.63-2.71-.02-5.42-.2-8.11-.56-1.51-.34-3,.61-3.35,2.11,0,.02,0,.04-.01.06l-3.36,17.41c-.37,1.46.51,2.94,1.97,3.31.06.02.13.03.2.04,4.18.7,8.42,1.05,12.66,1.05,9.55.03,19.02-1.65,27.98-4.97-2.43-4.01-5.31-7.71-8.6-11.05-3.15-3.05-6.62-5.75-10.35-8.04Z"/>
  </g>
</svg>