<?xml version="1.0" encoding="UTF-8"?>
<svg id="Layer_1" xmlns="http://www.w3.org/2000/svg" viewBox="0 0 290.81 290.81">
  <defs>
    <style>
      .cls-1 {
        fill: #012b47;
      }

      .cls-2 {
        fill: #00712e;
      }

      .cls-3 {
        fill: #fff;
      }
    </style>
  </defs>
  <path class="cls-1" d="M0,0v290.81h290.81V0H0Z"/>
  <g id="rY6d0T.tif">
    <g>
      <path class="cls-3" d="M239.28,177.34c-5.54.06-11.07.15-16.61.18-5.95.03-11.9-.03-17.85.04-1.37.02-1.79-.34-1.78-1.75.05-16.66.05-33.32,0-49.97,0-1.45.5-1.7,1.81-1.7,10.68.05,21.35.05,32.03,0,1.42,0,2,.23,1.94,1.83-.14,3.57-.12,7.15,0,10.72.05,1.59-.4,2.1-2.03,2.06-4.32-.11-8.64.1-12.95-.09-2.28-.1-1.95,1.2-1.99,2.58-.04,1.47-.14,2.61,2.06,2.49,3.9-.21,7.82-.01,11.73-.08,1.25-.02,1.7.3,1.67,1.62-.09,3.49-.09,6.99,0,10.48.04,1.34-.45,1.63-1.68,1.6-3.91-.07-7.83.05-11.73-.06-1.58-.04-2.28.36-2.04,2,.08.56.08,1.15,0,1.7-.23,1.64.47,2.06,2.06,2.05,5.13-.04,10.25.08,15.38.15v14.15Z"/>
      <path class="cls-2" d="M99.9,150.8c0,8.13-.04,16.26.04,24.39.02,1.62-.28,2.21-2.08,2.2-10.35-.09-20.71-.07-31.06-.01-1.39,0-2.13-.41-2.8-1.65-3.91-7.27-7.89-14.51-11.94-21.71-.68-1.22-.7-2.16-.1-3.37,4.09-8.27,8.14-16.55,12.14-24.86.56-1.17,1.16-1.66,2.54-1.65,10.44.07,20.87.08,31.31,0,1.65-.01,2,.49,1.99,2.04-.07,8.21-.03,16.42-.03,24.63Z"/>
      <path class="cls-3" d="M141.48,149.79c6.04,1.66,9.23,5.03,9.72,10.09.73,7.54-1.51,12.23-7.14,15.11-2.95,1.51-6.11,2.25-9.37,2.3-8.88.16-17.76.13-26.65.26-1.55.02-2.08-.35-2.07-2,.06-16.5.05-33.01,0-49.51,0-1.45.31-1.93,1.86-1.92,8.64.09,17.29-.12,25.93.1,8.06.21,14.32,4.72,15.2,12.25.56,4.83-.4,10.04-7.48,13.3ZM124.28,160.25c.67,1.24-1.71,4.25,2.41,4,4.3-.25,6.42-1.42,6.41-4.23,0-2.75-2.1-4.16-6.18-4.16q-2.65,0-2.65,4.39ZM124.28,140.19q0,4,2.07,4c3.25,0,4.92-1.27,4.87-3.73-.05-2.43-1.87-3.72-5.59-3.57-2.76.11-.64,2.42-1.36,3.3Z"/>
      <path class="cls-3" d="M190.39,141.77c-3.33-2.31-6.65-4.09-10.61-4.16-.56-.01-1.13-.03-1.69.04-1.3.15-2.48.69-2.75,2.02-.29,1.41.99,1.99,2.01,2.38,2.11.8,4.25,1.72,6.45,2.06,14.68,2.25,16.4,17.78,9.06,26.68-5.7,6.9-13.32,8.53-21.7,7.89-5.79-.44-11.27-2.12-16.44-4.82-1.31-.68-1.75-1.25-1.08-2.77,1.9-4.27,3.6-8.63,5.46-13.17,2.93,1.88,5.79,3.61,8.99,4.67,1.89.63,3.81.77,5.77.64,1.34-.09,2.38-.77,2.71-2.07.36-1.41-.78-1.99-1.78-2.55-1.87-1.04-4-1.25-6.04-1.69-6.28-1.36-11.1-4.51-12.5-11.03-1.55-7.23.68-13.44,6.57-18.15,4.61-3.68,10.02-4.65,15.75-4.7,5.75-.05,11.01,1.67,16.1,4.09.6.29,1.69.26,1.13,1.59-1.84,4.29-3.58,8.61-5.41,13.06Z"/>
    </g>
  </g>
</svg>