<?xml version="1.0" encoding="UTF-8"?>
<svg id="Layer_1" xmlns="http://www.w3.org/2000/svg" viewBox="0 0 290.81 290.81">
  <defs>
    <style>
      .cls-1 {
        fill: #fff;
      }

      .cls-2 {
        fill: #284985;
      }

      .cls-3 {
        fill: #95c8c3;
      }
    </style>
  </defs>
  <path class="cls-1" d="M0,0v290.81h290.81V0H0Z"/>
  <g id="gR6huR.tif">
    <g>
      <path class="cls-2" d="M66.52,116.98v14.69c6.94-3.16,13.73-4.2,20.66-1.27,4.68,1.97,8.28,5.2,10.85,9.55,5.02,8.52,3.98,19.21-2.54,26.52-7.52,8.43-16.83,9.49-30.54,3.34.8,3.82-1.27,4.37-4.33,4.12-2.29-.19-4.62.04-6.92.08v-57.14c4.27.04,8.55.08,12.82.12ZM65.71,151.01c-.13,6.48,4.78,11.69,11.2,11.88,6.58.2,12.06-5,12.12-11.49.06-6.28-5.12-11.79-11.31-12.01-6.42-.23-11.89,5.06-12.01,11.62Z"/>
      <path class="cls-3" d="M188.14,174c-.87,0-1.75-.11-2.6.02-3.91.57-4.49-1.23-4.11-4.74,1.71-15.78,11.59-25.08,24.77-31.97,3.57-1.87,7.1-3.89,10.41-6.19,4.03-2.81,7.02-6.5,7.25-11.69.09-2.14,1.07-2.75,2.99-2.62,1.01.07,2.02,0,3.03,0,7.65,0,8.13.64,6.4,8.07-2.73,11.79-11.44,18.2-21.26,23.63-4.26,2.35-8.67,4.42-12.44,7.61-3.62,3.06-6.46,6.7-7.19,11.37-1.02,6.48-.78,6.51-7.26,6.51Z"/>
      <path class="cls-2" d="M117.23,173.87c-1.16,0-2.31,0-3.46,0-6.19,0-5.89-.02-6.29-6.07-.28-4.14,1.17-5.21,5.01-4.86,3.29.3,6.64.11,9.95-.02,1.84-.07,4.04-.04,4.33-2.58.28-2.39-1.7-3.12-3.45-3.8-2.82-1.08-5.74-1.93-8.53-3.09-6.22-2.59-8.86-6.42-8.52-12.08.36-6.05,3.79-10.02,10.26-11.74,6.11-1.62,12.35-.64,18.54-.89,1.56-.06,1.79.72,1.93,2.1.87,8.57.92,8.57-7.62,8.57-2.17,0-4.33.02-6.5,0-1.72-.01-3.36.42-3.77,2.22-.49,2.13,1.21,3.09,2.88,3.69,2.71.98,5.51,1.69,8.22,2.68,7.29,2.68,10.26,7.49,9.38,15.01-.68,5.82-4.62,9.15-12.01,10.37-3.45.57-6.91.43-10.36.49Z"/>
      <path class="cls-2" d="M148.43,116.94c4.5-.26,8.99-.43,13.48.1,0,.72-.03,1.44-.01,2.16.06,3.02-.89,6.69.5,8.88,1.43,2.25,5.35.66,8.16.78,1.93.08,2.61.77,2.41,2.57-.03.29-.01.58,0,.86.16,7.03.15,7.25-6.96,6.98-3.58-.14-4.37,1.12-4.18,4.38.26,4.45.04,8.94.08,13.41.03,3.78,1.68,6.34,5.76,5.73,5.04-.75,5.28,1.77,5.45,5.8.18,4.44-1.11,6.03-5.47,5.32-1.98-.33-4.05-.14-6.03-.48-8.79-1.47-13.13-6.47-13.18-15.41-.08-13.7-.01-27.39,0-41.09Z"/>
    </g>
  </g>
</svg>