<?xml version="1.0" encoding="UTF-8"?>
<svg id="Layer_1" xmlns="http://www.w3.org/2000/svg" viewBox="0 0 290.81 290.81">
  <defs>
    <style>
      .cls-1 {
        fill: #334e8a;
      }

      .cls-2 {
        fill: #fff;
      }
    </style>
  </defs>
  <path class="cls-2" d="M0,0v290.81h290.81V0H0Z"/>
  <g>
    <path class="cls-1" d="M71.2,111.85c10.61,0,20.42-.39,30.18.15,5.43.3,10.57,2.63,11.85,8.92,1.4,6.89-.31,12.94-6.09,17.34-2.22,1.69-4.78,2.94-7.54,4.61,1.44.46,2.71.88,4,1.27,12.74,3.82,16.74,17.02,8.32,27.55-4.47,5.59-10.66,8.05-17.45,8.47-7.61.48-15.28.11-23.27.11v-68.43ZM79.92,176.41c9.61.23,19.09,1.69,24.91-8,3.08-5.13,2.75-12.81-.91-16.9-6.6-7.36-15.29-6.33-24-6.01v30.91ZM80,142.56c6.66-1.41,12.85-1.91,18.36-4.11,5.77-2.31,6.92-7.95,6.33-13.89-.51-5.12-3.74-7.87-8.25-8.72-5.28-1-10.72-1.14-16.45-1.69v28.41Z"/>
    <path class="cls-1" d="M164.82,121.29c-4.01-2.58-7.5-5.83-11.61-7.22-5.6-1.89-11.92,1.64-14.2,6.62-2.48,5.42-.83,11.9,4.63,15.34,3.75,2.37,8.04,3.93,12.16,5.68,11.19,4.77,15.01,9.78,14.3,19.01-.74,9.68-7.46,17.99-17.42,20-4.9.99-10.36.93-15.24-.13-9.28-2.02-9.91-3.9-6.63-13.45,1.82,2.07,3.4,4.12,5.25,5.89,4.71,4.51,12.95,5.82,18.1,3.03,5.62-3.05,8.51-9.06,7.52-15.59-.78-5.16-4.18-8.19-8.59-10.25-3.76-1.76-7.64-3.29-11.48-4.87-7.32-3.01-11.63-8.05-11.47-16.35.17-8.89,3.8-14.45,12.02-17.69,6.44-2.54,12.91-2.56,19.5-.27,4.34,1.51,6.77,3.47,3.94,8.23-.49.83-.72,1.83-.78,2Z"/>
    <path class="cls-1" d="M219.61,116.02h-26.4v24.91h24.07c.16,1.63.31,3.2.48,4.94h-24.75v34.23h-8.51v-68.77h35.11v4.69Z"/>
  </g>
</svg>