<?xml version="1.0" encoding="UTF-8"?>
<svg id="Layer_1" xmlns="http://www.w3.org/2000/svg" viewBox="0 0 290.81 290.81">
  <defs>
    <style>
      .cls-1 {
        fill: #fdfefd;
      }

      .cls-2 {
        fill: #3c9042;
      }

      .cls-3 {
        fill: #fff;
      }
    </style>
  </defs>
  <path class="cls-3" d="M0,0v290.81h290.81V0H0Z"/>
  <g id="qk5JOA">
    <g>
      <path class="cls-1" d="M151.83,55.23c-1.15.06-2.63.14-4.12.23-41.2,2.51-70.88,41.9-61.98,82.23,8.46,38.31,46.02,61.41,83.98,51.58,11.95-3.09,22.33-9.08,30.9-17.98,6.21-6.45,4.21-16.87-3.78-20.84-5.12-2.55-10.89-1.42-15.52,2.96-9.03,8.53-19.76,12.57-32.16,11.59-24.55-1.93-41.84-23.9-38.09-48.22,3.34-21.7,23.75-37.35,45.5-34.92,9.69,1.08,18,5.05,25.01,11.84,4.27,4.13,10.02,5.18,14.93,2.86,8.39-3.95,10.44-14.66,3.87-21.24-13.27-13.3-29.46-19.79-48.54-20.07ZM149.29,235.58c15.05,0,30.1,0,45.15,0,4.93,0,8.65-2.17,10.86-6.51,4.19-8.24-1.72-17.47-11.32-17.5-29.63-.09-59.26-.03-88.9,0-2.78,0-5.45.6-7.74,2.3-4.15,3.07-6.02,8.46-4.57,13.14,1.61,5.24,6.01,8.54,11.6,8.55,14.97.03,29.95.01,44.92.01Z"/>
      <path class="cls-2" d="M151.83,55.23c19.08.28,35.26,6.77,48.54,20.07,6.57,6.58,4.51,17.29-3.87,21.24-4.92,2.32-10.67,1.27-14.93-2.86-7.01-6.79-15.31-10.75-25.01-11.84-21.75-2.43-42.16,13.23-45.5,34.92-3.75,24.32,13.54,46.3,38.09,48.22,12.4.97,23.13-3.06,32.16-11.59,4.64-4.38,10.4-5.5,15.52-2.96,8,3.97,10,14.4,3.78,20.84-8.57,8.89-18.95,14.88-30.9,17.98-37.96,9.83-75.52-13.27-83.98-51.58-8.91-40.33,20.78-79.72,61.98-82.23,1.49-.09,2.97-.17,4.12-.23Z"/>
      <path class="cls-2" d="M149.29,235.58c-14.97,0-29.95.02-44.92-.01-5.59-.01-9.99-3.31-11.6-8.55-1.44-4.68.43-10.08,4.57-13.14,2.3-1.7,4.96-2.3,7.74-2.3,29.63-.03,59.26-.08,88.9,0,9.59.03,15.5,9.26,11.32,17.5-2.21,4.34-5.93,6.51-10.86,6.51-15.05,0-30.1,0-45.15,0Z"/>
    </g>
  </g>
</svg>