<?xml version="1.0" encoding="UTF-8"?>
<svg id="Layer_1" xmlns="http://www.w3.org/2000/svg" viewBox="0 0 290.81 290.81">
  <defs>
    <style>
      .cls-1 {
        fill: #fff;
      }

      .cls-2 {
        fill: #004b8e;
      }
    </style>
  </defs>
  <path class="cls-2" d="M0,0v290.81h290.81V0H0Z"/>
  <g id="DS3GY6">
    <g>
      <path class="cls-1" d="M81.91,171.53h63.33v-8.71h-57.07c16.09-20.11,22.12-41.96,18.93-66.78,2.01-.22,3.57-.54,5.13-.54,23.49-.02,46.98.1,70.47-.09,4.49-.04,6.87,1.7,8.97,5.45,10.07,18.01,13.06,37.16,9.95,57.42-.51,3.35-1.99,4.7-5.61,4.63-11.66-.23-23.32-.09-34.98-.09-1.8,0-3.6,0-5.76,0v8.48h53.65c-6.17,14.97-15.4,25.61-28.67,33.45-.78-2.61-1.25-4.69-2.01-6.66-1.45-3.78-4.45-6.59-8.28-5.96-3.01.5-6.82,2.62-8.24,5.16-9.17,16.34-18.83,20.35-36.78,14.54-17.65-5.71-30.82-16.75-39.67-33-1.09-2-1.91-4.15-3.33-7.29ZM193.84,154.78c2.51-16.7-.07-32.43-7.71-47.42-1.48-2.9-3.28-3.99-6.6-3.97-19.49.13-38.99,0-58.48-.01-1.59,0-3.18.2-5.14.34.88,18.29-3.35,34.99-12.31,51.06h90.25ZM94.91,179.59c9.14,13.38,20.73,21.74,35.43,25.6,12.33,3.23,18.24.22,23.97-11.53,5.1-10.45,18.4-12.95,26.91-5,1.06.99,1.75,2.37,3.06,4.19,4.23-4.69,7.67-8.5,11.97-13.26h-101.33Z"/>
      <path class="cls-1" d="M154.82,91.47c-9.42-3.99-19.99,1.84-28.45-7.03,8.56.7,14.97-2.55,21.39-6.42,5.13-3.09,7.06-1.56,7.07,4.37,0,2.8,0,5.61,0,9.07Z"/>
      <path class="cls-1" d="M165.84,136.15c-3.75-.61-7-1.14-10.25-1.66.32,3.07.64,6.14,1.01,9.62h-12.66c.86-1.81,1.92-3.46,2.4-5.27.38-1.44.63-3.74-.15-4.43-.89-.79-3.05-.51-4.54-.18-1.55.35-2.97,1.32-4.99,2.28v-12.97c3.32.48,6.67.96,10.03,1.44-.41-3.08-.82-6.16-1.29-9.74h13.2c-1.09,2.21-2.26,4.02-2.88,6.01-.38,1.23-.46,3.29.27,3.94.81.73,2.77.66,4.05.3,1.85-.53,3.54-1.63,5.81-2.74v13.39Z"/>
    </g>
  </g>
</svg>