<?xml version="1.0" encoding="UTF-8"?>
<svg id="Layer_1" xmlns="http://www.w3.org/2000/svg" viewBox="0 0 290.81 290.81">
  <defs>
    <style>
      .cls-1 {
        fill: #06b2a5;
      }

      .cls-2 {
        fill: #f4fbf9;
      }

      .cls-3 {
        fill: #f3f9fa;
      }
    </style>
  </defs>
  <path class="cls-1" d="M0,0v290.81h290.81V0H0Z"/>
  <g>
    <path class="cls-2" d="M168.53,174.5c0,8.3-.11,16.59.04,24.89.1,5.7-2.03,9.01-8.14,8.55-7.75-.58-15.57-.76-23.2-2.07-8.05-1.39-14.46-8.14-14.71-15.86-.5-15.54-.18-31.1-.2-46.65,0-4.94,3.13-5.8,7.21-5.78,10.37.05,20.75.17,31.11-.16,5.65-.18,7.41,3.02,7.51,7.55.23,9.84.07,19.69.07,29.54.11,0,.21,0,.32,0Z"/>
    <circle class="cls-3" cx="145.2" cy="105.79" r="22.96"/>
  </g>
</svg>