<?xml version="1.0" encoding="UTF-8"?>
<svg id="Layer_1" xmlns="http://www.w3.org/2000/svg" viewBox="0 0 290.81 290.81">
  <defs>
    <style>
      .cls-1 {
        fill: #fc002d;
      }

      .cls-2 {
        fill: #fff;
      }
    </style>
  </defs>
  <path class="cls-2" d="M0,0v290.81h290.81V0H0Z"/>
  <g id="YUd55B">
    <g>
      <path class="cls-1" d="M167.08,86.38c3.86-.22,7.35,1.77,10.43,4.66,12.61,11.84,25.25,23.64,37.77,35.58,6.32,6.03,6.36,13.77-.05,19.67-17.46,16.06-35.06,31.96-52.62,47.91-2.68,2.44-5.29,4.98-8.15,7.18-6.13,4.72-14.92,3.66-19.51-2.17-4.8-6.09-3.77-12.91,2.53-18.53,14.47-12.91,28.88-25.9,43.27-38.9,4.09-3.69,4.15-6.11.19-9.97-7.78-7.59-15.66-15.08-23.5-22.61-4.52-4.33-5.84-9.48-3.74-14.62,2-4.9,7.11-8.17,13.38-8.2Z"/>
      <path class="cls-1" d="M104.74,86.35c4.27.08,7.67,1.35,10.54,4.05,11.66,10.97,23.34,21.92,35.02,32.87,1.02.96,2.08,1.89,3.13,2.81,6.7,5.84,7.13,14.13.62,20.18-11.12,10.35-22.45,20.47-33.7,30.67-8.74,7.93-17.48,15.86-26.26,23.75-4.52,4.07-10.7,4.97-15.97,2.15-4.93-2.64-8.07-6.84-7.2-12.51.48-3.1,2.13-6.64,4.4-8.75,14.23-13.18,28.74-26.05,43.25-38.92,5.11-4.53,5.46-6.73.64-11.4-6.8-6.59-13.74-13.02-20.61-19.53-1.02-.96-2.07-1.9-3.03-2.92-3.8-4.06-5.56-8.66-3.21-14.09,2.39-5.53,6.91-7.96,12.36-8.36Z"/>
    </g>
  </g>
</svg>