<?xml version="1.0" encoding="UTF-8"?>
<svg id="Layer_1" xmlns="http://www.w3.org/2000/svg" viewBox="0 0 290.81 290.81">
  <defs>
    <style>
      .cls-1 {
        fill: #fff;
      }

      .cls-2 {
        fill: #db1b1a;
      }
    </style>
  </defs>
  <path class="cls-2" d="M0,0v290.81h290.81V0H0Z"/>
  <path class="cls-1" d="M205.87,85.46h-22.23l26.8,25.97-12.67,12.67-52.15-30.33-52.36,31.17-11.84-13.3,26.59-26.18h-22.44l-28.88,26.59,88.72,93.29,88.72-93.7-28.26-26.18ZM145.44,178.36l-9.15-9.06,9.52-6.66,9.89,5.92-10.26,9.8ZM165.51,158.01l-19.23-12.61-20.9,12.61-5.36-5.92,25.8-15.91,25.8,15.52-6.1,6.3ZM182.52,140.07l-37.08-20.71-36.71,20.71-4.44-4.99,41.11-24.23,41.19,23.86-4.07,5.36Z"/>
</svg>