<?xml version="1.0" encoding="UTF-8"?>
<svg id="Layer_1" xmlns="http://www.w3.org/2000/svg" viewBox="0 0 290.81 290.81">
  <defs>
    <style>
      .cls-1 {
        fill: #fff;
      }

      .cls-2 {
        fill: #ec1d25;
      }
    </style>
  </defs>
  <path class="cls-2" d="M0,0v290.81h290.81V0H0Z"/>
  <g>
    <path class="cls-1" d="M128.76,190.77c17.33-6.83,29.6-18.73,35.67-36.59,6.07-17.86,3.34-34.83-6.36-51.2,1.16-.08,1.82-.17,2.48-.17,5.71-.01,11.42-.08,17.13.02,4.04.07,7.99.73,11.72,2.41,6.56,2.94,10.49,8.07,11.93,14.99.63,3.04.79,6.22.81,9.34.1,14.24.05,28.49.12,42.73.04,8.4.22,16.8.33,25.21,0,.56,0,1.13-.01,1.69-.01.9-.43,1.41-1.37,1.43-.44,0-.88.02-1.32.02-29.86,0-59.72-.01-89.58,0-4.68,0-9.11-.89-13.17-3.25-3.41-1.98-5.78-4.81-7.22-8.56-1.41-3.67-1.66-7.45-1.66-11.27-.04-23.78-.02-47.56-.02-71.34,0-.56.02-1.13,0-1.69-.04-1.17.51-1.69,1.69-1.73,8.33-.25,16.6.15,24.46,3.21,10.17,3.95,18.3,10.49,24.25,19.71,3.98,6.18,6.4,12.94,7.3,20.18,1.17,9.41-.14,18.48-4.23,27.12-3,6.34-7.14,11.75-12.53,16.24-.35.29-.61.71-.91,1.06.16.14.33.29.49.43ZM168.86,109.68c6.38,16.01,7.05,31.96,1.28,47.89-5.78,15.95-16.49,27.84-31.34,36.2.65.34,1.17.49,1.69.49,17.82.01,35.63.02,53.45,0,1.97,0,2.27-.3,2.24-2.35-.03-2.19-.26-4.38-.27-6.57-.15-19.88-.28-39.77-.41-59.65,0-.38,0-.75-.02-1.13-.55-7.34-4.4-12.51-11.64-14.37-4.31-1.11-8.69-1.08-13.08-.96-.53.01-1.06.25-1.89.45Z"/>
    <path class="cls-1" d="M153.24,142.56c-.44-2.49-.81-4.87-1.29-7.23-1.72-8.37-5.6-15.64-11.23-22.03-6.23-7.06-13.75-12.42-22.05-16.71-.27-.14-1.06-.52-3.02-1.49-4.25-2.1-7.69-3.82-9.96-4.94,2.2.21,4.4.37,6.58.64,7.22.89,14.42,1.92,21.64,2.69,3.59.38,6.11,2.46,8.55,4.71,6.48,5.95,10.73,13.23,12.38,21.89,1.41,7.39.93,14.74-1.25,21.95-.05.16-.19.28-.36.52Z"/>
  </g>
</svg>