<?xml version="1.0" encoding="UTF-8"?>
<svg id="Layer_1" xmlns="http://www.w3.org/2000/svg" viewBox="0 0 290.81 290.81">
  <defs>
    <style>
      .cls-1 {
        fill: #36b1a9;
      }

      .cls-2 {
        fill: #fff;
      }

      .cls-3 {
        fill: #004a80;
      }
    </style>
  </defs>
  <path class="cls-2" d="M0,0v290.81h290.81V0H0Z"/>
  <g>
    <path class="cls-3" d="M162.19,91.34h25.25c15.74,0,37.13.3,37.13,28.22,0,25.85-22.87,28.52-33.57,28.52h-13.67v49.31h-15.15s0-106.05,0-106.05ZM177.64,135.6h10.99c11.29,0,19.31-2.97,19.31-15.74,0-16.04-11.59-16.04-19.31-16.04h-10.99v31.79Z"/>
    <path class="cls-1" d="M66.24,146.89c0-39.81,17.23-56.44,49.02-56.44,10.99,0,20.79,2.08,27.63,4.46v23.17h-10.99v-15.15c-5.64-1.19-12.77-1.78-17.23-1.78-10.99,0-19.31,2.67-25.85,8.02-5.35,6.83-9.51,19.01-9.51,37.43,0,34.76,13.37,42.78,34.76,42.78,6.24,0,13.07-.59,18.72-1.49v-29.11h-13.96v-10.69h24.66v48.72c-4.75,1.49-15.45,3.56-29.71,3.56-26.44,0-47.53-8.62-47.53-53.47Z"/>
  </g>
</svg>