<?xml version="1.0" encoding="UTF-8"?>
<svg id="Layer_1" xmlns="http://www.w3.org/2000/svg" viewBox="0 0 290.81 290.81">
  <defs>
    <style>
      .cls-1 {
        fill: #fff;
      }
    </style>
  </defs>
  <path class="cls-1" d="M0,0v290.81h290.81V0H0Z"/>
  <path d="M183.69,72.34c-11.53-5.97-24.49-9.26-38.28-9.26s-26.76,3.29-38.28,9.26h0c-26.14,13.79-44.04,41.37-44.04,73.06s17.91,59.27,44.25,73.06c11.32,5.76,24.29,9.26,38.08,9.26s26.55-3.5,38.08-9.47c26.34-13.58,44.25-41.16,44.25-72.86s-17.91-59.27-44.04-73.06ZM71.31,145.41c0-26.96,14.41-50.42,36.02-63.6h0c10.5-6.38,22.64-10.08,36.02-10.5l-9.26,67.3-26.76,20.79h0l-27.17,21.2c-5.56-10.5-8.85-22.43-8.85-35.19ZM183.69,208.8c-11.32,6.79-24.29,10.7-38.28,10.7s-27.17-3.91-38.28-10.7c-10.08-5.97-18.32-14.2-24.49-24.08l24.49-10.08h0l38.28-15.64,38.28,15.44h0l24.7,10.08c-6.17,10.08-14.82,18.32-24.7,24.29ZM183.69,159.4h0l-26.55-20.58-9.47-67.51c12.97.41,25.31,4.12,35.81,10.5h0c21.61,12.97,36.02,36.63,36.02,63.6,0,12.76-3.09,24.7-8.85,35.19l-26.96-21.2Z"/>
</svg>