<?xml version="1.0" encoding="UTF-8"?>
<svg id="Layer_1" xmlns="http://www.w3.org/2000/svg" viewBox="0 0 290.81 290.81">
  <defs>
    <style>
      .cls-1 {
        fill: #ffe716;
      }

      .cls-2 {
        fill: #377c2b;
      }
    </style>
  </defs>
  <path class="cls-1" d="M0,0v290.81h290.81V0H0Z"/>
  <g id="uxsnT0">
    <g>
      <path class="cls-2" d="M146.18,219h-2.29c-.63-.1-1.26-.3-1.9-.29-10.03.1-19.87-1.35-29.68-3.27-12.22-2.39-23.72-6.9-35.13-11.7-1.57-.66-2.57-1.82-3.16-3.35-.84-2.19-1.7-4.37-2.41-6.6-4.11-13.04-7.14-26.28-7.69-40.01-.42-10.49-.11-20.93,1.33-31.33,1.48-10.68,4.56-20.95,8.18-31.08.93-2.6,2.61-4.33,5.09-5.42,15.63-6.86,31.91-11.4,48.88-13.18,13.32-1.4,26.67-1.28,39.99.48,15.34,2.03,30.02,6.35,44.24,12.37,2.74,1.16,4.54,3.07,5.57,5.84,5.48,14.76,8.99,29.93,9.56,45.72.02.64.2,1.27.31,1.9v13.76c-.15,1.67-.31,3.34-.44,5.01-1.13,14.63-4.8,28.66-9.94,42.35-.67,1.77-1.86,3.03-3.6,3.81-20.77,9.24-42.41,14.53-65.23,14.62-.56,0-1.11.24-1.67.37ZM220.64,145.4c0-2.51.07-5.02-.01-7.52-.48-15.37-4.01-30.11-9.25-44.5-.45-1.22-1.19-1.96-2.39-2.48-15.94-6.93-32.5-11.36-49.85-12.72-4.73-.37-9.47-.93-14.2-.88-5.55.06-11.11.57-16.64,1.12-15.53,1.55-30.42,5.62-44.78,11.68-2.52,1.06-4.16,2.83-5.09,5.41-7.57,21.06-9.73,42.76-7.77,64.95,1.05,11.81,3.94,23.2,7.81,34.37.9,2.62,2.46,4.3,5.03,5.39,20.31,8.63,41.48,12.89,63.54,12.5,5.44-.09,10.9-.33,16.31-.92,14.9-1.6,29.23-5.5,43.06-11.27,2.96-1.23,4.98-3.15,6.05-6.21,5.54-15.85,8.68-32.09,8.19-48.93Z"/>
      <path class="cls-1" d="M220.64,145.4c.49,16.84-2.65,33.09-8.19,48.93-1.07,3.06-3.09,4.98-6.05,6.21-13.83,5.77-28.16,9.67-43.06,11.27-5.41.58-10.87.82-16.31.92-22.06.38-43.23-3.88-63.54-12.5-2.57-1.09-4.12-2.77-5.03-5.39-3.87-11.18-6.76-22.56-7.81-34.37-1.97-22.19.19-43.89,7.77-64.95.93-2.58,2.57-4.35,5.09-5.41,14.36-6.06,29.25-10.13,44.78-11.68,5.53-.55,11.09-1.06,16.64-1.12,4.73-.06,9.47.51,14.2.88,17.35,1.36,33.92,5.79,49.85,12.72,1.19.52,1.94,1.25,2.39,2.48,5.24,14.39,8.78,29.13,9.25,44.5.08,2.51.01,5.02.01,7.52ZM209.84,191.47c.32-.47.43-.59.49-.73.19-.45.37-.91.52-1.38,5.27-16.54,7.59-33.45,6.78-50.81-.69-14.63-3.63-28.75-8.68-42.47-.56-1.51-1.44-2.4-2.91-3.04-22.94-9.9-46.9-13.58-71.77-11.97-16.93,1.09-33.14,5.17-48.82,11.56-2.13.87-3.56,2.26-4.18,4.47-1.77,6.3-3.79,12.53-5.25,18.9-3.1,13.55-3.9,27.3-2.72,41.16,1.08,12.68,4.04,24.96,8.13,36.98.53,1.57,1.37,2.56,2.91,3.23,23.65,10.24,48.33,14.28,73.98,12.12,15.65-1.32,30.76-5.03,45.28-11.04,1.44-.6,2.84-1.29,4.33-1.97-.25-.51-.36-.82-.55-1.07-3.21-4.2-6.4-8.41-9.67-12.56-.43-.55-1.23-.9-1.93-1.13-3.57-1.2-7.13-2.4-10.74-3.46-8.41-2.48-16.07-6.19-21.9-13.02-.4-.47-1.22-.84-1.83-.81-5.12.21-10.29.15-15.34.89-8.14,1.2-16.07.97-23.95-1.43-4.54-1.38-9.08-2.77-13.67-3.93-2.31-.58-4.74-.67-7.11-.98-.08.17-.15.35-.23.52,1.56,2.22,3.02,4.53,4.69,6.66,2.74,3.48,5.96,6.46,10.33,7.7,3.68,1.05,4.01,4.41,5.49,7.06-.91-.12-1.66-.38-2.34-.77-6.89-3.94-13.36-8.49-19.21-13.85-2.49-2.28-4.92-4.66-7.05-7.27-1.96-2.41-1.43-3.69,1.57-4.3,5.66-1.14,11.34-2.15,17.03-3.11,3.89-.65,3.91-.57,4.67-4.38,1.25-6.22,3.01-12.28,5.64-18.08.81-1.78.74-1.88-1.09-2.29-1.01-.23-2.02-.46-3.03-.68-1.44-.31-2.91-.52-4.31-.95-1.37-.42-2.29-1.53-2.18-2.91.04-.49,1.32-1.04,2.12-1.27,5.91-1.73,11.85-3.37,17.78-5.07,1.89-.54,2.56-1.47,2.61-3.45.05-1.83-.59-2.63-2.52-3.3-2.63-.91-5.37-1.25-8.07-.71-4.59.93-9.12,2.11-13.68,3.18-.41.1-.83.16-1.25.24-.05-.14-.1-.28-.15-.42.47-.33.93-.68,1.42-.98,1.59-.96,3.16-1.94,4.79-2.83,1-.55,1.09-1.1.28-1.87-1.25-1.18-2.5-2.37-3.94-3.75,2.17-.14,3.82.48,5.42,1.64,1.01.73,2.3,1.5,3.47,1.51,1.96.02,3.93-.56,5.93-.89-.4-3.67-2.63-6.1-4.53-8.72,3.52,1.07,6.43,3.01,8.09,6.21,1.23,2.36,2.96,2.89,5.32,2.86,1.26-.02,1.78-.47,1.89-1.67.34-3.63-.09-7.08-2.21-10.17-.22-.32-.34-.69-.72-1.47,4.19,2.1,6.75,5.03,7.24,9.18.38,3.2.03,6.5-.11,9.74-.05,1.11-.41,2.2-.68,3.55,3.97-.53,7.69-1.03,11.4-1.52.04.16.07.32.11.49-3.47,3.45-6.87,7.02-12.54,6.29-.43-.06-1.24.6-1.4,1.08-.61,1.86-1.24,3.76-1.49,5.69-.51,3.93-1.11,7.89-1.05,11.83.05,3.28,2.72,5.53,5.99,5.9,1.68.19,3.37.24,5.06.31,5.28.22,10.58.27,15.85.65,4.82.35,9.61,1.06,14.34,1.6.65-5.68-1.54-10.66-4.72-15.39,6.05,3.15,10.57,7.57,12.92,13.98.44,1.19-.07,2.01-1.15,2.52-1.11.53-2.22,1.04-3.5,1.64,2.75,2.78,4.34,5.99,5.51,9.43.72,2.12,1.61,4.19,2.12,6.36,1.16,4.97,3.92,8.55,8.6,10.64.25.11.46.3.71.41,3.92,1.72,6.59,4.69,8.66,8.36,1.39,2.46,3.03,4.77,4.68,7.34Z"/>
      <path class="cls-2" d="M209.84,191.47c-1.65-2.57-3.29-4.88-4.68-7.34-2.07-3.67-4.74-6.64-8.66-8.36-.25-.11-.46-.3-.71-.41-4.67-2.09-7.43-5.67-8.6-10.64-.51-2.17-1.4-4.24-2.12-6.36-1.17-3.44-2.76-6.65-5.51-9.43,1.27-.6,2.39-1.11,3.5-1.64,1.08-.52,1.59-1.33,1.15-2.52-2.34-6.41-6.87-10.83-12.92-13.98,3.19,4.73,5.37,9.71,4.72,15.39-4.73-.54-9.52-1.25-14.34-1.6-5.27-.39-10.57-.44-15.85-.65-1.69-.07-3.38-.13-5.06-.31-3.27-.37-5.95-2.62-5.99-5.9-.06-3.94.54-7.9,1.05-11.83.25-1.93.87-3.83,1.49-5.69.16-.48.97-1.13,1.4-1.08,5.67.73,9.06-2.84,12.54-6.29-.04-.16-.07-.32-.11-.49-3.71.5-7.42.99-11.4,1.52.27-1.35.64-2.44.68-3.55.13-3.25.49-6.54.11-9.74-.49-4.15-3.05-7.08-7.24-9.18.37.78.5,1.16.72,1.47,2.12,3.09,2.55,6.54,2.21,10.17-.11,1.2-.63,1.65-1.89,1.67-2.36.03-4.09-.5-5.32-2.86-1.66-3.2-4.57-5.14-8.09-6.21,1.9,2.62,4.13,5.05,4.53,8.72-1.99.33-3.96.91-5.93.89-1.17,0-2.45-.78-3.47-1.51-1.61-1.16-3.25-1.78-5.42-1.64,1.45,1.37,2.69,2.57,3.94,3.75.81.77.72,1.32-.28,1.87-1.62.89-3.2,1.87-4.79,2.83-.49.3-.95.65-1.42.98.05.14.1.28.15.42.42-.08.83-.14,1.25-.24,4.56-1.07,9.09-2.25,13.68-3.18,2.7-.55,5.43-.21,8.07.71,1.93.67,2.56,1.47,2.52,3.3-.05,1.99-.72,2.91-2.61,3.45-5.92,1.69-11.86,3.34-17.78,5.07-.8.23-2.08.78-2.12,1.27-.11,1.39.8,2.5,2.18,2.91,1.4.43,2.87.64,4.31.95,1.01.22,2.02.45,3.03.68,1.83.41,1.89.51,1.09,2.29-2.63,5.79-4.39,11.85-5.64,18.08-.76,3.81-.78,3.73-4.67,4.38-5.69.96-11.37,1.97-17.03,3.11-3,.6-3.53,1.88-1.57,4.3,2.12,2.61,4.56,4.99,7.05,7.27,5.85,5.37,12.32,9.91,19.21,13.85.68.39,1.43.66,2.34.77-1.48-2.65-1.81-6.01-5.49-7.06-4.36-1.24-7.59-4.23-10.33-7.7-1.68-2.13-3.14-4.43-4.69-6.66.08-.17.15-.35.23-.52,2.38.31,4.81.4,7.11.98,4.59,1.16,9.13,2.55,13.67,3.93,7.88,2.4,15.81,2.63,23.95,1.43,5.05-.75,10.22-.68,15.34-.89.61-.03,1.43.35,1.83.81,5.83,6.83,13.49,10.53,21.9,13.02,3.61,1.06,7.18,2.26,10.74,3.46.7.23,1.5.58,1.93,1.13,3.27,4.15,6.46,8.36,9.67,12.56.19.25.29.56.55,1.07-1.49.68-2.89,1.37-4.33,1.97-14.52,6.02-29.64,9.73-45.28,11.04-25.65,2.16-50.33-1.89-73.98-12.12-1.54-.67-2.38-1.66-2.91-3.23-4.09-12.03-7.05-24.3-8.13-36.98-1.18-13.85-.38-27.61,2.72-41.16,1.46-6.37,3.48-12.6,5.25-18.9.62-2.21,2.05-3.61,4.18-4.47,15.67-6.39,31.88-10.47,48.82-11.56,24.86-1.6,48.83,2.07,71.77,11.97,1.47.63,2.35,1.53,2.91,3.04,5.06,13.72,8,27.84,8.68,42.47.82,17.37-1.51,34.28-6.78,50.81-.15.47-.34.92-.52,1.38-.06.14-.17.26-.49.73Z"/>
    </g>
  </g>
</svg>