<?xml version="1.0" encoding="UTF-8"?>
<svg id="Layer_1" xmlns="http://www.w3.org/2000/svg" viewBox="0 0 290.81 290.81">
  <defs>
    <style>
      .cls-1 {
        fill: #fff;
      }

      .cls-2 {
        fill: #003670;
      }
    </style>
  </defs>
  <path class="cls-1" d="M0,0v290.81h290.81V0H0Z"/>
  <g id="_x37_T82Bo">
    <path class="cls-2" d="M144.95,195.85c-19.44,0-38.87-.07-58.3.06-4.28.03-6.84-2.24-9.16-5.27-.24-.31-.48-.73-.48-1.1-.03-3.12-1-6.1-.98-9.28.15-24.4.09-48.81.07-73.21,0-3.33,1.04-6.25,3.24-8.74,1.95-2.21,4.66-2.81,7.38-3.34.56-.11,1.17-.02,1.75-.02,37.99,0,75.99,0,113.98-.01,3.83,0,7.04,1.24,9.76,4,1.69,1.72,2.33,3.79,2.48,5.99.2,2.76.05,5.55.05,8.33,0,23.97,0,47.93,0,71.9,0,5.29-2.33,8.74-7.22,10.41-1.04.36-2.25.28-3.39.28-19.73.01-39.45.01-59.18.01ZM145.24,180.93h46c.88,0,1.76.06,2.63-.01,3.62-.28,5.2-3.1,3.44-6.4-1.04-1.93-2.34-3.75-3.7-5.47-2.71-3.43-5.64-6.69-8.32-10.15-3.4-4.4-6.58-8.96-9.94-13.39-3.97-5.24-7.93-10.49-12.09-15.57-4.96-6.06-9.61-12.36-14.33-18.6-.21-.28-.63-.45-.98-.59-2.17-.86-4.21-.86-5.81,1.11-1.86,2.28-3.68,4.6-5.47,6.93-2.12,2.76-4.15,5.6-6.32,8.33-2.73,3.42-5.88,6.54-8.27,10.18-3.84,5.83-8.48,11.02-12.53,16.68-3.6,5.03-7.99,9.5-11.6,14.52-1.57,2.19-3.9,3.94-4.55,6.87-.17.75-.04.98.16,1.59,1.17,3.68,1.4,3.97,4.82,3.98,15.63,0,31.25,0,46.88,0Z"/>
  </g>
</svg>