<?xml version="1.0" encoding="UTF-8"?>
<svg id="Layer_1" xmlns="http://www.w3.org/2000/svg" viewBox="0 0 290.81 290.81">
  <defs>
    <style>
      .cls-1 {
        fill: #fff;
      }

      .cls-2 {
        fill: #00d473;
      }
    </style>
  </defs>
  <path class="cls-2" d="M0,0v290.81h290.81V0H0Z"/>
  <g id="d2qWzF">
    <g>
      <path class="cls-1" d="M158.5,164.66c-.2.85-.36,1.52-.58,2.42-3.38.48-6.79.28-10.13.12-.65-1.87-.72-42.05-.07-44.48,3.47-.17,7.02-.22,10.92.09v11.17c1.31-.77,2.17-1.37,3.11-1.81,6.9-3.22,15.31-1.24,20.39,4.79,7.06,8.38,5.26,22.04-3.7,28.23-4.75,3.28-13.28,4.61-19.11-.12-.16-.13-.37-.18-.84-.39ZM174.58,149.47c.06-4.61-3.47-8.32-8.01-8.41-4.56-.09-8.19,3.48-8.27,8.15-.09,4.69,3.39,8.3,8.02,8.33,4.76.03,8.2-3.33,8.26-8.08Z"/>
      <path class="cls-1" d="M218.64,167.29c-.22-1.05-.37-1.73-.54-2.57-.48.28-.83.47-1.17.7-10.27,6.73-24.09.81-26.47-11.31-.97-4.96-.68-9.73,1.7-14.25,5.38-10.22,18.23-11.39,24.99-6.11.21.17.47.28.88.52.22-.82.4-1.52.65-2.46.92-.06,1.88-.18,2.84-.19,1.91-.03,3.82-.04,5.73,0,1.81.04,2.01.28,2.09,2.14.01.28,0,.57,0,.85,0,9.91,0,19.83,0,29.74,0,.57.12,1.2-.09,1.68-.22.49-.76,1.17-1.18,1.19-3.09.1-6.19.05-9.43.05ZM218.34,149.3c0-4.56-3.62-8.19-8.21-8.24-4.66-.05-8.37,3.66-8.34,8.33.03,4.65,3.57,8.17,8.23,8.2,4.79.02,8.33-3.5,8.32-8.29Z"/>
      <path class="cls-1" d="M117.26,153.39c.82,3,3.07,4.79,6.16,5.08,3.8.36,7.5-.02,10.93-1.88.62-.33,1.26-.61,2.18-1.06,1.47,2.44,2.9,4.83,4.53,7.53-1.31.78-2.44,1.59-3.68,2.17-6.32,2.96-12.85,3.66-19.64,1.81-7.83-2.14-13.09-9.44-12.74-18.41.26-6.71,3.25-11.95,9.1-15.37,6.92-4.05,18.48-3.59,24.53,3.19,3.99,4.48,4.82,9.78,3.96,15.48-.07.45-.73.97-1.23,1.16-.56.21-1.26.1-1.89.1-6.44,0-12.89,0-19.33.01-.9,0-1.8.11-2.88.18ZM117.06,144.96c2.54.65,12.78.5,14.24-.18-.56-2.88-2.94-4.6-6.53-4.74-4.14-.16-6.73,1.45-7.71,4.92Z"/>
      <path class="cls-1" d="M89.82,135.29c.66-.63,1.04-.94,1.36-1.3,2.62-2.9,5.93-3.7,9.65-3.14,1.9.28,2.31.77,2.19,2.66-.18,2.8-.46,5.6-.71,8.63-1.02-.1-1.76-.22-2.51-.23-1.34-.03-2.7-.17-4,.04-2.26.36-3.97,1.71-4.59,3.92-.59,2.09-1,4.28-1.1,6.44-.17,4.03-.04,8.07-.06,12.1,0,.83-.1,1.66-.16,2.69-3.66.39-7.14.22-10.55.14-.65-1.74-.83-32.3-.25-35.33.52-.09,1.12-.27,1.72-.28,2.19-.04,4.39-.05,6.58,0,1.98.03,2.05.15,2.24,2.21.03.34.09.67.2,1.45Z"/>
      <path class="cls-1" d="M67.81,168.18c-3.62.02-6.39-2.68-6.37-6.21.02-3.39,2.77-6,6.34-6.01,3.47-.01,6.29,2.73,6.28,6.09-.01,3.42-2.76,6.12-6.24,6.14Z"/>
    </g>
  </g>
</svg>